<svg width="485" height="211" xmlns="http://www.w3.org/2000/svg" id="Design" viewBox="0 0 485 211" xml:space="preserve"><defs><style>.cls-1{fill:#f4b335;}.cls-2{fill:#1e73be;}.cls-3{fill:#8eb9de;}.cls-4{fill:#4b8fcb;}.cls-5{fill:#f7ca72;}.cls-6{fill:#f6be53;}</style></defs><path class="cls-1" d="M78.64,48.92q0,33-13.93,49.23T22.53,114.4a78.8,78.8,0,0,1-15.08-1.07V94.41A55.47,55.47,0,0,0,20.92,96q11.86,0,19.52-3.47A24.58,24.58,0,0,0,52.15,81.62q4.07-7.44,4.67-20.49h-.91Q51.46,68.3,45.65,71.21t-14.54,2.9q-14.62,0-23-9.35t-8.42-26q0-17.94,10.21-28.35T37.69,0a40.14,40.14,0,0,1,21.7,5.8A37.3,37.3,0,0,1,73.66,22.63Q78.64,33.66,78.64,48.92Zm-40.49-30q-7.35,0-11.49,5t-4.13,14.5q0,8.1,3.75,12.83T37.69,56A17.62,17.62,0,0,0,50,51.32q5.13-4.68,5.13-10.79a24.55,24.55,0,0,0-4.78-15.34A14.72,14.72,0,0,0,38.15,18.93Z"></path><path class="cls-1" d="M83.55,102q0-6.4,3.44-9.69T97,89q6.35,0,9.83,3.36t3.48,9.61q0,6-3.52,9.5T97,114.94q-6.43,0-10-3.4T83.55,102Z"></path><path class="cls-1" d="M200.79,48.92q0,33-13.93,49.23T144.69,114.4a78.66,78.66,0,0,1-15.08-1.07V94.41A55.35,55.35,0,0,0,143.08,96q11.86,0,19.52-3.47a24.67,24.67,0,0,0,11.71-10.92q4-7.44,4.67-20.49h-.92q-4.44,7.17-10.26,10.08t-14.54,2.9q-14.62,0-23-9.35t-8.42-26q0-17.94,10.22-28.35T159.84,0a40.11,40.11,0,0,1,21.7,5.8,37.32,37.32,0,0,1,14.28,16.83Q200.79,33.66,200.79,48.92Zm-40.49-30q-7.35,0-11.48,5t-4.13,14.5c0,5.4,1.24,9.67,3.75,12.83s6.3,4.73,11.4,4.73a17.6,17.6,0,0,0,12.32-4.7q5.13-4.68,5.13-10.79a24.49,24.49,0,0,0-4.78-15.34A14.72,14.72,0,0,0,160.3,18.93Z"></path><path class="cls-2" d="M29.39,150.43q0,7.74-3.85,11.89t-11,4.15q-7.18,0-11-4.15T-.35,150.39q0-7.78,3.85-11.88t11.06-4.1q7.2,0,11,4.13T29.39,150.43Zm-22.8,0q0,5.22,2,7.86a7,7,0,0,0,5.94,2.64q7.92,0,7.92-10.5t-7.88-10.52a7,7,0,0,0-6,2.65Q6.59,145.22,6.59,150.43Z"></path><path class="cls-2" d="M61.29,134.9v20.15a11.52,11.52,0,0,1-1.55,6,10,10,0,0,1-4.47,4,16.11,16.11,0,0,1-6.93,1.38q-6,0-9.36-3.07A10.94,10.94,0,0,1,35.65,155V134.9h6.6V154q0,3.6,1.46,5.28t4.8,1.68q3.26,0,4.72-1.69t1.46-5.32v-19Z"></path><path class="cls-2" d="M81,166.05H74.37V140.4H65.89v-5.5H89.48v5.5H81Z"></path><path class="cls-2" d="M29.39,193.6q0,7.74-3.85,11.89t-11,4.16q-7.18,0-11-4.16T-.35,193.56q0-7.77,3.85-11.88t11.06-4.1q7.2,0,11,4.13T29.39,193.6Zm-22.8,0q0,5.22,2,7.86a6.93,6.93,0,0,0,5.94,2.65q7.92,0,7.92-10.51t-7.88-10.52a7,7,0,0,0-6,2.65Q6.59,188.39,6.59,193.6Z"></path><path class="cls-2" d="M42.38,209.22H35.86V178.07H53.77v5.41H42.38v8H53v5.4H42.38Z"></path><path class="cls-2" d="M135.58,209.65h-15.7V166.78l.15-7,.26-7.7q-3.92,3.9-5.44,5.12L106.32,164l-7.58-9.43,23.94-19h12.9Z"></path><path class="cls-2" d="M200.79,172.61q0,19.41-6.38,28.73t-19.64,9.32q-12.86,0-19.38-9.63t-6.53-28.42q0-19.61,6.35-28.9t19.56-9.3q12.85,0,19.44,9.73T200.79,172.61Zm-36.33,0q0,13.63,2.36,19.53t8,5.9q5.49,0,7.93-6t2.44-19.46q0-13.63-2.46-19.58t-7.91-6q-5.53,0-7.92,6T164.46,172.61Z"></path><path class="cls-2" d="M245,156.45a7.56,7.56,0,0,1-2.52,6.13q-2.5,2.13-7.14,2.13H233.1v8.83h-5.28V148.71h8c3,0,5.31.65,6.89,1.94A7.09,7.09,0,0,1,245,156.45Zm-11.93,3.94h1.74a5.83,5.83,0,0,0,3.65-1,3.37,3.37,0,0,0,1.21-2.79,3.41,3.41,0,0,0-1-2.73,4.74,4.74,0,0,0-3.18-.89h-2.4Z"></path><path class="cls-2" d="M273.75,161.09q0,6.16-3.07,9.48t-8.79,3.31q-5.72,0-8.79-3.31T250,161.06q0-6.21,3.07-9.47t8.82-3.27q5.73,0,8.78,3.29T273.75,161.09Zm-18.18,0q0,4.16,1.59,6.27a5.54,5.54,0,0,0,4.73,2.1q6.33,0,6.32-8.37t-6.28-8.39a5.57,5.57,0,0,0-4.75,2.11C256.11,156.22,255.57,158.32,255.57,161.09Z"></path><path class="cls-2" d="M295,166.64a6.41,6.41,0,0,1-2.43,5.3,10.57,10.57,0,0,1-6.75,1.94,15.9,15.9,0,0,1-7.06-1.5v-4.89a28.33,28.33,0,0,0,4.27,1.58,12.46,12.46,0,0,0,3.19.46,4.58,4.58,0,0,0,2.67-.66,2.26,2.26,0,0,0,.93-2,2.19,2.19,0,0,0-.41-1.3,4.48,4.48,0,0,0-1.2-1.1,30.86,30.86,0,0,0-3.23-1.68,15.43,15.43,0,0,1-3.42-2,7.62,7.62,0,0,1-1.82-2.3,7.1,7.1,0,0,1,1.55-8.23,9.33,9.33,0,0,1,6.19-1.89,14.51,14.51,0,0,1,3.71.46,27.24,27.24,0,0,1,3.69,1.29l-1.71,4.09a24,24,0,0,0-3.29-1.13,10.48,10.48,0,0,0-2.57-.33,3.41,3.41,0,0,0-2.29.7,2.28,2.28,0,0,0-.81,1.82,2.19,2.19,0,0,0,.33,1.21,3.4,3.4,0,0,0,1,1A29.16,29.16,0,0,0,289,159.2a13.4,13.4,0,0,1,4.78,3.34A6.52,6.52,0,0,1,295,166.64Z"></path><path class="cls-2" d="M310.57,173.54h-5.28V153.09h-6.77v-4.38h18.81v4.38h-6.76Z"></path><path class="cls-2" d="M320.48,166.34v-4.25h9.15v4.25Z"></path><path class="cls-2" d="M335.22,173.54V148.71h5.28v20.48h10.1v4.35Z"></path><path class="cls-2" d="M373,173.54l-1.81-5.91h-9.08l-1.8,5.91h-5.69l8.79-24.93h6.45l8.83,24.93Zm-3.07-10.33q-2.51-8-2.82-9.08c-.21-.71-.36-1.26-.45-1.67q-.56,2.17-3.22,10.75Z"></path><path class="cls-2" d="M403.52,148.71v16.06a9.19,9.19,0,0,1-1.24,4.83,8,8,0,0,1-3.56,3.17,12.76,12.76,0,0,1-5.52,1.11c-3.21,0-5.69-.82-7.46-2.46a8.68,8.68,0,0,1-2.66-6.71v-16h5.26v15.2a6.36,6.36,0,0,0,1.16,4.21,4.83,4.83,0,0,0,3.83,1.34,4.72,4.72,0,0,0,3.76-1.35,6.37,6.37,0,0,0,1.17-4.24V148.71Z"></path><path class="cls-2" d="M433.13,173.54h-6.71l-10.84-18.79h-.15q.31,5,.32,7.1v11.69H411V148.71h6.66l10.82,18.6h.12q-.25-4.84-.26-6.85V148.71h4.76Z"></path><path class="cls-2" d="M451.39,152.73a5.39,5.39,0,0,0-4.62,2.24,10.36,10.36,0,0,0-1.63,6.22q0,8.31,6.25,8.31a19.81,19.81,0,0,0,6.35-1.31v4.41a17.63,17.63,0,0,1-6.84,1.28q-5.44,0-8.32-3.29t-2.87-9.43a15.42,15.42,0,0,1,1.41-6.79,10.17,10.17,0,0,1,4.06-4.46,12,12,0,0,1,6.21-1.56,16.88,16.88,0,0,1,7.29,1.75l-1.7,4.28a26.78,26.78,0,0,0-2.81-1.15A8.42,8.42,0,0,0,451.39,152.73Z"></path><path class="cls-2" d="M484.86,173.54H479.6V162.82h-9.86v10.72h-5.28V148.71h5.28v9.73h9.86v-9.73h5.26Z"></path><path class="cls-2" d="M238.4,189.86a5.38,5.38,0,0,0-4.62,2.23,10.36,10.36,0,0,0-1.63,6.22q0,8.31,6.25,8.31a19.81,19.81,0,0,0,6.35-1.31v4.42a17.63,17.63,0,0,1-6.84,1.27q-5.44,0-8.32-3.29t-2.87-9.43a15.38,15.38,0,0,1,1.41-6.78,10.15,10.15,0,0,1,4.06-4.47,12,12,0,0,1,6.21-1.56,16.88,16.88,0,0,1,7.29,1.75L244,191.5a29.12,29.12,0,0,0-2.81-1.15A8.41,8.41,0,0,0,238.4,189.86Z"></path><path class="cls-2" d="M250.05,210.66V185.83h5.28v20.48h10.1v4.35Z"></path><path class="cls-2" d="M269.76,210.66V185.83H275v24.83Z"></path><path class="cls-2" d="M295.65,210.66H281.31V185.83h14.34v4.31h-9.06v5.46H295v4.31h-8.43v6.4h9.06Z"></path><path class="cls-2" d="M322.93,210.66h-6.71l-10.83-18.78h-.15q.31,5,.32,7.1v11.68h-4.72V185.83h6.66l10.82,18.6h.12q-.26-4.85-.26-6.85V185.83h4.75Z"></path><path class="cls-2" d="M338.81,210.66h-5.28V190.21h-6.76v-4.38h18.8v4.38h-6.76Z"></path><path class="cls-2" d="M363.74,201.13v9.53h-5.28V185.83h7.26c3.38,0,5.89.62,7.51,1.84a7.33,7.33,0,0,1,1.23,9.5,8,8,0,0,1-3.43,2.67q5.63,8.37,7.33,10.82H372.5l-5.95-9.53Zm0-4.28h1.71a6.46,6.46,0,0,0,3.69-.83,3,3,0,0,0,1.2-2.61,2.73,2.73,0,0,0-1.22-2.52,7.39,7.39,0,0,0-3.78-.75h-1.6Z"></path><path class="cls-2" d="M396.74,210.66l-1.81-5.91h-9.08l-1.8,5.91h-5.69l8.79-24.93h6.45l8.83,24.93Zm-3.07-10.33q-2.51-8-2.82-9.08c-.21-.7-.36-1.26-.45-1.67q-.56,2.17-3.22,10.75Z"></path><path class="cls-2" d="M415.17,210.66h-5.28V190.21h-6.77v-4.38h18.81v4.38h-6.76Z"></path><path class="cls-2" d="M425.76,210.66V185.83H431v24.83Z"></path><path class="cls-2" d="M459.4,210.66h-6.71l-10.83-18.78h-.16q.33,5,.33,7.1v11.68h-4.72V185.83H444l10.81,18.6h.12q-.25-4.85-.25-6.85V185.83h4.75Z"></path><path class="cls-2" d="M475.12,196.72H485v12.87a28.15,28.15,0,0,1-4.52,1.1,29.56,29.56,0,0,1-4.34.31q-5.64,0-8.61-3.3t-3-9.49q0-6,3.45-9.37t9.56-3.37A18.58,18.58,0,0,1,485,187l-1.76,4.21a12.64,12.64,0,0,0-5.67-1.35,7,7,0,0,0-5.49,2.29,8.89,8.89,0,0,0-2.06,6.16,9.94,9.94,0,0,0,1.66,6.18,5.76,5.76,0,0,0,4.83,2.13,17,17,0,0,0,3.36-.34V201.1h-4.72Z"></path><path class="cls-3" d="M343.33,0a129.14,129.14,0,0,0-41.18,11l14.3,24.68a101.06,101.06,0,0,1,26.88-7.16Z"></path><path class="cls-2" d="M226.72,116.27h28.64a99.86,99.86,0,0,1,7.17-26.8L237.78,75.22A127.83,127.83,0,0,0,226.72,116.27Z"></path><path class="cls-1" d="M473.93,75.22,449.18,89.47a99.87,99.87,0,0,1,7.18,26.8H485A127.84,127.84,0,0,0,473.93,75.22Z"></path><path class="cls-4" d="M275.11,67.86a101.73,101.73,0,0,1,19.66-19.61l-14.3-24.69a130.76,130.76,0,0,0-30.13,30Z"></path><path class="cls-5" d="M409.56,11A129,129,0,0,0,368.39,0V28.55a101.26,101.26,0,0,1,26.88,7.16Z"></path><path class="cls-6" d="M416.94,48.25a102.06,102.06,0,0,1,19.67,19.61L461.37,53.6a130.56,130.56,0,0,0-30.13-30Z"></path><path class="cls-2" d="M431.11,114.14,370,106.56a15.41,15.41,0,1,0,.06,18.24Z"></path></svg> 