<?xml version="1.0" standalone="no"?>
<!DOCTYPE svg PUBLIC "-//W3C//DTD SVG 1.1//EN" "http://www.w3.org/Graphics/SVG/1.1/DTD/svg11.dtd">
<svg xmlns="http://www.w3.org/2000/svg">
<metadata>Copyright (C) 2023 by original authors @ fontello.com</metadata>
<defs>
<font id="active-agency" horiz-adv-x="1000" >
<font-face font-family="active-agency" font-weight="400" font-stretch="normal" units-per-em="1000" ascent="850" descent="-150" />
<missing-glyph horiz-adv-x="1000" />
<glyph glyph-name="aarr" unicode="&#xe800;" d="M334 639c56 121 126 183 150 201 5 4 8 6 14 6h4c6 0 9-2 14-6 24-18 94-80 149-202-56-35-165-38-165-38s-109 3-166 39z m340-19l-134-138 40-254-80-63-79 63 39 254-134 138c-66-155-107-400-18-766 0 0-2 118 55 189 28 36 74 47 137 47s109-11 137-47c57-71 55-190 55-190 89 367 48 612-18 767z" horiz-adv-x="1000" />

<glyph glyph-name="aatm-detail" unicode="&#xe801;" d="M660 350l-110-150-50 70-50-70-110 150c-190-50-190-150-190-345 0 0 150-55 320-55h60c170 5 320 55 320 55 0 195 0 295-190 345z m-160-35l-80 35 80-80 80 80-80-35z m0 430c-95 0-150-90-135-190 15-100 65-170 135-170s120 70 135 170c15 105-40 190-135 190z" horiz-adv-x="1000" />

<glyph glyph-name="aatm-list" unicode="&#xe802;" d="M402 627c-15-64 27-173 98-173 71 0 113 109 98 173-11 49-54 82-98 82-44 0-87-33-98-82z m-207-45c-12-54 24-146 84-146s96 92 83 146c-9 42-46 70-83 70s-74-28-84-70z m443 0c-12-54 24-146 83-146 60 0 96 92 84 146-10 42-46 70-84 70-37 0-73-28-83-70z m-29-571l62 215c39 124-35 201-171 201-136 0-210-77-172-201l63-215c12-37 59-61 109-61 49 0 97 24 109 61z m-305 381c-25-33-48-91-21-179l56-190c-17-10-39-15-60-15-43 0-83 20-93 51l-53 183c-33 105 30 170 146 170 13 0 27-1 39-3-5-5-10-11-14-17z m417 20c116 0 179-65 146-170l-53-183c-10-31-50-51-93-51-21 0-43 5-60 15l56 189c27 89 4 147-21 180-4 6-9 12-14 17 12 2 25 3 39 3z" horiz-adv-x="1000" />

<glyph glyph-name="aaca-list" unicode="&#xe803;" d="M200 600h-161c-18 0-37-16-34-42l78-499s92 368 110 456c6 27 31 35 49 35h258s-35 104-38 116c-6 22-17 34-39 34h-166c-18 0-35-11-40-32-4-20-17-68-17-68z m244 0h-200s21 50 44 50h106c24 0 50-50 50-50z m-310-562c-16-24-38-38-63-38h786c27 0 46 16 52 42 22 109 84 422 84 422 3 25-15 36-31 36h-162v74c0 8-13 26-33 26h-188c-26 0-43-29-43-29l-36-71h-220c-16 0-32-9-35-25 0 0-79-335-86-366-3-19-11-50-25-71z m635 462h-219s29 50 57 50h114c36 0 48-50 48-50z" horiz-adv-x="1000" />

<glyph glyph-name="aacc" unicode="&#xe804;" d="M435 13h-371v676h166c12 0 21 9 21 21s-9 22-21 22h-188c-12 0-21-10-21-22v-719c0-12 9-22 21-22h393c12 0 22 10 22 22s-10 22-22 22z m525 719h-302c-12 0-22-10-22-22s10-21 22-21h280v-677h-232c-12 0-22-9-22-21s10-22 22-22h254c12 0 21 10 21 22v719c0 12-9 22-21 22z m-483-103c-1 4 0 7 1 11l51 98c4 6 12 9 19 5 7-3 9-11 6-18l-51-98c-2-3-5-6-8-7-7-2-15 2-18 9z m-89-17c8 2 12 10 10 17l-34 106c-2 7-10 11-17 9-7-2-12-10-9-17l33-106c2-7 10-11 17-9z m440-434c2-7-2-14-10-16l-170-46-59-173c-2-4-5-7-9-8-2-1-3-1-4-1-6 0-11 4-12 10l-48 177c-112-25-226 44-256 157-31 116 38 236 154 267s236-38 267-155c13-47 9-95-8-137l147-66c4-2 7-6 8-9z m-181 87c15 36 18 77 7 118-27 100-131 160-232 133-100-26-160-131-133-231 25-97 123-157 220-137l-26 98c-41-7-82 18-93 59-11 44 15 89 58 101 44 11 89-15 101-58 3-14 4-27 1-40l97-43z m-360 290c3-2 7-2 10-1 4 1 7 3 8 7 4 6 1 15-6 18l-98 52c-7 3-15 0-19-7-3-6-1-15 6-18l99-51z" horiz-adv-x="1000" />

<glyph glyph-name="aaf3" unicode="&#xe805;" d="M161 827c-88 0-160-72-160-160v-794h838c89 0 161 72 160 160v794c0 0-838 0-838 0z m138-595h-82v342c0 28 23 50 50 50h245l-10-73h-202v-82h190l-10-74h-181v-163z m485-85c0-40-32-71-71-71h-253l10 73h231v77c0 8-7 15-15 15h-203l10 72h182c14 0 20 4 20 17v65h-190l10 73h195c47 0 69-20 70-66v-53c0-41-6-65-44-73 40-3 49-35 49-70-1 0-1-59-1-59z" horiz-adv-x="1000" />

<glyph glyph-name="aahp" unicode="&#xe806;" d="M515 174c9 10 18 21 26 33 0 0 0 0 0 0 1 1 1 3 2 4 0 0 1 1 1 1 1 1 1 2 2 3 0 1 0 1 1 1 0 2 1 3 1 4 1 0 1 1 1 1 1 1 1 2 2 3 0 1 1 1 1 2 0 1 1 2 1 3 1 1 1 1 1 2 1 1 1 2 2 3 0 1 0 1 0 2 1 1 1 2 2 3 0 1 0 1 1 2 0 1 0 2 1 3 0 1 0 1 1 2 0 1 0 2 1 3 0 1 0 1 1 2 0 1 0 2 1 3 0 1 0 2 0 2 1 1 1 2 1 3 0 1 1 2 1 3 0 1 1 2 1 3 0 0 0 1 1 2 0 1 0 2 1 3 0 1 0 2 0 2 0 1 1 2 1 3 0 1 0 2 1 3 0 1 0 2 0 2 0 1 1 2 1 3 0 1 0 2 0 3 1 1 1 2 1 3 0 1 0 1 0 2 1 1 1 2 1 3 0 1 0 2 0 3 0 1 0 2 1 3 0 1 0 1 0 2 0 1 0 2 0 3 0 1 1 2 1 3 0 1 0 2 0 3 0 1 0 2 0 3 0 1 0 2 0 3 0 1 0 1 0 2 0 1 1 3 1 4 0 0 0 1 0 2 0 2 0 4 0 6 0 23-4 46-11 67-1 4-2 7-3 11-1 2-1 3-2 5-3 9-7 17-12 25-1 2-1 3-2 5-8 13-16 25-26 36-1 1-2 2-4 4-4 5-10 10-15 15-3 3-5 5-8 7-14 12-30 22-46 30-5 2-10 5-16 7-3 1-6 2-10 4-23 7-48 11-73 11-10 0-20 0-29-1-4-1-8-1-11-2-2 0-4-1-6-1-4-1-7-2-11-3-2 0-4-1-5-1-4-1-8-2-11-3-3-1-6-2-9-4-5-2-11-4-17-7-9-5-18-10-27-15-1-1-2-2-3-3-6-3-11-7-16-12-3-2-5-4-8-7-6-5-11-10-15-15-2-2-3-3-4-4-3-3-5-6-7-9-7-8-13-18-19-27-1-2-1-3-2-5-2-4-4-8-6-11-1-3-2-5-3-7-1-2-2-5-3-7-1-2-1-3-2-5-1-4-3-7-4-11-6-21-10-44-10-67 0-2 0-4 0-6 0-1 0-2 0-2 0-1 0-3 1-4 0-1 0-1 0-2 0-1 0-2 0-3 0-1 0-2 0-3 0-1 0-2 0-3 0-1 1-2 1-3 0-1 0-2 0-3 0-1 0-1 0-2 0-1 0-2 1-3 0-1 0-2 0-3 0-1 0-2 0-3 1-1 1-1 1-2 0-1 0-2 1-3 0-1 0-2 0-3 0-1 1-2 1-3 0-1 0-2 0-2 1-1 1-2 1-3 0-1 0-2 1-3 0 0 0-1 0-2 1-1 1-2 1-3 0-1 1-2 1-2 0-1 0-2 1-3 0-1 0-2 1-3 0-1 0-2 1-3 0 0 0-1 0-2 1-1 1-2 1-3 1-1 1-1 1-2 1-1 1-2 1-3 1-1 1-1 1-2 1-1 1-2 1-3 1-1 1-1 1-2 0-1 1-2 1-3 1-1 1-1 1-2 1-1 1-2 2-3 0-1 0-1 1-2 0-1 1-2 1-3 0-1 1-1 1-2 1-1 1-2 2-3 0 0 0-1 0-1 1-1 2-2 2-4 1 0 1 0 1-1 1-1 1-2 2-3 0 0 1-1 1-1 1-1 1-3 2-4 0 0 0 0 0 0 8-12 16-23 26-33 0 0 0 0 0 0v0c41-44 100-71 165-71 67 0 125 27 167 71l0 0c0 0 0 0 0 0z m-165 306c45 0 71-41 64-90-8-48-31-81-64-81s-57 33-64 81 19 90 64 90z m0-357c-66 0-125 31-164 79 6 46 25 74 88 90l52-71 24 34-38 37 38-16 38 16-38-37 23-34 52 71c63-16 82-44 88-90-38-48-97-79-163-79z m508 326h-222c-4 0-7 4-7 9s3 10 7 10h222c4 0 7-4 7-10s-3-9-7-9z m0-86h-222c-4 0-7 5-7 10s3 10 7 10h222c4 0 7-4 7-10s-3-10-7-10z m0-85h-222c-4 0-7 4-7 10s3 10 7 10h222c4 0 7-5 7-10s-3-10-7-10z m0-85h-222c-4 0-7 4-7 10s3 9 7 9h222c4 0 7-4 7-9s-3-10-7-10z m123 517v-719c0-12-9-22-21-22h-290-3-625c-12 0-21 10-21 22v719c0 12 9 22 21 22h285c12 0 22-10 22-22s-10-21-22-21h-263v-677h603 3 268v677h-261c-12 0-21 9-21 21s9 22 21 22h283c12 0 21-10 21-22z m-404-103h-154c-13 0-24 11-24 24v155c0 12 11 23 24 23h154c13 0 24-11 24-23v-155c0-13-11-24-24-24z m-139 40h124v123h-124v-123z" horiz-adv-x="1000" />

<glyph glyph-name="aapg" unicode="&#xe807;" d="M628 202h-256c-11 0-20 9-20 20v256c0 11 9 20 20 20h256c11 0 20-9 20-20v-256c0-11-9-20-20-20z m-237 39h218v218h-218v-218z m133 105h-47c-6 0-10 4-10 9v47c0 6 4 10 10 10h47c5 0 9-4 9-10v-47c0-5-4-9-9-9z m-38 19h28v28h-28v-28z m78-67c0 5-5 9-10 9h-108c-5 0-10-4-10-9s5-10 10-10h108c5 0 10 4 10 10z m64 251h-256c-11 0-20 9-20 20v257c0 10 9 19 20 19h256c11 0 20-9 20-19v-257c0-11-9-20-20-20z m-237 40h218v217h-218v-217z m133 104h-47c-6 0-10 4-10 10v47c0 5 4 9 10 9h47c5 0 9-4 9-9v-47c0-6-4-10-9-10z m-38 19h28v28h-28v-28z m78-67c0 5-5 10-10 10h-108c-5 0-10-5-10-10s5-10 10-10h108c5 0 10 5 10 10z m64-790h-256c-11 0-20 9-20 19v257c0 11 9 20 20 20h256c11 0 20-9 20-20v-256c0-11-9-20-20-20z m-237 39h218v218h-218v-218z m133 104h-47c-6 0-10 5-10 10v47c0 6 4 10 10 10h47c5 0 9-4 9-10v-47c0-5-4-10-9-10z m-38 20h28v27h-28v-27z m78-68c0 6-5 10-10 10h-108c-5 0-10-4-10-10s5-9 10-9h108c5 0 10 4 10 9z m-283 252h-256c-11 0-20 9-20 20v256c0 11 9 20 20 20h256c11 0 20-9 20-20v-256c0-11-9-20-20-20z m-237 39h218v218h-218v-218z m133 105h-47c-6 0-10 4-10 9v47c0 6 4 10 10 10h47c5 0 9-4 9-10v-47c1-5-4-9-9-9z m-38 19h28v28h-28v-28z m78-67c0 5-5 9-10 9h-108c-5 0-9-4-9-9s4-10 9-10h108c5 0 10 4 10 10z m64 251h-256c-11 0-20 9-20 20v257c0 10 9 19 20 19h256c11 0 20-9 20-19v-257c0-11-9-20-20-20z m-237 40h218v217h-218v-217z m133 104h-47c-6 0-10 4-10 10v47c0 5 4 9 10 9h47c5 0 9-4 9-9v-47c1-6-4-10-9-10z m-38 19h28v28h-28v-28z m78-67c0 5-5 10-10 10h-108c-5 0-9-5-9-10s4-10 9-10h108c5 0 10 5 10 10z m64-790h-256c-11 0-20 9-20 19v257c0 11 9 20 20 20h256c11 0 20-9 20-20v-256c0-11-9-20-20-20z m-237 39h218v218h-218v-218z m133 104h-47c-6 0-10 5-10 10v47c0 6 4 10 10 10h47c5 0 9-4 9-10v-47c1-5-4-10-9-10z m-38 20h28v27h-28v-27z m78-68c0 6-5 10-10 10h-108c-5 0-9-4-9-10s4-9 9-9h108c5 0 10 4 10 9z m758 252h-256c-11 0-20 9-20 20v256c0 11 9 20 20 20h256c11 0 20-9 20-20v-256c0-11-9-20-20-20z m-237 39h218v218h-218v-218z m133 105h-48c-5 0-9 4-9 9v47c0 6 4 10 9 10h48c5 0 9-4 9-10v-47c0-5-4-9-9-9z m-38 19h28v28h-28v-28z m78-67c0 5-5 9-10 9h-108c-5 0-10-4-10-9s5-10 10-10h108c5 0 10 4 10 10z m64 251h-256c-11 0-20 9-20 20v257c0 10 9 19 20 19h256c11 0 20-9 20-19v-257c0-11-9-20-20-20z m-237 40h218v217h-218v-217z m133 104h-48c-5 0-9 4-9 10v47c0 5 4 9 9 9h48c5 0 9-4 9-9v-47c0-6-4-10-9-10z m-38 19h28v28h-28v-28z m78-67c0 5-5 10-10 10h-108c-5 0-10-5-10-10s5-10 10-10h108c5 0 10 5 10 10z m64-790h-256c-11 0-20 9-20 19v257c0 11 9 20 20 20h256c11 0 20-9 20-20v-256c0-11-9-20-20-20z m-237 39h218v218h-218v-218z m133 104h-48c-5 0-9 5-9 10v47c0 6 4 10 9 10h48c5 0 9-4 9-10v-47c0-5-4-10-9-10z m-38 20h28v27h-28v-27z m78-68c0 6-5 10-10 10h-108c-5 0-10-4-10-10s5-9 10-9h108c5 0 10 4 10 9z" horiz-adv-x="1000" />

<glyph glyph-name="up" unicode="&#xe808;" d="M62 230q-26-22-50 0-24 24 0 50l196 190q26 26 48 0l196-190q24-26 0-50-24-22-50 0l-170 158z" horiz-adv-x="464" />

<glyph glyph-name="down" unicode="&#xe809;" d="M405 470q22 26 48 0 26-22 0-48l-196-192q-22-22-48 0l-196 192q-26 26 0 48 24 24 50 0l170-156z" horiz-adv-x="466" />

<glyph glyph-name="cancel" unicode="&#xe80a;" d="M452 194q18-18 18-43t-18-43q-18-16-43-16t-43 16l-132 152-132-152q-18-16-43-16t-43 16q-16 18-16 43t16 43l138 156-138 158q-16 18-16 43t16 43q18 16 43 16t43-16l132-152 132 152q18 16 43 16t43-16q18-18 18-43t-18-43l-138-158z" horiz-adv-x="470" />

<glyph glyph-name="flash" unicode="&#xe80b;" d="M494 534q10-11 4-24l-302-646q-7-14-23-14-2 0-8 1-9 3-14 11t-3 16l110 451-226-56q-2-1-7-1-10 0-17 7-10 8-7 21l112 461q2 8 9 13t15 5h183q11 0 18-7t7-17q0-4-2-10l-96-258 221 54q5 2 7 2 11 0 19-9z" horiz-adv-x="500" />

<glyph glyph-name="aahp-default-1" unicode="&#xe80c;" d="M996 350c0-135-58-253-156-314-75-47-162-53-237-16-1 0-1 1-1 1-199 37-435 543-255 637l58 29 97-190-58-29c-61-32 66-280 129-250 2 1 57 28 57 28l98-189c0-1-48-24-57-28 51-9 105 2 153 32 89 55 142 164 142 289 0 125-48 242-136 330-89 88-206 137-330 137s-242-49-330-137c-88-88-137-205-137-330s49-242 137-330c88-88 205-137 330-137 8 0 15-6 15-14s-7-15-15-15c-132 0-257 52-351 145s-145 219-145 351c0 132 52 257 145 351s219 145 351 145c132 0 257-52 351-145s145-219 145-351z" horiz-adv-x="1000" />

<glyph glyph-name="aasi" unicode="&#xe80e;" d="M650 200q62 0 106-43t44-107q0-62-44-106t-106-44-106 44-44 106q0 6 1 14t1 12l-260 156q-42-32-92-32-62 0-106 44t-44 106 44 106 106 44q54 0 92-30l260 156q0 4-1 12t-1 12q0 62 44 106t106 44 106-43 44-107q0-62-44-106t-106-44q-52 0-90 32l-262-156q2-8 2-26 0-16-2-24l262-156q36 30 90 30z" horiz-adv-x="800" />

<glyph glyph-name="aast-1" unicode="&#xe80f;" d="M702 632c-156 156-408 156-564 0-156-156-156-409 0-564 156-156 408-156 564 0 73 72 282 282 282 282s-199 199-282 282z m-282-596c-173 0-314 141-314 314 0 173 141 313 314 313s313-140 313-313c0-173-140-314-313-314z m60 473v-312h-106v233h-53v79h159z" horiz-adv-x="1000" />

<glyph glyph-name="aast-2" unicode="&#xe810;" d="M702 632c-156 156-408 156-564 0-156-156-156-409 0-564 156-156 408-156 564 0 73 72 282 282 282 282s-199 199-282 282z m-282-596c-173 0-314 141-314 314 0 173 141 313 314 313s313-140 313-313c0-173-140-314-313-314z m140 255v-82h-250v65l113 105c9 9 16 17 19 23 4 7 5 13 5 20 0 7-2 13-8 18-5 4-12 6-22 6-10 0-19-2-27-7-8-6-15-13-19-22l-80 40c12 22 30 40 53 53 23 13 50 19 83 19 25 0 46-4 65-12 20-8 34-20 45-35 11-14 16-32 16-51 0-17-4-33-11-48-7-15-21-32-42-52l-45-40h105z" horiz-adv-x="1000" />

<glyph glyph-name="aast-3" unicode="&#xe811;" d="M702 632c-156 156-408 156-564 0-156-156-156-409 0-564 156-156 408-156 564 0 73 72 282 282 282 282s-199 199-282 282z m-282-596c-173 0-314 141-314 314 0 173 141 313 314 313s313-140 313-313c0-173-140-314-313-314z m121 317c13-15 20-34 20-56 0-19-5-37-16-53-10-16-26-29-47-39-22-10-48-15-80-15-22 0-44 2-66 7-22 4-41 11-57 21l35 77c13-7 27-13 41-17 15-4 29-5 43-5 12 0 22 2 29 6 8 4 12 10 12 18 0 14-13 21-38 21h-41v65l46 47h-111v79h233v-65l-58-59c24-5 42-16 55-32z" horiz-adv-x="1000" />

<glyph glyph-name="aacc-icon" unicode="&#xe812;" d="M462 696c-2 4-1 8 1 12l60 116c4 7 14 11 22 6 8-4 11-14 7-22l-60-115c-2-4-6-7-10-8-9-3-17 2-20 11z m-106-21c9 3 14 12 11 21l-39 124c-3 9-12 14-21 11-8-3-13-12-10-21l39-124c3-9 12-13 20-11z m518-511c2-9-2-17-11-19l-201-54-69-204c-2-5-6-9-11-10-1 0-3 0-4 0-7 0-13 4-15 11l-55 208c-133-28-267 52-302 185-37 137 44 278 181 315 137 37 278-45 315-182 15-56 11-112-10-162l173-78c5-2 8-6 9-10z m-213 102c17 43 21 91 8 139-31 119-154 190-272 158-119-32-190-154-158-273 30-114 145-184 260-161l-31 115c-48-8-96 22-109 70-14 52 17 105 68 119s105-17 119-69c4-15 4-31 1-46l114-52z m-424 342c3-2 8-2 12-1 4 1 8 4 10 8 4 8 1 18-7 22l-116 60c-8 4-18 1-22-7-4-8-1-18 7-22l116-60z" horiz-adv-x="1000" />

<glyph glyph-name="aarrcc" unicode="&#xe813;" d="M481 329l-356-188c-6-3-8-9-5-14 1-2 2-3 4-4l88-61c3-2 5-6 5-10l-16-125c-1-6 3-12 9-13 0 0 0 0 0 0 3 0 5 1 7 2l111 59c3 2 8 2 11 0l90-62c5-3 11-2 15 3v0c1 2 1 3 2 5l51 397c0 6-4 12-10 12-2 1-4 0-6-1z m-121-262l-68 46c-5 3-6 10-3 15 1 2 3 3 4 4l79 41c6 3 12 1 15-4 1-2 2-5 1-7l-11-88c-1-6-6-10-12-9-2 0-4 0-5 1l0 1z m427 629c-192 159-477 131-635-61-8-9-15-19-22-28-82-118-103-268-57-403 1-4 5-6 9-4 0 0 0 0 1 0l82 43c2 1 4 4 3 8-30 100-13 209 48 296 109 157 325 195 482 85 7-5 14-10 21-16 134-110 166-302 75-450-57-92-154-152-262-162-3 0-6-3-6-6l-12-92c-1-4 2-7 6-8 0 0 1 0 1 0 151 7 288 89 365 219 114 191 72 437-99 579z m-58-507c88 126 57 301-70 389-5 4-11 7-17 11-117 69-267 44-355-60-58-67-80-158-59-244 1-4 4-6 8-5 1 0 1 0 2 1l84 44c3 1 4 4 4 7-5 47 10 95 41 131 54 62 143 78 216 39 85-46 116-152 70-237-3-6-6-11-10-16-22-32-53-55-89-66-3-1-5-3-5-6l-12-96c-1-4 2-7 5-8 1 0 2 0 2 0 75 12 141 54 185 116z" horiz-adv-x="1000" />

<glyph glyph-name="aasr" unicode="&#xe814;" d="M13 422c35 237 240 419 487 419s451-182 486-419h-26c-6 37-16 74-31 109-23 55-57 105-100 148s-93 76-148 100c-58 24-118 36-181 36s-124-12-182-36c-55-23-105-57-148-100-43-43-76-93-100-148-14-35-25-72-31-109h-26z m921-240c-1-4-3-9-5-14-24-55-57-105-100-148-43-43-93-76-148-100-58-24-118-36-181-36s-124 12-182 36c-55 24-105 57-148 100-43 43-76 93-100 148-2 5-3 9-5 14l-22-15c72-181 249-309 457-309 207 0 384 128 457 310l-23 14z m-783 146l-27-23c-6-5-8-12-6-18l10-35c1-5-4-9-8-6l-33 23c-6 4-14 4-20 0l-32-23c-4-3-10 2-9 6l10 35c2 6 0 13-5 18l-28 23c-4 3-1 9 4 10l36 2c6 0 12 4 15 10l14 35c2 5 9 5 10 0l15-35c2-6 8-10 15-10l36-2c5-1 7-7 3-10z m197 13l-31-27c-6-5-9-13-7-21l12-40c1-5-5-10-10-7l-38 26c-7 5-16 5-23 0l-37-25c-5-4-12 1-10 7l11 39c2 8 0 16-6 21l-32 27c-4 4-2 11 4 11l42 3c7 0 14 5 17 12l16 41c3 5 10 5 12 0l17-41c3-7 10-12 17-12l42-3c6 0 9-7 4-11z m506-3l36 2c7 0 13 4 15 10l14 35c2 5 9 5 11 0l14-35c3-6 8-10 15-10l36-2c5-1 7-7 3-10l-27-23c-5-5-7-12-5-18l10-35c1-5-4-9-9-6l-32 23c-6 4-14 4-20 0l-33-23c-4-3-9 2-8 6l10 35c2 6 0 13-6 18l-27 23c-4 3-2 9 3 10z m-198 14l42 2c8 1 14 6 17 13l17 41c2 5 9 5 12 0l16-41c3-7 10-12 18-13l41-2c6 0 8-8 4-11l-32-27c-6-5-8-13-6-21l11-40c2-5-5-10-10-7l-37 26c-7 5-16 5-23 0l-37-25c-5-4-12 1-10 7l11 39c3 8 0 16-6 21l-31 27c-5 4-2 11 3 11z m2 60l-58-50c-11-9-16-24-12-39l21-74c3-10-9-19-18-13l-70 48c-13 9-30 9-43 0l-70-48c-9-6-21 3-18 13l21 74c4 15 0 30-12 39l-58 50c-8 7-4 20 7 21l77 4c15 1 27 10 33 24l31 75c4 10 17 10 22 0l30-75c6-14 19-23 33-24l77-4c11-1 15-14 7-21z" horiz-adv-x="1000" />

<glyph glyph-name="chat" unicode="&#xe815;" d="M786 421q0-77-53-143t-143-104-197-38q-48 0-98 9-70-49-155-72-21-5-48-9h-2q-6 0-12 5t-6 12q-1 1-1 3t1 4 1 3l1 3t2 3 2 3 3 3 2 2q3 3 13 14t15 16 12 17 14 21 11 25q-69 40-108 98t-40 125q0 78 53 144t143 104 197 38 197-38 143-104 53-144z m214-142q0-67-40-126t-108-98q5-14 11-25t14-21 13-16 14-17 13-14q0 0 2-2t3-3 2-3 2-3l1-3t1-3 1-4-1-3q-2-8-7-13t-12-4q-28 4-48 9-86 23-156 72-50-9-98-9-151 0-263 74 32-3 49-3 90 0 172 25t148 72q69 52 107 119t37 141q0 43-13 85 72-39 114-99t42-128z" horiz-adv-x="1000" />

<glyph glyph-name="check" unicode="&#xe816;" d="M875 588l-535-600-340 338 123 124 196-195 420 457z" horiz-adv-x="875" />

<glyph glyph-name="upload" unicode="&#xe817;" d="M708-67v-83h-416v83h416z m0 167h-416v-83h416v83z m-416 292v-209h416v209h250l-458 458-458-458h250z" horiz-adv-x="1000" />

<glyph glyph-name="left" unicode="&#xe818;" d="M252 180q26-26 0-48-26-26-48 0l-192 194q-24 24 0 50l192 194q22 26 48 0 26-22 0-48l-156-172z" horiz-adv-x="265" />

<glyph glyph-name="right" unicode="&#xe819;" d="M13 180l158 170-158 172q-26 26 0 48 26 26 48 0l192-194q24-26 0-50l-192-194q-22-26-48 0-26 22 0 48z" horiz-adv-x="265" />

<glyph glyph-name="calendar" unicode="&#xe81a;" d="M0-66l0 738q0 35 24 60t60 24l135 0 0 63q0 13 9 22t22 9 22-9 9-22l0-63 188 0 0 63q0 13 9 22t22 9 22-9 9-22l0-63 188 0 0 63q0 13 9 22t22 9 22-9 9-22l0-63 135 0q35 0 60-24t24-60l0-738q0-35-24-60t-60-24l-832 0q-35 0-60 24t-24 60z m63 0q0-10 5-16t16-6l832 0q10 0 16 6t5 16l0 738q0 10-5 16t-16 6l-135 0 0-63q0-13-9-22t-22-9-22 9-9 22l0 63-188 0 0-63q0-13-9-22t-22-9-22 9-9 22l0 63-188 0 0-63q0-13-9-22t-22-9-22 9-9 22l0 63-135 0q-10 0-16-6t-5-16l0-738z m156 135l0 94 125 0 0-94-125 0z m0 156l0 94 125 0 0-94-125 0z m0 156l0 94 125 0 0-94-125 0z m219-312l0 94 125 0 0-94-125 0z m0 156l0 94 125 0 0-94-125 0z m0 156l0 94 125 0 0-94-125 0z m218-312l0 94 125 0 0-94-125 0z m0 156l0 94 125 0 0-94-125 0z m0 156l0 94 125 0 0-94-125 0z" horiz-adv-x="1000" />

<glyph glyph-name="plus" unicode="&#xe81b;" d="M550 400q30 0 30-50t-30-50l-210 0 0-210q0-30-50-30t-50 30l0 210-210 0q-30 0-30 50t30 50l210 0 0 210q0 30 50 30t50-30l0-210 210 0z" horiz-adv-x="580" />

<glyph glyph-name="aa-vertafore" unicode="&#xe81c;" d="M555 325l68 48v-157c0-11-4-22-12-31-17-19-46-20-65-3l-84 76 56 40 37-33v60z m68 235l24-39 55 40c-26 42-48 77-62 100-13 21-42 28-63 14-14-8-22-23-22-39v-181l68 49 0 56z m317 117c-15 7-34 6-48-4l-61-44-27-20-647-464-55-39v478l280-253 56 40-326 297c-19 17-48 15-65-3-8-9-12-20-12-32v-569c0-25 21-46 46-46 10 0 19 3 27 9l89 63 646 464 55 39v-348c-40 64-91 148-139 225l-56-39c67-108 140-227 176-288 13-22 42-29 64-16 14 8 22 23 22 40v469c0 17-9 33-25 41z" horiz-adv-x="1000" />

<glyph glyph-name="aast-icon" unicode="&#xe820;" d="M910-60h-820v820h820v-820z m-801 19h782v782h-782v-782z m391 643c-139 0-252-113-252-252s113-252 252-252 252 113 252 252-113 252-252 252z m0-42c78 0 145-42 182-105h-364c37 63 105 105 182 105z m0-420c-116 0-210 94-210 210 0 22 4 43 10 63h39c13-32 40-63 84-63 51 0 45 48 77 48s26-48 78-48c43 0 70 31 83 63h39c6-20 10-41 10-63 0-116-94-210-210-210z m116 169l10-10c-24-36-67-75-126-75-59 0-102 39-126 75l10 10c32-25 67-40 116-40 49 0 84 15 116 40z" horiz-adv-x="1000" />

<glyph glyph-name="aast-number" unicode="&#xe821;" d="M580 506v-312h-106v233h-53v79l159 0z m330-566h-820v820h820v-820z m-801 19h782v782h-782v-782z" horiz-adv-x="1000" />

<glyph glyph-name="aacc-dropdown" unicode="&#xe823;" d="M314 681c-3 3-4 7-3 11l14 120c1 8 8 14 17 12 8-1 14-8 13-16l-14-120c-1-4-3-7-6-10-6-5-16-4-21 3z m-157 77c-5 6-14 7-21 2-6-5-8-14-3-21l75-95c6-6 15-8 22-2 6 5 8 14 2 21l-75 95z m736-585l-187-50-64-188c-1-5-5-8-10-9-1-1-2-1-4-1-6 0-11 4-13 11l-51 192-1 3h-311v476h477v-332l5-2 161-73c3-2 7-5 8-9 2-8-3-16-10-18z m-610-12h272l-28 104-18 77-14-10c-3-3-7-3-10 0l-77 60c-6 5-3 16 6 16h153c8 0 12-11 5-16l-38-30 65-29 99-44v287h-415v-415z m-100 411l-120 14c-8 1-16-5-17-13-1-9 5-17 14-17l120-14c3-1 8 1 11 3 3 3 5 6 5 10 1 8-5 16-13 17z" horiz-adv-x="1000" />

<glyph glyph-name="aaar" unicode="&#xe83b;" d="M431 696h-132l-290-693h134l75 179c42-28 93-44 148-44s106 16 148 44l75-179h132l-290 693z m37-405c-26-26-62-42-102-42s-76 16-103 42l103 246 102-246 0 0z m837 177c0 126-103 228-229 228h-298v-693h118v237h108l159-237h142l-165 245c95 28 165 115 165 220z m-409 115h180c65 0 116-52 116-115s-51-116-116-116v0h-180c0 0 0 231 0 231z" horiz-adv-x="1312" />
</font>
</defs>
</svg>
