<?xml version="1.0" encoding="UTF-8"?> <svg xmlns="http://www.w3.org/2000/svg" xmlns:xlink="http://www.w3.org/1999/xlink" version="1.1" x="0px" y="0px" viewBox="0 0 2263.2 247.7" style="enable-background:new 0 0 2263.2 247.7;" xml:space="preserve"> <style type="text/css"> .st0{fill:#313E49;} .st1{fill:#FFFFFF;} .st2{fill:#EA4B60;} </style> <g id="Layer_2"> <g> <path class="st0" d="M217.7,247.7H0v-206C0,18.7,18.7,0,41.7,0h217.7v206C259.4,229,240.7,247.7,217.7,247.7L217.7,247.7z"></path> <path class="st1" d="M127,93.1H77.6V71.9H130l2.7-19.1H69c-7.2,0-13,5.8-13,13v88.7h21.6v-42.4h46.7L127,93.1L127,93.1z"></path> <path class="st2" d="M190.8,142.9c9.7-1.9,11.3-8.1,11.3-18.7v-11.3c0-0.9,0-1.7-0.1-2.5c-0.3-11.9-6-17.2-18.3-17.2h-50.2 l-2.7,19.1h49.6l0,16.8c0,3.4-1.7,4.5-5.1,4.5h-47.5l-2.6,18.7h52.6c2.1,0,3.8,1.7,3.8,3.8v19.8h-59.8l-2.7,19.1H185 c10.1,0,18.4-8.2,18.4-18.4v-15.1C203.3,152.3,201.3,144,190.8,142.9L190.8,142.9z"></path> </g> </g> <g id="Layer_3"> <g> <path class="st0" d="M423.1,183.4l-8.3-27.2h-41.7l-8.3,27.2h-26.1l40.3-114.7h29.6l40.5,114.7H423.1z M409,135.9 c-7.7-24.6-12-38.6-12.9-41.8c-1-3.2-1.7-5.8-2.1-7.7c-1.7,6.7-6.6,23.2-14.8,49.5H409z"></path> <path class="st0" d="M497.2,185c-27.2,0-40.8-14.9-40.8-44.8c0-14.8,3.7-26.2,11.1-34c7.4-7.8,18-11.8,31.8-11.8 c10.1,0,19.2,2,27.2,5.9l-7,18.4c-3.8-1.5-7.2-2.7-10.5-3.7c-3.2-1-6.5-1.4-9.7-1.4c-12.4,0-18.6,8.8-18.6,26.4 c0,17.1,6.2,25.6,18.6,25.6c4.6,0,8.8-0.6,12.7-1.8c3.9-1.2,7.8-3.1,11.7-5.7v20.4c-3.9,2.5-7.8,4.1-11.7,5.1 C508.1,184.5,503.1,185,497.2,185z"></path> <path class="st0" d="M580.8,166c4.2,0,9.2-0.9,15-2.7V181c-5.9,2.7-13.2,4-21.9,4c-9.5,0-16.5-2.4-20.8-7.2 c-4.4-4.8-6.5-12-6.5-21.7V114h-11.4v-10.1l13.1-8l6.9-18.4h15.2v18.6h24.5V114h-24.5v42.1c0,3.4,0.9,5.9,2.9,7.5 C575.1,165.2,577.7,166,580.8,166z"></path> <path class="st0" d="M612.4,73.5c0-7.8,4.3-11.6,13-11.6c8.6,0,13,3.9,13,11.6c0,3.7-1.1,6.6-3.2,8.6c-2.2,2.1-5.4,3.1-9.7,3.1 C616.8,85.2,612.4,81.3,612.4,73.5z M637.3,183.4h-23.8V96.1h23.8V183.4z"></path> <path class="st0" d="M683.1,183.4l-33.3-87.4h24.9l16.9,49.8c1.9,6.3,3,12.3,3.5,17.9h0.5c0.3-5,1.4-11,3.5-17.9l16.8-49.8h24.9 l-33.3,87.4H683.1z"></path> <path class="st0" d="M792.9,185c-14.1,0-25.1-3.9-33-11.6c-7.9-7.8-11.9-18.8-11.9-33c0-14.6,3.7-26,11-34c7.3-8,17.4-12,30.4-12 c12.3,0,22,3.5,28.8,10.6c6.9,7,10.3,16.8,10.3,29.1v11.6h-56.3c0.3,6.8,2.3,12.1,6,15.9c3.8,3.8,9,5.7,15.8,5.7 c5.3,0,10.2-0.5,14.9-1.6c4.7-1.1,9.6-2.8,14.7-5.2v18.4c-4.2,2.1-8.6,3.6-13.4,4.7C805.5,184.5,799.7,185,792.9,185z M789.5,111.4c-5.1,0-9,1.6-11.9,4.8c-2.9,3.2-4.5,7.7-4.9,13.6h33.4c-0.1-5.9-1.6-10.4-4.6-13.6 C798.6,113,794.6,111.4,789.5,111.4z"></path> <path class="st0" d="M919.7,183.4l-8.3-27.2h-41.7l-8.3,27.2h-26.1l40.3-114.7h29.6l40.5,114.7H919.7z M905.7,135.9 c-7.7-24.6-12-38.6-12.9-41.8c-1-3.2-1.7-5.8-2.1-7.7c-1.7,6.7-6.6,23.2-14.8,49.5H905.7z"></path> <path class="st0" d="M1034.4,96.1v12.1l-13.7,3.5c2.5,3.9,3.8,8.3,3.8,13.1c0,9.4-3.3,16.7-9.8,21.9c-6.5,5.2-15.6,7.9-27.2,7.9 l-4.3-0.2l-3.5-0.4c-2.5,1.9-3.7,4-3.7,6.3c0,3.4,4.4,5.2,13.1,5.2h14.8c9.6,0,16.9,2.1,21.9,6.2c5,4.1,7.5,10.2,7.5,18.1 c0,10.2-4.3,18.1-12.8,23.8c-8.5,5.6-20.8,8.4-36.7,8.4c-12.2,0-21.5-2.1-27.9-6.4c-6.4-4.3-9.7-10.2-9.7-17.9 c0-5.3,1.6-9.7,4.9-13.2c3.3-3.5,8.1-6.1,14.5-7.6c-2.5-1-4.6-2.7-6.4-5.1c-1.8-2.4-2.7-4.9-2.7-7.5c0-3.3,1-6.1,2.9-8.3 c1.9-2.2,4.7-4.4,8.4-6.5c-4.6-2-8.2-5.2-10.9-9.5c-2.7-4.4-4-9.5-4-15.5c0-9.5,3.1-16.9,9.3-22.1c6.2-5.2,15.1-7.8,26.6-7.8 c2.4,0,5.4,0.2,8.7,0.7c3.4,0.4,5.5,0.8,6.4,1H1034.4z M966.9,195.8c0,3.3,1.6,5.9,4.7,7.7c3.2,1.9,7.6,2.8,13.2,2.8 c8.5,0,15.2-1.2,20.1-3.5c4.8-2.3,7.3-5.5,7.3-9.6c0-3.3-1.4-5.5-4.3-6.8c-2.9-1.3-7.3-1.9-13.3-1.9h-12.3c-4.4,0-8,1-11,3.1 C968.4,189.7,966.9,192.4,966.9,195.8z M975.6,124.7c0,4.7,1.1,8.5,3.2,11.3c2.2,2.8,5.5,4.1,9.9,4.1c4.5,0,7.8-1.4,9.8-4.1 c2.1-2.8,3.1-6.5,3.1-11.3c0-10.5-4.3-15.8-13-15.8C980,108.9,975.6,114.2,975.6,124.7z"></path> <path class="st0" d="M1088.3,185c-14.1,0-25.1-3.9-33-11.6c-7.9-7.8-11.9-18.8-11.9-33c0-14.6,3.7-26,11-34c7.3-8,17.4-12,30.4-12 c12.3,0,22,3.5,28.8,10.6c6.9,7,10.3,16.8,10.3,29.1v11.6h-56.3c0.3,6.8,2.3,12.1,6,15.9c3.8,3.8,9,5.7,15.8,5.7 c5.3,0,10.2-0.5,14.9-1.6c4.7-1.1,9.6-2.8,14.7-5.2v18.4c-4.2,2.1-8.6,3.6-13.4,4.7C1100.9,184.5,1095.1,185,1088.3,185z M1085,111.4c-5.1,0-9,1.6-11.9,4.8c-2.9,3.2-4.5,7.7-4.9,13.6h33.4c-0.1-5.9-1.6-10.4-4.6-13.6C1094,113,1090,111.4,1085,111.4z"></path> <path class="st0" d="M1224,183.4h-23.8v-51c0-6.3-1.1-11-3.4-14.2c-2.2-3.2-5.8-4.7-10.7-4.7c-6.7,0-11.5,2.2-14.5,6.7 c-3,4.5-4.5,11.8-4.5,22.2v41.1h-23.8V96.1h18.2l3.2,11.2h1.3c2.7-4.2,6.3-7.4,11-9.6c4.7-2.2,10-3.2,15.9-3.2 c10.2,0,17.9,2.8,23.1,8.2c5.3,5.5,7.9,13.4,7.9,23.8V183.4z"></path> <path class="st0" d="M1284,185c-27.2,0-40.8-14.9-40.8-44.8c0-14.8,3.7-26.2,11.1-34c7.4-7.8,18-11.8,31.8-11.8 c10.1,0,19.2,2,27.2,5.9l-7,18.4c-3.8-1.5-7.2-2.7-10.5-3.7c-3.2-1-6.5-1.4-9.7-1.4c-12.4,0-18.6,8.8-18.6,26.4 c0,17.1,6.2,25.6,18.6,25.6c4.6,0,8.8-0.6,12.7-1.8c3.9-1.2,7.8-3.1,11.7-5.7v20.4c-3.9,2.5-7.7,4.1-11.7,5.1 C1295,184.5,1290,185,1284,185z"></path> <path class="st0" d="M1318.3,96.1h26.1l16.5,49.2c1.4,4.3,2.4,9.3,2.9,15.2h0.5c0.6-5.4,1.7-10.4,3.4-15.2l16.2-49.2h25.6 l-37,98.6c-3.4,9.1-8.2,15.9-14.5,20.5c-6.3,4.5-13.6,6.8-22,6.8c-4.1,0-8.2-0.4-12.1-1.3v-18.9c2.9,0.7,6,1,9.4,1 c4.2,0,7.9-1.3,11.1-3.9c3.2-2.6,5.6-6.5,7.4-11.7l1.4-4.3L1318.3,96.1z"></path> <path class="st0" d="M1557.3,125.2c0,12.9-2.3,23.6-7,32.2c-4.7,8.6-11.5,15.1-20.4,19.5c-8.9,4.3-19.7,6.5-32.3,6.5h-31V69.2 h34.5c11.6,0,21.6,2.1,30,6.4c8.4,4.2,14.9,10.5,19.4,18.8C1555,102.7,1557.3,113,1557.3,125.2z M1543.3,125.7 c0-10.3-1.7-18.7-5.1-25.4c-3.4-6.7-8.4-11.6-15-14.9c-6.6-3.3-14.7-4.9-24.2-4.9h-19.1V172h16.2c15.7,0,27.5-3.9,35.4-11.6 C1539.4,152.6,1543.3,141.1,1543.3,125.7z"></path> <path class="st0" d="M1612.8,96.4c10.2,0,17.8,2.3,22.7,6.9c5,4.6,7.4,11.9,7.4,22v58.2h-9.5l-2.5-12.7h-0.6 c-2.4,3.1-4.9,5.7-7.5,7.9c-2.6,2.1-5.6,3.7-9,4.8c-3.4,1.1-7.6,1.6-12.5,1.6c-5.2,0-9.8-0.9-13.9-2.7c-4-1.8-7.2-4.6-9.5-8.3 s-3.5-8.4-3.5-14.1c0-8.5,3.4-15.1,10.2-19.7c6.8-4.6,17.1-7.1,30.9-7.5l14.8-0.6v-5.2c0-7.4-1.6-12.6-4.8-15.6 c-3.2-3-7.7-4.5-13.4-4.5c-4.5,0-8.8,0.7-12.8,2c-4.1,1.3-7.9,2.8-11.6,4.6l-4-9.8c3.9-2,8.3-3.7,13.3-5.1 C1602,97.1,1607.3,96.4,1612.8,96.4z M1630.2,141.2l-13.1,0.5c-10.7,0.4-18.2,2.2-22.6,5.2c-4.4,3.1-6.6,7.4-6.6,13.1 c0,4.9,1.5,8.5,4.5,10.9c3,2.3,6.9,3.5,11.8,3.5c7.6,0,13.8-2.1,18.7-6.3c4.8-4.2,7.3-10.6,7.3-19V141.2z"></path> <path class="st0" d="M1725.1,160c0,5.5-1.4,10.1-4.1,13.8c-2.7,3.7-6.6,6.5-11.7,8.4c-5.1,1.9-11.1,2.8-18.2,2.8 c-6,0-11.2-0.5-15.6-1.4c-4.4-0.9-8.2-2.3-11.5-4v-12c3.5,1.7,7.7,3.3,12.5,4.7c4.8,1.4,9.8,2.1,14.9,2.1c7.4,0,12.8-1.2,16.1-3.6 c3.3-2.4,5-5.7,5-9.8c0-2.3-0.7-4.4-2-6.2c-1.3-1.8-3.6-3.5-6.7-5.2c-3.1-1.7-7.5-3.6-13-5.6c-5.5-2.1-10.2-4.2-14.2-6.2 c-4-2.1-7.1-4.6-9.2-7.5c-2.2-3-3.2-6.8-3.2-11.6c0-7.2,2.9-12.8,8.8-16.7c5.9-3.9,13.6-5.8,23.1-5.8c5.2,0,10,0.5,14.5,1.5 c4.5,1,8.7,2.4,12.6,4.1l-4.4,10.4c-3.5-1.5-7.3-2.8-11.3-3.8c-4-1-8.1-1.6-12.3-1.6c-6,0-10.6,1-13.8,3c-3.2,2-4.8,4.7-4.8,8.1 c0,2.7,0.7,4.8,2.2,6.6c1.5,1.7,3.9,3.3,7.2,4.8c3.3,1.5,7.6,3.3,13,5.3c5.4,2,10,4,13.9,6.1c3.9,2.1,6.9,4.7,9,7.7 C1724.1,151.5,1725.1,155.3,1725.1,160z"></path> <path class="st0" d="M1759,61.8v36.3c0,2.1,0,4.2-0.2,6.3c-0.1,2.1-0.3,4.1-0.5,5.8h0.9c1.8-3,4-5.6,6.8-7.6 c2.7-2.1,5.8-3.6,9.3-4.7s7.2-1.6,11.1-1.6c6.9,0,12.6,1.1,17.2,3.3c4.6,2.2,8.1,5.6,10.4,10.2s3.5,10.5,3.5,17.8v55.8h-12.8 v-54.9c0-7.1-1.6-12.5-4.9-16c-3.3-3.5-8.2-5.3-15-5.3c-6.4,0-11.4,1.2-15.2,3.6c-3.8,2.4-6.5,6-8.1,10.7 c-1.6,4.7-2.5,10.4-2.5,17.2v44.8h-13V61.8H1759z"></path> <path class="st0" d="M1857.1,61.8v30.4c0,3.5-0.1,6.9-0.3,10.2c-0.2,3.3-0.3,5.8-0.4,7.7h0.7c2.3-3.9,5.7-7.1,10.2-9.8 c4.4-2.7,10.1-4,17-4c10.7,0,19.3,3.7,25.7,11.1c6.4,7.4,9.6,18.5,9.6,33.1c0,9.6-1.5,17.8-4.4,24.4c-2.9,6.6-7,11.6-12.3,15 c-5.3,3.4-11.6,5.1-18.8,5.1c-6.8,0-12.3-1.3-16.7-3.8c-4.3-2.5-7.7-5.6-10-9.3h-1l-2.7,11.5h-9.4V61.8H1857.1z M1882.1,107.2 c-6.2,0-11.1,1.2-14.8,3.6c-3.7,2.4-6.3,6.1-7.9,10.9c-1.6,4.9-2.4,11-2.4,18.5v0.7c0,10.8,1.8,19,5.4,24.7 c3.6,5.7,10.1,8.6,19.6,8.6c8,0,14-2.9,17.9-8.8c4-5.8,6-14.2,6-25c0-11-2-19.4-5.9-24.9C1896.2,110,1890.2,107.2,1882.1,107.2z"></path> <path class="st0" d="M2015.9,140.5c0,7-0.9,13.3-2.7,18.8c-1.8,5.5-4.5,10.2-7.9,14c-3.4,3.8-7.6,6.7-12.5,8.7 c-4.9,2-10.4,3-16.5,3c-5.7,0-11-1-15.7-3s-8.9-4.9-12.3-8.7c-3.5-3.8-6.1-8.5-8-14c-1.9-5.5-2.9-11.8-2.9-18.8 c0-9.4,1.6-17.4,4.8-24c3.2-6.6,7.7-11.6,13.6-15.1s13-5.2,21.1-5.2c7.8,0,14.7,1.7,20.5,5.2c5.9,3.5,10.4,8.5,13.7,15.1 C2014.3,123.2,2015.9,131.1,2015.9,140.5z M1950.7,140.5c0,6.9,0.9,12.8,2.7,17.9c1.8,5.1,4.6,9,8.4,11.7 c3.8,2.8,8.7,4.1,14.7,4.1c5.9,0,10.8-1.4,14.7-4.1c3.8-2.8,6.7-6.7,8.5-11.7c1.8-5.1,2.7-11,2.7-17.9c0-6.8-0.9-12.7-2.7-17.7 c-1.8-5-4.6-8.8-8.4-11.5c-3.8-2.7-8.7-4.1-14.8-4.1c-8.9,0-15.4,2.9-19.6,8.8C1952.8,121.9,1950.7,130,1950.7,140.5z"></path> <path class="st0" d="M2070.4,96.4c10.2,0,17.8,2.3,22.7,6.9c5,4.6,7.4,11.9,7.4,22v58.2h-9.5l-2.5-12.7h-0.6 c-2.4,3.1-4.9,5.7-7.5,7.9c-2.6,2.1-5.6,3.7-9,4.8c-3.4,1.1-7.6,1.6-12.5,1.6c-5.2,0-9.8-0.9-13.9-2.7c-4-1.8-7.2-4.6-9.5-8.3 s-3.5-8.4-3.5-14.1c0-8.5,3.4-15.1,10.2-19.7c6.8-4.6,17.1-7.1,30.9-7.5l14.8-0.6v-5.2c0-7.4-1.6-12.6-4.8-15.6 c-3.2-3-7.7-4.5-13.4-4.5c-4.5,0-8.8,0.7-12.8,2c-4.1,1.3-7.9,2.8-11.6,4.6l-4-9.8c3.9-2,8.3-3.7,13.3-5.1 C2059.6,97.1,2064.9,96.4,2070.4,96.4z M2087.8,141.2l-13.1,0.5c-10.7,0.4-18.2,2.2-22.6,5.2c-4.4,3.1-6.6,7.4-6.6,13.1 c0,4.9,1.5,8.5,4.5,10.9c3,2.3,6.9,3.5,11.8,3.5c7.6,0,13.8-2.1,18.7-6.3c4.8-4.2,7.3-10.6,7.3-19V141.2z"></path> <path class="st0" d="M2166.2,96.2c1.7,0,3.5,0.1,5.4,0.3c1.9,0.2,3.5,0.4,5,0.7l-1.6,12c-1.4-0.4-3-0.7-4.7-0.9 c-1.7-0.2-3.3-0.3-4.8-0.3c-3.4,0-6.7,0.7-9.7,2.1c-3,1.4-5.7,3.4-8,5.9c-2.3,2.6-4.1,5.7-5.4,9.3c-1.3,3.6-2,7.6-2,12.1v46h-13.1 V97.8h10.8l1.4,15.8h0.5c1.8-3.2,3.9-6.1,6.4-8.7c2.5-2.6,5.4-4.7,8.7-6.3C2158.5,97,2162.1,96.2,2166.2,96.2z"></path> <path class="st0" d="M2223.2,185c-10.8,0-19.4-3.7-25.8-11.1c-6.3-7.4-9.5-18.4-9.5-33c0-14.7,3.2-25.9,9.7-33.4 c6.5-7.5,15.1-11.3,25.8-11.3c4.5,0,8.5,0.6,11.9,1.8c3.4,1.2,6.3,2.8,8.8,4.8c2.4,2,4.5,4.3,6.2,6.8h0.9 c-0.2-1.6-0.4-3.8-0.6-6.6c-0.2-2.8-0.3-5.1-0.3-6.9V61.8h13v121.6h-10.5l-2-12.2h-0.5c-1.6,2.6-3.7,4.9-6.1,7 c-2.5,2.1-5.4,3.7-8.8,5C2231.9,184.4,2227.8,185,2223.2,185z M2225.2,174.2c9.2,0,15.7-2.6,19.5-7.8c3.8-5.2,5.7-13,5.7-23.2 v-2.3c0-10.9-1.8-19.3-5.4-25.1c-3.6-5.8-10.2-8.8-19.7-8.8c-8,0-13.9,3.1-17.9,9.2c-4,6.1-5.9,14.5-5.9,25 c0,10.5,2,18.6,5.9,24.4C2211.2,171.4,2217.2,174.2,2225.2,174.2z"></path> </g> </g> </svg> 