<svg width="351" height="420" xml:space="preserve" xmlns="http://www.w3.org/2000/svg" id="Design" viewBox="0 0 351 420"><defs><style>.cls-1{fill:#303e49;}</style></defs><path class="cls-1" d="M155.93,354.61a1.16,1.16,0,0,0-.94-.8l-4.82-.7a1.57,1.57,0,0,1-1.2-.87l-2.16-4.39a1.17,1.17,0,0,0-2.1,0l-2.16,4.39a1.57,1.57,0,0,1-1.2.87l-4.82.7a1.18,1.18,0,0,0-.65,2l3.49,3.42a1.57,1.57,0,0,1,.46,1.41l-.82,4.82a1.17,1.17,0,0,0,1.7,1.24l4.31-2.28a1.61,1.61,0,0,1,1.48,0l4.32,2.28a1.17,1.17,0,0,0,1.69-1.24l-.82-4.82a1.58,1.58,0,0,1,.46-1.41l3.49-3.42A1.15,1.15,0,0,0,155.93,354.61Z"></path><path class="cls-1" d="M185.67,354.61a1.16,1.16,0,0,0-.94-.8l-4.82-.7a1.57,1.57,0,0,1-1.2-.87l-2.16-4.39a1.17,1.17,0,0,0-2.1,0l-2.16,4.39a1.57,1.57,0,0,1-1.2.87l-4.82.7a1.18,1.18,0,0,0-.65,2l3.49,3.42a1.57,1.57,0,0,1,.46,1.41l-.82,4.82a1.16,1.16,0,0,0,.46,1.15,1.14,1.14,0,0,0,1.23.09l4.32-2.28a1.61,1.61,0,0,1,1.48,0l4.32,2.28a1.14,1.14,0,0,0,1.23-.09,1.16,1.16,0,0,0,.46-1.15l-.82-4.82a1.58,1.58,0,0,1,.46-1.41l3.49-3.42A1.15,1.15,0,0,0,185.67,354.61Z"></path><path class="cls-1" d="M215.41,354.61a1.16,1.16,0,0,0-.94-.8l-4.82-.7a1.61,1.61,0,0,1-1.21-.87l-2.15-4.39a1.17,1.17,0,0,0-2.1,0L202,352.24a1.57,1.57,0,0,1-1.2.87l-4.82.7a1.18,1.18,0,0,0-.65,2l3.49,3.42a1.57,1.57,0,0,1,.46,1.41l-.82,4.82a1.17,1.17,0,0,0,1.69,1.24l4.32-2.28a1.61,1.61,0,0,1,1.48,0l4.32,2.28a1.14,1.14,0,0,0,1.23-.09,1.16,1.16,0,0,0,.46-1.15l-.82-4.82a1.58,1.58,0,0,1,.46-1.41l3.49-3.42A1.15,1.15,0,0,0,215.41,354.61Z"></path><path class="cls-1" d="M45.35,60.33H35.64V36.69h3.57v20.1h6.14Z"></path><path class="cls-1" d="M47.8,60.33V36.67H57.94v3.59H51.36v6.45h4.81V50.3H51.36v6.45h6.58v3.58Z"></path><path class="cls-1" d="M64,50.31v10H60.39V36.69H64v10h4.3v-10h3.56V60.33H68.25v-10Z"></path><path class="cls-1" d="M78.55,60.33H75V36.69h3.56Z"></path><path class="cls-1" d="M87.36,60.64A5.65,5.65,0,0,1,81.7,55V42.09a5.65,5.65,0,0,1,5.66-5.66,5.37,5.37,0,0,1,4,1.66,5.5,5.5,0,0,1,1.64,4v2.7H89.3V42a2,2,0,1,0-4.09,0V55a2,2,0,0,0,3.48,1.44A1.9,1.9,0,0,0,89.3,55V50.31h-2V46.73H93V55a5.65,5.65,0,0,1-5.63,5.65Z"></path><path class="cls-1" d="M99.64,50.31v10H96.08V36.69h3.56v10h4.3v-10h3.56V60.33h-3.56v-10Z"></path><path class="cls-1" d="M124,60.33l-4.22-23.64h3.73l3,18.43,3-18.43h3.74l-4.3,23.64Z"></path><path class="cls-1" d="M137,54.9l-.87,5.43h-3.71l4-23.64h4.9l3.95,23.64h-3.74l-.83-5.43Zm1.87-12.79-1.32,9.32h2.64Z"></path><path class="cls-1" d="M158,60.33h-9.7V36.69h3.56v20.1H158Z"></path><path class="cls-1" d="M170.12,60.33h-9.71V36.69H164v20.1h6.14Z"></path><path class="cls-1" d="M172.57,60.33V36.67h10.14v3.59h-6.58v6.45h4.81V50.3h-4.81v6.45h6.58v3.58Z"></path><path class="cls-1" d="M189.92,50.43l-4.76-13.76h3.92l2.63,8.49,2.62-8.49h3.94l-4.78,13.76v9.9h-3.57Z"></path><path class="cls-1" d="M210.52,60.33V36.67h5.33a6.73,6.73,0,0,1,3.81,1.12,5.14,5.14,0,0,1,2.07,2.92,8.15,8.15,0,0,1,.34,2.51A5.54,5.54,0,0,1,220.81,47a3.75,3.75,0,0,1-1.24.93,4.12,4.12,0,0,1,2,1.79,6.68,6.68,0,0,1,.81,2.34,9.17,9.17,0,0,1,.13,1.64,8,8,0,0,1-.84,3.81,5.48,5.48,0,0,1-4.56,2.79Zm3.85-14h1.48a2.19,2.19,0,0,0,2.23-1.62,4.59,4.59,0,0,0,.2-1.49,3.13,3.13,0,0,0-.71-2.23,2.27,2.27,0,0,0-1.72-.69h-1.48Zm0,10.48h1.48a2.53,2.53,0,0,0,2.51-1.87,4.2,4.2,0,0,0,.24-1.47,4.49,4.49,0,0,0-.75-2.89,2.44,2.44,0,0,0-2-.83h-1.48Z"></path><path class="cls-1" d="M231.21,60.6A5.6,5.6,0,0,1,225.58,55V36.69h3.48V54.94a1.94,1.94,0,0,0,.61,1.44,2.06,2.06,0,0,0,2.89,0,2,2,0,0,0,.59-1.44V36.69h3.71V55a5.42,5.42,0,0,1-1.65,4A5.53,5.53,0,0,1,231.21,60.6Z"></path><path class="cls-1" d="M251.58,54.45a6.62,6.62,0,0,1-1.28,4.22,4.53,4.53,0,0,1-2.45,1.68,6.49,6.49,0,0,1-2,.27,5.58,5.58,0,0,1-3.46-1,5.78,5.78,0,0,1-1.82-2.31,9.16,9.16,0,0,1-.78-3.35l3.39-.25a5.15,5.15,0,0,0,1.09,3,1.8,1.8,0,0,0,1.47.66,2.21,2.21,0,0,0,1.87-1.15,3,3,0,0,0,.35-1.57,4.34,4.34,0,0,0-1.33-2.92l-3.17-3A13.6,13.6,0,0,1,241,45.61a7.23,7.23,0,0,1-.79-3.33,5.78,5.78,0,0,1,2.17-4.89,5.37,5.37,0,0,1,3.32-1,6,6,0,0,1,3.26.85,4.91,4.91,0,0,1,1.7,1.85,6.74,6.74,0,0,1,.78,2.73l-3.41.63a4.07,4.07,0,0,0-.83-2.27,1.72,1.72,0,0,0-1.41-.58,1.63,1.63,0,0,0-1.49.87,3.38,3.38,0,0,0-.41,1.73,5.2,5.2,0,0,0,1.39,3.3A11.78,11.78,0,0,0,246.83,47c.83.7,1.38,1.18,1.64,1.46a12.06,12.06,0,0,1,2,2.6,9.45,9.45,0,0,1,.55,1.11A6.66,6.66,0,0,1,251.58,54.45Z"></path><path class="cls-1" d="M258.1,60.33h-3.56V36.69h3.56Z"></path><path class="cls-1" d="M265.29,36.67,270,52.57V36.67h3.56V60.33h-3.82l-4.9-15.15V60.33h-3.56V36.67Z"></path><path class="cls-1" d="M276.76,60.33V36.67H286.9v3.59h-6.58v6.45h4.81V50.3h-4.81v6.45h6.58v3.58Z"></path><path class="cls-1" d="M301.13,54.45a6.68,6.68,0,0,1-1.29,4.22,4.49,4.49,0,0,1-2.45,1.68,6.47,6.47,0,0,1-2,.27,5.59,5.59,0,0,1-3.47-1,5.87,5.87,0,0,1-1.82-2.31,9.16,9.16,0,0,1-.78-3.35l3.39-.25a5.15,5.15,0,0,0,1.09,3,1.8,1.8,0,0,0,1.47.66,2.21,2.21,0,0,0,1.87-1.15,2.85,2.85,0,0,0,.36-1.57,4.36,4.36,0,0,0-1.34-2.92l-3.17-3a13.51,13.51,0,0,1-2.5-3.07,7.12,7.12,0,0,1-.8-3.33,5.8,5.8,0,0,1,2.17-4.89,5.37,5.37,0,0,1,3.32-1,6,6,0,0,1,3.26.85,4.91,4.91,0,0,1,1.7,1.85,6.75,6.75,0,0,1,.79,2.73l-3.42.63a4.14,4.14,0,0,0-.82-2.27,1.75,1.75,0,0,0-1.42-.58,1.63,1.63,0,0,0-1.49.87,3.38,3.38,0,0,0-.41,1.73,5.2,5.2,0,0,0,1.39,3.3A12,12,0,0,0,296.38,47c.83.7,1.37,1.18,1.64,1.46a12,12,0,0,1,2,2.6,9.45,9.45,0,0,1,.55,1.11A6.7,6.7,0,0,1,301.13,54.45Z"></path><path class="cls-1" d="M315.35,54.45a6.62,6.62,0,0,1-1.28,4.22,4.53,4.53,0,0,1-2.45,1.68,6.49,6.49,0,0,1-2,.27,5.58,5.58,0,0,1-3.46-1,5.78,5.78,0,0,1-1.82-2.31,9.16,9.16,0,0,1-.78-3.35l3.39-.25a5.15,5.15,0,0,0,1.09,3,1.8,1.8,0,0,0,1.47.66,2.21,2.21,0,0,0,1.87-1.15,3,3,0,0,0,.35-1.57,4.34,4.34,0,0,0-1.33-2.92l-3.17-3a13.6,13.6,0,0,1-2.51-3.07,7.23,7.23,0,0,1-.79-3.33,5.8,5.8,0,0,1,2.17-4.89,5.37,5.37,0,0,1,3.32-1,6,6,0,0,1,3.26.85,4.91,4.91,0,0,1,1.7,1.85,6.74,6.74,0,0,1,.78,2.73l-3.41.63a4.07,4.07,0,0,0-.83-2.27,1.72,1.72,0,0,0-1.41-.58,1.63,1.63,0,0,0-1.49.87,3.38,3.38,0,0,0-.41,1.73A5.2,5.2,0,0,0,309,45.5,11.78,11.78,0,0,0,310.6,47c.83.7,1.38,1.18,1.64,1.46a12.06,12.06,0,0,1,2,2.6,9.45,9.45,0,0,1,.55,1.11A6.66,6.66,0,0,1,315.35,54.45Z"></path><path class="cls-1" d="M175.29,420a15.86,15.86,0,0,1-8.92-2.72L53.92,340.73C25.21,321.18,5.57,291,0,257.85a1.84,1.84,0,0,1,0-.33V30.75C0,13.8,18.17,0,40.5,0h270C332.83,0,351,13.8,351,30.75V251.26l-.43,6.39c0,.07,0,.13,0,.2-5.54,33.12-25.19,63.33-53.9,82.88L184.21,417.28A15.91,15.91,0,0,1,175.29,420ZM4,257.35c5.4,32,24.4,61.16,52.17,80.07L168.61,414A12,12,0,0,0,182,414L294.4,337.42c27.79-18.92,46.8-48.12,52.19-80.13l.41-6.23V30.75C347,16,330.63,4,310.5,4H40.5C20.37,4,4,16,4,30.75Z"></path><path class="cls-1" d="M349,90.32H2a2,2,0,0,1,0-4H349a2,2,0,0,1,0,4Z"></path><path class="cls-1" d="M41.83,174.36H35.59V133H53.33v6.27H41.83v11.29h8.4v6.27h-8.4Z"></path><path class="cls-1" d="M60.41,164.85l-1.51,9.51H52.41l7-41.37H68l6.92,41.37H68.38l-1.46-9.51Zm3.28-22.39-2.31,16.31H66Z"></path><path class="cls-1" d="M98.9,164.06a11.6,11.6,0,0,1-2.24,7.39,8.05,8.05,0,0,1-4.28,2.94,11.67,11.67,0,0,1-3.47.46A9.76,9.76,0,0,1,82.85,173a10.08,10.08,0,0,1-3.19-4,16.28,16.28,0,0,1-1.36-5.86l5.93-.43A9.14,9.14,0,0,0,86.14,168a3.24,3.24,0,0,0,2.58,1.16,3.87,3.87,0,0,0,3.26-2,5,5,0,0,0,.63-2.74,7.6,7.6,0,0,0-2.34-5.12L84.73,154a23.72,23.72,0,0,1-4.39-5.38A12.55,12.55,0,0,1,79,142.77q0-5.66,3.8-8.56a9.38,9.38,0,0,1,5.8-1.75A10.58,10.58,0,0,1,94.26,134a8.55,8.55,0,0,1,3,3.23A12.06,12.06,0,0,1,98.61,142l-6,1.09a7.21,7.21,0,0,0-1.45-4,3,3,0,0,0-2.47-1,2.85,2.85,0,0,0-2.61,1.52,5.92,5.92,0,0,0-.72,3,9.12,9.12,0,0,0,2.44,5.78,19.94,19.94,0,0,0,2.76,2.64c1.46,1.21,2.41,2.06,2.87,2.54A21.26,21.26,0,0,1,97,158.15a18,18,0,0,1,1,1.94A11.43,11.43,0,0,1,98.9,164.06Z"></path><path class="cls-1" d="M109.82,139.26h-6.63V133h19.46v6.27h-6.6v35.1h-6.23Z"></path><path class="cls-1" d="M127.66,174.36V133H145.4v6.27H133.89v11.29h8.41v6.27h-8.41v11.29H145.4v6.28Z"></path><path class="cls-1" d="M170.29,164.06a11.6,11.6,0,0,1-2.24,7.39,8.05,8.05,0,0,1-4.28,2.94,11.67,11.67,0,0,1-3.47.46,9.76,9.76,0,0,1-6.06-1.81,10.08,10.08,0,0,1-3.19-4,16.28,16.28,0,0,1-1.36-5.86l5.93-.43a9.07,9.07,0,0,0,1.91,5.25,3.23,3.23,0,0,0,2.57,1.16,3.88,3.88,0,0,0,3.27-2,5,5,0,0,0,.63-2.74,7.57,7.57,0,0,0-2.35-5.12L156.11,154a23.91,23.91,0,0,1-4.38-5.38,12.55,12.55,0,0,1-1.39-5.82q0-5.66,3.8-8.56a9.38,9.38,0,0,1,5.8-1.75,10.52,10.52,0,0,1,5.7,1.49,8.49,8.49,0,0,1,3,3.23A12.06,12.06,0,0,1,170,142l-6,1.09a7.21,7.21,0,0,0-1.45-4,3,3,0,0,0-2.48-1,2.85,2.85,0,0,0-2.6,1.52,5.92,5.92,0,0,0-.73,3,9.17,9.17,0,0,0,2.44,5.78,20.71,20.71,0,0,0,2.77,2.64c1.46,1.21,2.41,2.06,2.87,2.54a20.87,20.87,0,0,1,3.56,4.56,16.47,16.47,0,0,1,1,1.94A11.43,11.43,0,0,1,170.29,164.06Z"></path><path class="cls-1" d="M181.21,139.26h-6.63V133H194v6.27h-6.6v35.1h-6.23Z"></path><path class="cls-1" d="M52,263.41a16.23,16.23,0,0,1-16.24-16.2V210.16A16.22,16.22,0,0,1,52,193.91a15.52,15.52,0,0,1,11.47,4.77,15.75,15.75,0,0,1,4.7,11.48v7.75H57.54v-8a5.91,5.91,0,0,0-5.9-5.9,5.62,5.62,0,0,0-4.14,1.73,5.77,5.77,0,0,0-1.7,4.17v37.17A5.82,5.82,0,0,0,51.64,253a5.74,5.74,0,0,0,4.17-1.71,5.58,5.58,0,0,0,1.73-4.13V233.78H51.86V223.49H68.14v23.72A16.17,16.17,0,0,1,52,263.41Z"></path><path class="cls-1" d="M93.14,194.67q8.55,0,12.55,4.71,3.53,4.13,3.52,11.48v9.86a15.84,15.84,0,0,1-5.47,12.19l7.58,29.63H100.26L94.06,237H87.24v25.57H77V194.67ZM99.25,211q0-5.91-5.84-5.91H87.24v21.72h6.17a5.58,5.58,0,0,0,4.14-1.73,5.74,5.74,0,0,0,1.7-4.17Z"></path><path class="cls-1" d="M134.53,193.8a16.22,16.22,0,0,1,16.23,16.25v37.06a16.21,16.21,0,1,1-32.41,0V210.05a16.22,16.22,0,0,1,16.18-16.25Zm5.57,16a5.87,5.87,0,0,0-11.74,0V247a5.62,5.62,0,0,0,1.73,4.14,5.72,5.72,0,0,0,4.17,1.71A5.82,5.82,0,0,0,140.1,247Z"></path><path class="cls-1" d="M199.81,194.67h10.73l-10.6,67.87H190.2l-5.83-37.34-5.44,37.34h-9.79l-11.35-67.87h10.72L173.86,231l4.93-36.35H189.5L194.85,231Z"></path><path class="cls-1" d="M229.37,262.54H219.15V194.67h10.22Z"></path><path class="cls-1" d="M250,194.61l13.57,45.66V194.61h10.22v67.93h-11L248.74,219v43.5H238.52V194.61Z"></path><path class="cls-1" d="M299,263.41a16.23,16.23,0,0,1-16.23-16.2V210.16A16.22,16.22,0,0,1,299,193.91a15.49,15.49,0,0,1,11.47,4.77,15.72,15.72,0,0,1,4.71,11.48v7.75h-10.6v-8a5.92,5.92,0,0,0-5.9-5.9,5.62,5.62,0,0,0-4.14,1.73,5.74,5.74,0,0,0-1.71,4.17v37.17a5.84,5.84,0,0,0,5.85,5.85,5.7,5.7,0,0,0,4.16-1.71,5.55,5.55,0,0,0,1.74-4.13V233.78h-5.69V223.49h16.29v23.72A16.17,16.17,0,0,1,299,263.41Z"></path><path class="cls-1" d="M78.23,322.86A9.85,9.85,0,0,1,68.34,313V290.41a9.88,9.88,0,1,1,19.75,0v4.72H81.63v-4.85a3.62,3.62,0,0,0-3.6-3.6,3.39,3.39,0,0,0-2.52,1.06,3.5,3.5,0,0,0-1,2.54v22.65a3.58,3.58,0,0,0,6.1,2.52,3.38,3.38,0,0,0,1.06-2.52v-5.71h6.46V313a9.85,9.85,0,0,1-9.86,9.87Z"></path><path class="cls-1" d="M103,280.44a9.88,9.88,0,0,1,9.89,9.91v22.58a9.88,9.88,0,1,1-19.75,0V290.35a9.88,9.88,0,0,1,9.86-9.91Zm3.4,9.77a3.55,3.55,0,0,0-3.56-3.56,3.5,3.5,0,0,0-2.54,1,3.38,3.38,0,0,0-1.06,2.52v22.65a3.41,3.41,0,0,0,1.06,2.53,3.5,3.5,0,0,0,2.54,1,3.43,3.43,0,0,0,2.52-1,3.47,3.47,0,0,0,1-2.53Z"></path><path class="cls-1" d="M124.56,322.34h-6.23v-41.4h8.94l5.81,29.74,5.57-29.74h8.59v41.4H141v-26l-5.41,26h-5l-6-25.95Z"></path><path class="cls-1" d="M162.64,281a9.5,9.5,0,0,1,7.25,2.87,9.94,9.94,0,0,1,2.51,7v6a9.64,9.64,0,0,1-2.85,7,9.31,9.31,0,0,1-6.91,2.9h-3.59v15.59h-6.24V281Zm3.73,10a3.56,3.56,0,0,0-1-2.61,3.44,3.44,0,0,0-2.58-1h-3.76v13.24h3.76a3.38,3.38,0,0,0,2.52-1.06,3.5,3.5,0,0,0,1-2.54Z"></path><path class="cls-1" d="M181.39,312.83l-1.51,9.51h-6.49l7-41.37H189l6.92,41.37h-6.55l-1.46-9.51Zm3.28-22.38-2.31,16.3H187Z"></path><path class="cls-1" d="M208.15,280.94l8.27,27.82V280.94h6.23v41.4H216l-8.58-26.51v26.51h-6.23v-41.4Z"></path><path class="cls-1" d="M234.45,322.34h-6.23V281h6.23Z"></path><path class="cls-1" d="M240,322.34v-41.4h17.74v6.27H246.26V298.5h8.41v6.27h-8.41v11.29h11.51v6.28Z"></path><path class="cls-1" d="M282.66,312a11.72,11.72,0,0,1-2.24,7.39,8.08,8.08,0,0,1-4.29,2.94,11.6,11.6,0,0,1-3.46.46A9.81,9.81,0,0,1,266.6,321a10.14,10.14,0,0,1-3.18-4,16.28,16.28,0,0,1-1.37-5.86l5.94-.43a9,9,0,0,0,1.91,5.24,3.2,3.2,0,0,0,2.57,1.17,3.87,3.87,0,0,0,3.26-2,5,5,0,0,0,.63-2.74,7.6,7.6,0,0,0-2.34-5.12L268.48,302a23.72,23.72,0,0,1-4.39-5.38,12.55,12.55,0,0,1-1.38-5.82q0-5.64,3.79-8.56a9.47,9.47,0,0,1,5.8-1.75,10.56,10.56,0,0,1,5.71,1.49,8.54,8.54,0,0,1,3,3.23,12,12,0,0,1,1.37,4.79l-6,1.09a7.19,7.19,0,0,0-1.45-4,3,3,0,0,0-2.47-1,2.85,2.85,0,0,0-2.6,1.52,5.83,5.83,0,0,0-.73,3,9.12,9.12,0,0,0,2.44,5.78,20.11,20.11,0,0,0,2.77,2.64c1.45,1.21,2.41,2.06,2.87,2.54a21.19,21.19,0,0,1,3.56,4.56,20.32,20.32,0,0,1,1,1.94A11.43,11.43,0,0,1,282.66,312Z"></path><rect class="cls-1" x="303.8" y="131.98" width="11.09" height="42.38"></rect><rect class="cls-1" x="266.13" y="153.66" width="11.09" height="20.7"></rect><rect class="cls-1" x="247.3" y="162.04" width="11.09" height="12.32"></rect><rect class="cls-1" x="228.47" y="167.76" width="11.09" height="6.59"></rect><rect class="cls-1" x="209.64" y="171.27" width="11.09" height="3.08"></rect><rect class="cls-1" x="284.96" y="143.9" width="11.09" height="30.46"></rect><path class="cls-1" d="M314.76,111.86l-14.47,3,4.53,4.54c-24,23.62-49.09,34.58-66.23,39.64a126,126,0,0,1-29,5.21v2.88a127.91,127.91,0,0,0,29.65-5.31c17.49-5.14,43.07-16.31,67.56-40.4l4.91,4.92Z"></path></svg> 