<svg width="316" height="420" xml:space="preserve" xmlns="http://www.w3.org/2000/svg" id="Design" viewBox="0 0 316 420"><defs><style>.cls-1{fill:#ea4c60;}.cls-2{fill:#1e73be;}.cls-3{fill:#f4b335;}</style></defs><path class="cls-1" d="M62.17,202.26v1.15c0,3.31-1,5.42-3.27,6.48,2.72,1.06,3.77,3.5,3.77,6.9v2.62c0,5-2.62,7.63-7.68,7.63H47V194.85h7.63C59.92,194.85,62.17,197.29,62.17,202.26ZM52.1,208h2c1.89,0,3-.83,3-3.4v-1.8c0-2.3-.78-3.31-2.58-3.31H52.1Zm0,14.49H55c1.71,0,2.63-.79,2.63-3.18v-2.8c0-3-1-3.91-3.27-3.91H52.1Z"></path><path class="cls-1" d="M80,208.42V213H73.07v9.43H81.8V227H68V194.85H81.8v4.6H73.07v9Z"></path><path class="cls-1" d="M91.74,227H87.18V194.85h6.35l5.2,19.27V194.85h4.5V227H98l-6.3-23.31Z"></path><path class="cls-1" d="M130.18,209.16v4.59h-6.53V227h-5.06V194.85H132v4.6h-8.32v9.71Z"></path><path class="cls-1" d="M146.83,223.09V218c0-3-1-4.09-3.31-4.09h-1.75V227h-5.06V194.85h7.63c5.25,0,7.5,2.44,7.5,7.41v2.53c0,3.31-1.06,5.47-3.31,6.53,2.53,1.05,3.36,3.49,3.36,6.85v5a9.36,9.36,0,0,0,.55,3.9h-5.15A9.76,9.76,0,0,1,146.83,223.09Zm-5.06-13.75h2c1.88,0,3-.83,3-3.4v-3.18c0-2.3-.78-3.31-2.57-3.31h-2.44Z"></path><path class="cls-1" d="M168.76,227l-.87-5.84h-6.21l-.87,5.84h-4.65l5.15-32.19h7.41L173.87,227Zm-1.56-10.21-2.44-16.28-2.44,16.28Z"></path><path class="cls-1" d="M183,227h-4.55V194.85h6.34l5.2,19.27V194.85h4.51V227h-5.2L183,203.73Z"></path><path class="cls-1" d="M205.5,217.16V227h-5.05V194.85h5.05v14l6.63-14h5.06l-7,14.35,7,17.84H212l-4.92-12.83Z"></path><path class="cls-1" d="M226.84,194.85v27.6h8.33V227H221.78V194.85Z"></path><path class="cls-1" d="M244.73,194.85V227h-5.06V194.85Z"></path><path class="cls-1" d="M255.21,227h-4.55V194.85H257l5.2,19.27V194.85h4.5V227h-5.19l-6.31-23.31Z"></path><path class="cls-1" d="M83.49,330.52c4.09,0,6.33,2.42,6.33,6.67V351c0,4.25-2.24,6.68-6.33,6.68s-6.34-2.43-6.34-6.68V337.19C77.15,332.94,79.39,330.52,83.49,330.52Zm0,23.36c1.32,0,2.16-.72,2.16-2.62V336.93c0-1.9-.84-2.62-2.16-2.62s-2.17.72-2.17,2.62v14.33C81.32,353.16,82.16,353.88,83.49,353.88Z"></path><path class="cls-1" d="M104,342.62v3.79H98.59v11H94.41V330.82h11v3.79H98.59v8Z"></path><path class="cls-1" d="M128.82,330.82v3.79h-4.36v22.76h-4.17V334.61h-4.36v-3.79Z"></path><path class="cls-1" d="M132.54,357.37V330.82h4.17V342.2h4.75V330.82h4.25v26.55h-4.25V346h-4.75v11.38Z"></path><path class="cls-1" d="M160.54,342v3.79h-5.73v7.78H162v3.79H150.64V330.82H162v3.79h-7.21V342Z"></path><path class="cls-1" d="M172.91,330.82h4.36l3.19,12.1,3.18-12.1h4l-5.28,17.75v8.8h-4.17v-8.8Z"></path><path class="cls-1" d="M201.1,342v3.79h-5.73v7.78h7.21v3.79H191.2V330.82h11.38v3.79h-7.21V342Z"></path><path class="cls-1" d="M216.35,357.37l-.72-4.82h-5.12l-.72,4.82H206l4.25-26.55h6.11l4.25,26.55ZM215.06,349l-2-13.43L211,349Z"></path><path class="cls-1" d="M232.74,354.11v-4.17c0-2.47-.84-3.38-2.73-3.38h-1.44v10.81h-4.18V330.82h6.3c4.32,0,6.18,2,6.18,6.11V339c0,2.73-.87,4.52-2.73,5.39,2.09.87,2.77,2.88,2.77,5.65v4.1a7.73,7.73,0,0,0,.46,3.22h-4.25A8.1,8.1,0,0,1,232.74,354.11Zm-4.17-11.34h1.63c1.55,0,2.5-.69,2.5-2.81v-2.62c0-1.89-.65-2.73-2.12-2.73h-2Z"></path><path class="cls-2" d="M292.06,233.33a2,2,0,0,1-2-2V157.28L248.7,138a2,2,0,1,1,1.69-3.62l42.52,19.83a2,2,0,0,1,1.15,1.81v75.33A2,2,0,0,1,292.06,233.33Z"></path><path class="cls-2" d="M158,419.77a2,2,0,0,1-.85-.19L23.09,357.05a2,2,0,0,1-1.15-1.81V330.41a2,2,0,0,1,4,0V354L158,415.56,290.06,354V330.41a2,2,0,0,1,4,0v24.83a2,2,0,0,1-1.15,1.81L158.85,419.58A2,2,0,0,1,158,419.77Z"></path><path class="cls-2" d="M23.94,233.33a2,2,0,0,1-2-2V156a2,2,0,0,1,1.15-1.81l42.52-19.83A2,2,0,1,1,67.3,138l-41.36,19.3v74.05A2,2,0,0,1,23.94,233.33Z"></path><path class="cls-3" d="M33.91,275.86v22.78c0,11.5-5.74,18.07-16.83,18.07S.25,310.14.25,298.64V261.28c0-11.5,5.74-18.07,16.83-18.07s16.83,6.57,16.83,18.07v7H23.24v-7.7c0-5.13-2.26-7.08-5.85-7.08s-5.85,2-5.85,7.08v38.8c0,5.13,2.25,7,5.85,7s5.85-1.85,5.85-7V286.12H18.11V275.86Z"></path><path class="cls-3" d="M63.78,307.06V295.77c0-6.67-2.26-9.14-7.39-9.14h-3.9v29.26H41.2V244h17C69.94,244,75,249.48,75,260.56v5.65c0,7.39-2.36,12.21-7.39,14.57,5.64,2.36,7.49,7.8,7.49,15.3v11.08c0,3.49.1,6.06,1.23,8.73H64.81C64.19,314,63.78,312.91,63.78,307.06ZM52.49,276.37H56.9c4.21,0,6.78-1.85,6.78-7.6v-7.08c0-5.13-1.75-7.39-5.75-7.39H52.49Z"></path><path class="cls-3" d="M107.61,315.89l-2-13H91.8l-2,13H79.48L91,244H107.5L119,315.89Zm-3.49-22.79-5.44-36.34L93.24,293.1Z"></path><path class="cls-3" d="M142.09,244c11.29,0,16.84,6.26,16.84,17.75v36.34c0,11.5-5.55,17.76-16.84,17.76H124.23V244Zm-6.57,61.58h6.37c3.59,0,5.75-1.84,5.75-7V261.28c0-5.13-2.16-7-5.75-7h-6.37Z"></path><path class="cls-3" d="M176.89,299.46c0,5.14,2.26,7,5.85,7s5.85-1.84,5.85-7V244h10.67v54.71c0,11.49-5.74,18.06-16.83,18.06s-16.83-6.57-16.83-18.06V244h11.29Z"></path><path class="cls-3" d="M232.11,315.89l-2-13H216.3l-2,13H204L215.48,244H232l11.5,71.85Zm-3.49-22.79-5.44-36.34-5.44,36.34Z"></path><path class="cls-3" d="M280.35,244V254.3H268.54v61.59H257.25V254.3h-11.8V244Z"></path><path class="cls-3" d="M312.06,274.32v10.26h-15.5v21h19.51v10.27h-30.8V244h30.8V254.3H296.56v20Z"></path><path class="cls-2" d="M85.81,140.42a2.12,2.12,0,0,1,0-4.24h23.61a2.12,2.12,0,0,1,0,4.24Z"></path><path class="cls-2" d="M230.35,140.66H202.88a2.13,2.13,0,0,1,0-4.25h26.5c8.46-10.15,8.35-26.54,2.46-34.25-1-1.35-2-2.56-2.87-3.66-5-6.29-8-10.08-5.41-17.93,4.82-14.46-3.49-24.71-8-27.17-5.48-3-9.62-11.79-8.5-18.14,0-.22,3.48-21.66-7-24.65a2.12,2.12,0,0,1,1.16-4.08c11.41,3.26,11.53,20.7,10,29.46-.89,5,2.75,11.73,6.34,13.68,7.31,4,15.25,16.58,10,32.24-1.88,5.67-.22,7.75,4.71,13.94.89,1.13,1.87,2.36,2.92,3.73,7.17,9.37,7.28,28.63-3.29,40.37A2.1,2.1,0,0,1,230.35,140.66Z"></path><path class="cls-2" d="M163.19,141.58a2.12,2.12,0,0,1-.29-4.22c15.79-2.23,27.7-15.73,27.7-31.39V93.43a2.12,2.12,0,0,1,1.91-2.11l3.28-.32c2.11-2.26,2.91-6.5,3.06-8.13v-23h-6.19a2.12,2.12,0,0,1-2.12-2.13V36c0-17.49-14.6-31.72-32.54-31.72S125.47,18.47,125.47,36a2.13,2.13,0,0,1-4.25,0c0-19.83,16.5-36,36.78-36s36.78,16.13,36.78,36V55.58H201a2.12,2.12,0,0,1,2.12,2.12V83.12c0,.32-.65,7.82-5,11.53a2.12,2.12,0,0,1-1.18.5l-2.09.2V106c0,17.77-13.48,33.06-31.35,35.59Z"></path><path class="cls-2" d="M148.63,65.84a2.13,2.13,0,0,1-1.95-1.29c-5.57-13.11-22-7.38-22.65-7.13a2.12,2.12,0,0,1-2.84-2l0-19.47a2.12,2.12,0,0,1,2.12-2.12h0A2.14,2.14,0,0,1,125.47,36l0,16.62c7.77-1.88,20.1-1.55,25.14,10.31a2.12,2.12,0,0,1-1.12,2.78A2.2,2.2,0,0,1,148.63,65.84Z"></path><path class="cls-2" d="M163.41,107h-9.55a2.12,2.12,0,0,1-2.12-2.12V79.45a2.12,2.12,0,1,1,4.24,0v23.34h7.43a2.13,2.13,0,0,1,0,4.25Z"></path><path class="cls-2" d="M186.1,59.52a2.18,2.18,0,0,1-1.19-.36,13.39,13.39,0,0,0-13.6,0A2.12,2.12,0,0,1,169,55.6a17.63,17.63,0,0,1,18.33,0,2.12,2.12,0,0,1-1.19,3.88Z"></path><path class="cls-2" d="M133.65,82.52c-6.73,0-12.29-4.13-13-9.59a1.9,1.9,0,0,1,.46-1.5,1.93,1.93,0,0,1,1.43-.64H144.7a1.9,1.9,0,0,1,1.89,2.14C145.93,78.39,140.37,82.52,133.65,82.52Zm-8.41-7.91c1.44,2.41,4.71,4.09,8.41,4.09s7-1.68,8.4-4.09Z"></path><path class="cls-2" d="M178.89,82.52c-6.72,0-12.29-4.13-12.95-9.59a1.94,1.94,0,0,1,.47-1.5,1.9,1.9,0,0,1,1.43-.64h22.1a1.9,1.9,0,0,1,1.43.64,1.94,1.94,0,0,1,.47,1.5C191.18,78.39,185.61,82.52,178.89,82.52Zm-8.41-7.91c1.45,2.41,4.72,4.09,8.41,4.09s7-1.68,8.41-4.09Z"></path><path class="cls-2" d="M167,74.77a2.15,2.15,0,0,1-1-.27A21.39,21.39,0,0,0,156.56,72a23.13,23.13,0,0,0-9.68,2.39,2.12,2.12,0,0,1-2.06-3.71,27.21,27.21,0,0,1,11.74-2.93,25.76,25.76,0,0,1,11.49,3,2.12,2.12,0,0,1-1,4Z"></path><path class="cls-2" d="M85.41,140.28a2.1,2.1,0,0,1-1.61-.73c-9.41-10.88-10.81-29.42-3-39.79l.12-.18c1.05-1.37,2-2.6,2.93-3.73,4.93-6.19,6.59-8.27,4.7-13.93-5.22-15.67,2.72-28.29,10-32.25,3.59-2,7.23-8.64,6.35-13.68a2.12,2.12,0,1,1,4.18-.73c1.11,6.35-3,15.17-8.51,18.14-4.53,2.46-12.84,12.71-8,27.17,2.61,7.85-.41,11.64-5.41,17.93-.85,1.06-1.77,2.22-2.76,3.51l-.12.17c-6,7.87-6.11,24.33,2.76,34.59a2.12,2.12,0,0,1-1.6,3.51Zm-2.84-39.39h0Z"></path><path class="cls-2" d="M110.68,13.74a2.13,2.13,0,0,1-1.6-3.53,12.07,12.07,0,0,1,5.79-3.68A2.12,2.12,0,1,1,116,10.61a7.75,7.75,0,0,0-3.77,2.4A2.11,2.11,0,0,1,110.68,13.74Z"></path><path class="cls-2" d="M107,37.75A2.12,2.12,0,0,1,104.88,36c-.13-.72-3-17.6,4.2-25.78a2.12,2.12,0,0,1,3.19,2.8c-4.86,5.54-4,17.94-3.21,22.25a2.12,2.12,0,0,1-1.73,2.45A1.47,1.47,0,0,1,107,37.75Z"></path><path class="cls-2" d="M154.12,178.82c-22,0-43.86-18.8-46.8-40.24a2.12,2.12,0,1,1,4.2-.58c2.63,19.14,22.93,36.58,42.6,36.58a38.52,38.52,0,0,0,4-.21,2.13,2.13,0,0,1,.43,4.23A44.05,44.05,0,0,1,154.12,178.82Z"></path><path class="cls-2" d="M163.87,162.75a43.14,43.14,0,0,1-42.75-37.15L99,125.67A2.09,2.09,0,0,1,96.74,124c-1.76-9.08-.12-18.33,4.27-24.2l.12-.18c1.06-1.37,2-2.6,2.93-3.72,4.93-6.2,6.59-8.28,4.7-14-.28-.83-.57-1.64-.85-2.43-2.19-6.1-4.26-11.86,2.24-20.07A2.12,2.12,0,0,1,113.48,62c-5,6.36-3.66,10.2-1.58,16,.3.82.6,1.66.89,2.53,2.61,7.85-.41,11.64-5.41,17.93-.85,1.06-1.77,2.22-2.76,3.51a.88.88,0,0,1-.12.17c-3.48,4.56-4.93,11.78-3.9,19.18H123a2.12,2.12,0,0,1,2.11,1.91,38.94,38.94,0,0,0,38.77,35.24c15,0,30.62-8.82,37.14-21a2.12,2.12,0,1,1,3.74,2C197.42,153.2,180.61,162.75,163.87,162.75Z"></path><path class="cls-3" d="M145,376.57a.75.75,0,0,0-.63-.53l-3.21-.47a1,1,0,0,1-.8-.59l-1.44-2.91a.76.76,0,0,0-.7-.44.77.77,0,0,0-.7.44L136,375a1,1,0,0,1-.8.59L132,376a.78.78,0,0,0-.43,1.33l2.32,2.27a1.07,1.07,0,0,1,.31.94l-.55,3.21a.77.77,0,0,0,.31.77.76.76,0,0,0,.82.06l2.88-1.52a1,1,0,0,1,.49-.12,1.11,1.11,0,0,1,.5.12l2.87,1.52a.76.76,0,0,0,.82-.06.77.77,0,0,0,.31-.77l-.55-3.21a1.07,1.07,0,0,1,.31-.94l2.33-2.27A.76.76,0,0,0,145,376.57Z"></path><path class="cls-3" d="M164.78,376.57a.75.75,0,0,0-.63-.53l-3.21-.47a1,1,0,0,1-.8-.59l-1.44-2.91a.78.78,0,0,0-1.4,0L155.86,375a1,1,0,0,1-.8.59l-3.21.47a.75.75,0,0,0-.63.53.76.76,0,0,0,.19.8l2.33,2.27a1.07,1.07,0,0,1,.31.94l-.55,3.21a.77.77,0,0,0,.31.77.76.76,0,0,0,.82.06l2.88-1.52a1.06,1.06,0,0,1,1,0l2.88,1.52a.76.76,0,0,0,.82-.06.77.77,0,0,0,.31-.77l-.55-3.21a1.07,1.07,0,0,1,.31-.94l2.32-2.27A.75.75,0,0,0,164.78,376.57Z"></path><path class="cls-3" d="M184.61,376.57A.75.75,0,0,0,184,376l-3.21-.47a1,1,0,0,1-.8-.59l-1.44-2.91a.77.77,0,0,0-.7-.44.76.76,0,0,0-.7.44L175.69,375a1,1,0,0,1-.8.59l-3.21.47a.75.75,0,0,0-.63.53.76.76,0,0,0,.19.8l2.33,2.27a1.07,1.07,0,0,1,.31.94l-.55,3.21a.77.77,0,0,0,.31.77.76.76,0,0,0,.82.06l2.87-1.52a1.11,1.11,0,0,1,.5-.12,1,1,0,0,1,.49.12l2.88,1.52a.76.76,0,0,0,.82-.06.77.77,0,0,0,.31-.77l-.55-3.21a1.07,1.07,0,0,1,.31-.94l2.32-2.27A.75.75,0,0,0,184.61,376.57Z"></path></svg> 