<?xml version="1.0" encoding="UTF-8"?> <svg xmlns="http://www.w3.org/2000/svg" id="Design" viewBox="0 0 455 145"><defs><style>.cls-1{fill:#303e49;}.cls-2{fill:#ebebeb;}</style></defs><path class="cls-1" d="M9.24,142H4.75v-1l1.62-1.63q.7-.74.93-1a2.36,2.36,0,0,0,.32-.52,1.43,1.43,0,0,0,.09-.5.75.75,0,0,0-.21-.58.8.8,0,0,0-.57-.19,1.65,1.65,0,0,0-.72.17,4.1,4.1,0,0,0-.74.49l-.73-.87a4.36,4.36,0,0,1,.78-.57,2.66,2.66,0,0,1,.68-.26,3.52,3.52,0,0,1,.83-.09,2.36,2.36,0,0,1,1.06.22,1.6,1.6,0,0,1,1,1.52,2.31,2.31,0,0,1-.15.83,3.32,3.32,0,0,1-.49.8A10.82,10.82,0,0,1,7.27,140l-.82.78v.06H9.24Z"></path><path class="cls-1" d="M14.34,138.74a4.42,4.42,0,0,1-.55,2.49,1.91,1.91,0,0,1-1.7.81,1.89,1.89,0,0,1-1.67-.83,4.4,4.4,0,0,1-.57-2.47,4.54,4.54,0,0,1,.55-2.5,1.91,1.91,0,0,1,1.69-.81,1.9,1.9,0,0,1,1.68.84A4.44,4.44,0,0,1,14.34,138.74Zm-3.14,0a5.22,5.22,0,0,0,.2,1.7.72.72,0,0,0,1.38,0,4.91,4.91,0,0,0,.21-1.69,5,5,0,0,0-.21-1.7.72.72,0,0,0-.69-.51.7.7,0,0,0-.68.51A5,5,0,0,0,11.2,138.74Z"></path><path class="cls-1" d="M19.47,138.74a4.42,4.42,0,0,1-.55,2.49,1.89,1.89,0,0,1-1.69.81,1.91,1.91,0,0,1-1.68-.83,4.41,4.41,0,0,1-.56-2.47,4.45,4.45,0,0,1,.55-2.5,1.88,1.88,0,0,1,1.69-.81,1.9,1.9,0,0,1,1.68.84A4.45,4.45,0,0,1,19.47,138.74Zm-3.14,0a4.9,4.9,0,0,0,.21,1.7.71.71,0,0,0,1.37,0,4.91,4.91,0,0,0,.21-1.69,5,5,0,0,0-.21-1.7.72.72,0,0,0-1.37,0A5,5,0,0,0,16.33,138.74Z"></path><path class="cls-1" d="M24.79,140.62H24V142H22.69v-1.34H20v-.94l2.81-4.15H24v4h.77Zm-2.1-1.05v-1.09c0-.18,0-.45,0-.79s0-.55,0-.6h0a5.38,5.38,0,0,1-.39.7l-1.18,1.78Z"></path><path class="cls-1" d="M422.55,142h-1.36v-5.3h-1.75v-1.13h4.85v1.13h-1.74Z"></path><path class="cls-1" d="M431.11,138.73a3.48,3.48,0,0,1-.8,2.46,2.91,2.91,0,0,1-2.26.85,3,3,0,0,1-2.27-.85,3.56,3.56,0,0,1-.79-2.47,3.43,3.43,0,0,1,.8-2.44,3.44,3.44,0,0,1,4.53,0A3.52,3.52,0,0,1,431.11,138.73Zm-4.69,0a2.74,2.74,0,0,0,.41,1.63,1.43,1.43,0,0,0,1.22.54c1.08,0,1.63-.72,1.63-2.17s-.54-2.17-1.62-2.17a1.47,1.47,0,0,0-1.23.55A2.7,2.7,0,0,0,426.42,138.73Z"></path><path class="cls-1" d="M437.76,138.68a3.16,3.16,0,0,1-.9,2.43,3.68,3.68,0,0,1-2.6.85h-1.82v-6.43h2a3.4,3.4,0,0,1,2.44.83A3.05,3.05,0,0,1,437.76,138.68Zm-1.41,0q0-2.07-1.83-2.07h-.72v4.18h.58C435.7,140.83,436.35,140.13,436.35,138.72Z"></path><path class="cls-1" d="M443,142l-.47-1.53h-2.34l-.47,1.53h-1.46l2.26-6.46h1.67l2.27,6.46Zm-.8-2.68c-.43-1.38-.67-2.17-.72-2.35a3.32,3.32,0,0,1-.12-.43c-.1.38-.37,1.3-.83,2.78Z"></path><path class="cls-1" d="M447.3,138.18l1.34-2.65h1.46L448,139.46V142h-1.35V139.5l-2.13-4H446Z"></path><path class="cls-2" d="M450.11,127.9H4.39a.38.38,0,0,1-.37-.38.37.37,0,0,1,.37-.37H450.11a.37.37,0,0,1,.37.37A.38.38,0,0,1,450.11,127.9Z"></path><path class="cls-2" d="M450.11,96.06H4.39a.38.38,0,0,1,0-.75H450.11a.38.38,0,0,1,0,.75Z"></path><path class="cls-2" d="M450.11,64.23H4.39A.38.38,0,0,1,4,63.85a.37.37,0,0,1,.37-.37H450.11a.37.37,0,0,1,.37.37A.38.38,0,0,1,450.11,64.23Z"></path><path class="cls-2" d="M450.11,32.39H4.39a.38.38,0,0,1,0-.75H450.11a.38.38,0,0,1,0,.75Z"></path><path class="cls-1" d="M233.05,50.48l-.51-1.7h-2.6l-.52,1.7h-1.63l2.52-7.17h1.85l2.52,7.17Zm-.88-3-.8-2.61a4.58,4.58,0,0,1-.13-.48c-.11.42-.42,1.45-.92,3.09Z"></path><path class="cls-1" d="M237.68,50.58c-1.7,0-2.55-.93-2.55-2.8a3,3,0,0,1,.69-2.13,2.62,2.62,0,0,1,2-.73,3.76,3.76,0,0,1,1.7.37l-.44,1.15c-.24-.09-.45-.17-.65-.23a2.2,2.2,0,0,0-.61-.09c-.77,0-1.16.55-1.16,1.65s.39,1.6,1.16,1.6a2.92,2.92,0,0,0,.8-.11,3.29,3.29,0,0,0,.73-.36v1.27a2.33,2.33,0,0,1-.73.32A4.06,4.06,0,0,1,237.68,50.58Z"></path><path class="cls-1" d="M242.9,49.39a3.41,3.41,0,0,0,.94-.17v1.11a3.29,3.29,0,0,1-1.37.25,1.68,1.68,0,0,1-1.3-.45,2,2,0,0,1-.41-1.36V46.14h-.71v-.63l.82-.5.43-1.15h.95V45h1.53v1.12h-1.53v2.63a.58.58,0,0,0,.18.47A.72.72,0,0,0,242.9,49.39Z"></path><path class="cls-1" d="M244.88,43.61c0-.48.27-.73.81-.73s.81.25.81.73a.7.7,0,0,1-.21.54.82.82,0,0,1-.6.19C245.15,44.34,244.88,44.1,244.88,43.61Zm1.55,6.87h-1.49V45h1.49Z"></path><path class="cls-1" d="M249.29,50.48,247.21,45h1.56l1,3.11a5.52,5.52,0,0,1,.22,1.12h0a4.57,4.57,0,0,1,.22-1.12L251.34,45h1.55l-2.07,5.46Z"></path><path class="cls-1" d="M256.14,50.58a2.8,2.8,0,0,1-2.06-.73,2.76,2.76,0,0,1-.74-2.06,3,3,0,0,1,.69-2.12,2.44,2.44,0,0,1,1.89-.75,2.4,2.4,0,0,1,1.8.66,2.5,2.5,0,0,1,.65,1.82v.72h-3.52a1.42,1.42,0,0,0,.38,1,1.3,1.3,0,0,0,1,.36,4,4,0,0,0,.93-.1,4.65,4.65,0,0,0,.92-.33v1.15a3.41,3.41,0,0,1-.83.29A4.88,4.88,0,0,1,256.14,50.58Zm-.21-4.6a1,1,0,0,0-.74.3,1.4,1.4,0,0,0-.31.85H257a1.18,1.18,0,0,0-.29-.85A1,1,0,0,0,255.93,46Z"></path><path class="cls-1" d="M264.06,50.48l-.51-1.7H261l-.52,1.7H258.8l2.52-7.17h1.85l2.52,7.17Zm-.88-3-.8-2.61a4.58,4.58,0,0,1-.13-.48c-.11.42-.42,1.45-.92,3.09Z"></path><path class="cls-1" d="M271.22,45v.76l-.85.22a1.53,1.53,0,0,1,.23.82,1.66,1.66,0,0,1-.61,1.37,2.65,2.65,0,0,1-1.7.49l-.27,0-.22,0a.51.51,0,0,0-.23.39c0,.22.27.32.82.32h.93a2.11,2.11,0,0,1,1.37.39,1.39,1.39,0,0,1,.47,1.13,1.7,1.7,0,0,1-.8,1.49,4.17,4.17,0,0,1-2.29.52,3.17,3.17,0,0,1-1.75-.4,1.25,1.25,0,0,1-.6-1.11,1.17,1.17,0,0,1,.31-.83,1.79,1.79,0,0,1,.9-.47,1.09,1.09,0,0,1-.4-.32.78.78,0,0,1-.17-.47.77.77,0,0,1,.18-.52,2.35,2.35,0,0,1,.52-.41,1.49,1.49,0,0,1-.68-.59,1.82,1.82,0,0,1-.25-1,1.71,1.71,0,0,1,.58-1.38,2.49,2.49,0,0,1,1.66-.49,3.94,3.94,0,0,1,.55,0l.4.06ZM267,51.25a.56.56,0,0,0,.29.49,1.74,1.74,0,0,0,.83.17,2.91,2.91,0,0,0,1.26-.22.68.68,0,0,0,.45-.6.42.42,0,0,0-.27-.42,2.14,2.14,0,0,0-.83-.12H268a1.14,1.14,0,0,0-.68.19A.59.59,0,0,0,267,51.25Zm.54-4.44a1.14,1.14,0,0,0,.2.7.75.75,0,0,0,.62.26.74.74,0,0,0,.62-.26,1.14,1.14,0,0,0,.19-.7q0-1-.81-1C267.83,45.82,267.55,46.15,267.55,46.81Z"></path><path class="cls-1" d="M274.59,50.58a2.79,2.79,0,0,1-2.06-.73,2.72,2.72,0,0,1-.74-2.06,3.07,3.07,0,0,1,.68-2.12,2.45,2.45,0,0,1,1.9-.75,2.4,2.4,0,0,1,1.8.66,2.5,2.5,0,0,1,.64,1.82v.72h-3.52a1.46,1.46,0,0,0,.38,1,1.31,1.31,0,0,0,1,.36,4.08,4.08,0,0,0,.93-.1,4.57,4.57,0,0,0,.91-.33v1.15a3.13,3.13,0,0,1-.83.29A4.78,4.78,0,0,1,274.59,50.58Zm-.21-4.6a.94.94,0,0,0-.74.3,1.34,1.34,0,0,0-.31.85h2.09a1.28,1.28,0,0,0-.29-.85A1,1,0,0,0,274.38,46Z"></path><path class="cls-1" d="M283.06,50.48h-1.49V47.29a1.5,1.5,0,0,0-.21-.88.76.76,0,0,0-.67-.3,1,1,0,0,0-.9.42,2.54,2.54,0,0,0-.28,1.38v2.57H278V45h1.14l.2.7h.08a1.68,1.68,0,0,1,.69-.6,2.4,2.4,0,0,1,1-.2,1.93,1.93,0,0,1,1.45.51,2.12,2.12,0,0,1,.49,1.49Z"></path><path class="cls-1" d="M286.81,50.58c-1.7,0-2.55-.93-2.55-2.8a3,3,0,0,1,.69-2.13,2.61,2.61,0,0,1,2-.73,3.76,3.76,0,0,1,1.7.37l-.44,1.15c-.24-.09-.45-.17-.66-.23a2.08,2.08,0,0,0-.6-.09c-.78,0-1.16.55-1.16,1.65s.38,1.6,1.16,1.6a2.85,2.85,0,0,0,.79-.11,3.15,3.15,0,0,0,.74-.36v1.27a2.43,2.43,0,0,1-.73.32A4.06,4.06,0,0,1,286.81,50.58Z"></path><path class="cls-1" d="M289,45h1.63l1,3.07a4.12,4.12,0,0,1,.18.95h0a3.75,3.75,0,0,1,.21-.95L293,45h1.59l-2.3,6.16a2.78,2.78,0,0,1-.91,1.28,2.29,2.29,0,0,1-1.37.42,3.22,3.22,0,0,1-.76-.08V51.62a2.68,2.68,0,0,0,.59.06,1.07,1.07,0,0,0,.69-.24,1.59,1.59,0,0,0,.46-.73l.09-.27Z"></path><path class="cls-1" d="M298.13,50.48V43.34h1.51v5.89h2.89v1.25Z"></path><path class="cls-1" d="M307.12,50.48l-.29-.74h0a2.24,2.24,0,0,1-.77.65,2.39,2.39,0,0,1-1,.19,1.66,1.66,0,0,1-1.23-.45,1.7,1.7,0,0,1-.46-1.28,1.44,1.44,0,0,1,.61-1.28,3.5,3.5,0,0,1,1.83-.46l.95,0v-.24a.74.74,0,0,0-.85-.83,3.82,3.82,0,0,0-1.54.4l-.49-1a4.44,4.44,0,0,1,2.09-.49,2.59,2.59,0,0,1,1.68.48,1.76,1.76,0,0,1,.59,1.45v3.64ZM306.68,48l-.58,0a1.73,1.73,0,0,0-1,.24.73.73,0,0,0-.32.65q0,.63.72.63a1.14,1.14,0,0,0,.83-.3,1,1,0,0,0,.31-.79Z"></path><path class="cls-1" d="M313.56,50.48l-.2-.7h-.08a1.57,1.57,0,0,1-.68.59,2.29,2.29,0,0,1-1,.21,1.88,1.88,0,0,1-1.45-.52,2,2,0,0,1-.49-1.48V45h1.49v3.19a1.56,1.56,0,0,0,.21.89.78.78,0,0,0,.67.29,1,1,0,0,0,.9-.42,2.52,2.52,0,0,0,.28-1.38V45h1.49v5.46Z"></path><path class="cls-1" d="M321.29,50.48h-1.48V47.29a1.5,1.5,0,0,0-.21-.88.77.77,0,0,0-.67-.3,1,1,0,0,0-.9.42,2.54,2.54,0,0,0-.28,1.38v2.57h-1.49V45h1.14l.2.7h.08a1.56,1.56,0,0,1,.69-.6,2.4,2.4,0,0,1,1-.2,1.92,1.92,0,0,1,1.44.51,2.08,2.08,0,0,1,.49,1.49Z"></path><path class="cls-1" d="M325,50.58c-1.7,0-2.54-.93-2.54-2.8a3,3,0,0,1,.69-2.13,2.58,2.58,0,0,1,2-.73,3.76,3.76,0,0,1,1.7.37l-.44,1.15c-.23-.09-.45-.17-.65-.23a2.1,2.1,0,0,0-.61-.09c-.77,0-1.16.55-1.16,1.65s.39,1.6,1.16,1.6a2.92,2.92,0,0,0,.8-.11,3.09,3.09,0,0,0,.73-.36v1.27a2.23,2.23,0,0,1-.73.32A3.94,3.94,0,0,1,325,50.58Z"></path><path class="cls-1" d="M333,50.48h-1.49V47.29c0-.79-.29-1.18-.88-1.18a1,1,0,0,0-.9.43,2.62,2.62,0,0,0-.28,1.37v2.57H328v-7.6h1.49v1.55c0,.12,0,.4,0,.85l0,.44h.08a1.73,1.73,0,0,1,1.58-.8,1.9,1.9,0,0,1,1.46.52,2.05,2.05,0,0,1,.5,1.48Z"></path><path class="cls-1" d="M339.77,98a.46.46,0,0,1-.28-.08l-63.6-43.3a.52.52,0,0,1-.13-.7.51.51,0,0,1,.7-.13l63.59,43.3a.49.49,0,0,1,.13.69A.48.48,0,0,1,339.77,98Z"></path><polygon class="cls-1" points="334.73 99 334.58 98.01 339.45 97.27 338.35 92.46 339.33 92.24 340.66 98.09 334.73 99"></polygon><path class="cls-1" d="M336.8,116.79a2,2,0,0,1,1.4.45,1.51,1.51,0,0,1,.51,1.21,1.74,1.74,0,0,1-.55,1.37,2.25,2.25,0,0,1-1.54.5,2.83,2.83,0,0,1-1.45-.3v-.62a2.46,2.46,0,0,0,.67.27,3.06,3.06,0,0,0,.79.1,1.59,1.59,0,0,0,1.05-.32,1.16,1.16,0,0,0,.38-.93c0-.79-.48-1.18-1.45-1.18a6.3,6.3,0,0,0-1,.11l-.33-.21.21-2.64h2.81v.59h-2.26l-.14,1.69A5.25,5.25,0,0,1,336.8,116.79Z"></path><path class="cls-1" d="M341.32,116.79a2,2,0,0,1,1.4.45,1.51,1.51,0,0,1,.51,1.21,1.74,1.74,0,0,1-.55,1.37,2.26,2.26,0,0,1-1.54.5,2.89,2.89,0,0,1-1.46-.3v-.62a2.54,2.54,0,0,0,.68.27,3.06,3.06,0,0,0,.79.1,1.59,1.59,0,0,0,1.05-.32,1.16,1.16,0,0,0,.38-.93c0-.79-.48-1.18-1.45-1.18a6.3,6.3,0,0,0-1,.11l-.33-.21.21-2.64h2.81v.59h-2.26l-.14,1.69A5.25,5.25,0,0,1,341.32,116.79Z"></path><path class="cls-1" d="M347.81,117.41a4.11,4.11,0,0,1-.46,2.19,1.56,1.56,0,0,1-1.41.72,1.53,1.53,0,0,1-1.38-.74,4,4,0,0,1-.48-2.17,4.2,4.2,0,0,1,.46-2.19,1.71,1.71,0,0,1,2.8,0A4.12,4.12,0,0,1,347.81,117.41Zm-3.08,0a4.23,4.23,0,0,0,.29,1.8,1,1,0,0,0,1.85,0,4.21,4.21,0,0,0,.29-1.79,4.16,4.16,0,0,0-.29-1.78,1,1,0,0,0-1.85,0A4.18,4.18,0,0,0,344.73,117.41Z"></path><path class="cls-1" d="M350.91,116.28a2.4,2.4,0,0,1-.3,1.33,1,1,0,0,1-.86.45.94.94,0,0,1-.84-.46,3.1,3.1,0,0,1,0-2.64,1,1,0,0,1,.85-.44,1,1,0,0,1,.86.46A2.36,2.36,0,0,1,350.91,116.28Zm-1.77,0a2.74,2.74,0,0,0,.14,1,.48.48,0,0,0,.47.32c.42,0,.63-.43.63-1.31s-.21-1.3-.63-1.3a.48.48,0,0,0-.47.32A2.68,2.68,0,0,0,349.14,116.28Zm4.17-1.68-3.13,5.64h-.56l3.12-5.64Zm1,3.94a2.4,2.4,0,0,1-.3,1.33,1,1,0,0,1-1.71,0,3.2,3.2,0,0,1,0-2.64,1,1,0,0,1,1.71,0A2.31,2.31,0,0,1,354.31,118.54Zm-1.77,0a2.53,2.53,0,0,0,.14,1,.48.48,0,0,0,.47.33.5.5,0,0,0,.47-.32,2.33,2.33,0,0,0,.16-1,2.18,2.18,0,0,0-.16-1,.49.49,0,0,0-.47-.32.47.47,0,0,0-.47.32A2.39,2.39,0,0,0,352.54,118.54Z"></path><path class="cls-1" d="M360,117.29h1.92V120a5.74,5.74,0,0,1-.91.22,6.86,6.86,0,0,1-1.07.07,2.6,2.6,0,0,1-2-.76,3,3,0,0,1-.71-2.14,3.15,3.15,0,0,1,.35-1.54,2.32,2.32,0,0,1,1-1,3.19,3.19,0,0,1,1.55-.35,4.27,4.27,0,0,1,1.68.33l-.25.58a3.71,3.71,0,0,0-1.47-.33,2.11,2.11,0,0,0-1.61.62,2.37,2.37,0,0,0-.58,1.7,2.43,2.43,0,0,0,.56,1.73,2.13,2.13,0,0,0,1.64.6,4.81,4.81,0,0,0,1.14-.14v-1.74H360Z"></path><path class="cls-1" d="M365.13,115.93a2.57,2.57,0,0,1,.5,0l-.09.6a2.08,2.08,0,0,0-.46-.06,1.15,1.15,0,0,0-.88.41,1.55,1.55,0,0,0-.36,1v2.27h-.64V116h.52l.08.78h0a1.84,1.84,0,0,1,.57-.63A1.26,1.26,0,0,1,365.13,115.93Z"></path><path class="cls-1" d="M370.07,118.12a2.34,2.34,0,0,1-.52,1.62,1.83,1.83,0,0,1-1.44.58,1.91,1.91,0,0,1-1-.27,1.74,1.74,0,0,1-.68-.76,2.81,2.81,0,0,1-.23-1.17,2.36,2.36,0,0,1,.51-1.61,1.87,1.87,0,0,1,1.44-.58,1.78,1.78,0,0,1,1.41.6A2.29,2.29,0,0,1,370.07,118.12Zm-3.22,0a2.06,2.06,0,0,0,.32,1.24,1.15,1.15,0,0,0,1,.42,1.13,1.13,0,0,0,.95-.42,2,2,0,0,0,.33-1.24,2,2,0,0,0-.33-1.22,1.15,1.15,0,0,0-1-.42,1.14,1.14,0,0,0-.95.41A2,2,0,0,0,366.85,118.12Z"></path><path class="cls-1" d="M374.65,120.24l-.78-2.48c-.05-.15-.14-.5-.27-1h0c-.11.45-.19.79-.27,1l-.8,2.47h-.74L370.6,116h.68c.27,1.06.48,1.87.62,2.43a10.29,10.29,0,0,1,.24,1.12h0c0-.14.08-.33.14-.57s.12-.41.17-.55l.77-2.43h.7l.75,2.43a8.34,8.34,0,0,1,.3,1.12h0a2.72,2.72,0,0,1,.08-.43c0-.2.31-1.23.8-3.12h.67l-1.17,4.23Z"></path><path class="cls-1" d="M378.71,119.79l.32,0,.26-.06v.49a1,1,0,0,1-.31.09l-.37,0c-.81,0-1.22-.43-1.22-1.29v-2.52h-.61v-.31l.61-.27.27-.9H378v1h1.22v.5H378V119a.89.89,0,0,0,.18.59A.65.65,0,0,0,378.71,119.79Z"></path><path class="cls-1" d="M383,120.24v-2.73a1.1,1.1,0,0,0-.23-.78,1,1,0,0,0-.74-.25,1.2,1.2,0,0,0-1,.36,1.81,1.81,0,0,0-.31,1.19v2.21h-.64v-6h.64v1.81a4.22,4.22,0,0,1,0,.55h0a1.27,1.27,0,0,1,.54-.48,1.7,1.7,0,0,1,.79-.18,1.67,1.67,0,0,1,1.17.37,1.56,1.56,0,0,1,.38,1.17v2.76Z"></path><path class="cls-1" d="M392,117.41a3.07,3.07,0,0,1-.69,2.13,2.4,2.4,0,0,1-1.9.78,2.44,2.44,0,0,1-1.93-.76,3.15,3.15,0,0,1-.67-2.15,3.1,3.1,0,0,1,.67-2.14,2.46,2.46,0,0,1,1.93-.76,2.41,2.41,0,0,1,1.9.77A3.1,3.1,0,0,1,392,117.41Zm-4.5,0a2.64,2.64,0,0,0,.49,1.74,1.72,1.72,0,0,0,1.42.6,1.7,1.7,0,0,0,1.41-.6,2.69,2.69,0,0,0,.48-1.74,2.65,2.65,0,0,0-.48-1.72,1.67,1.67,0,0,0-1.41-.59,1.71,1.71,0,0,0-1.42.59A2.61,2.61,0,0,0,387.53,117.41Z"></path><path class="cls-1" d="M394.11,120.24l-1.6-4.23h.68l.92,2.51q.3.89.36,1.14h0q0-.19.27-.84c.15-.43.48-1.37,1-2.81h.69l-1.61,4.23Z"></path><path class="cls-1" d="M398.93,120.32a2,2,0,0,1-1.48-.57,2.22,2.22,0,0,1-.54-1.59,2.47,2.47,0,0,1,.5-1.62,1.67,1.67,0,0,1,1.36-.61,1.59,1.59,0,0,1,1.25.53,2,2,0,0,1,.47,1.38v.4h-2.92a1.68,1.68,0,0,0,.38,1.13,1.29,1.29,0,0,0,1,.39,3.22,3.22,0,0,0,1.35-.29v.58a4.76,4.76,0,0,1-.64.21A3.77,3.77,0,0,1,398.93,120.32Zm-.17-3.85a1,1,0,0,0-.81.33,1.51,1.51,0,0,0-.36.92h2.21a1.43,1.43,0,0,0-.27-.93A1,1,0,0,0,398.76,116.47Z"></path><path class="cls-1" d="M403.51,115.93a2.49,2.49,0,0,1,.5,0l-.09.6a2.08,2.08,0,0,0-.46-.06,1.16,1.16,0,0,0-.88.41,1.55,1.55,0,0,0-.36,1v2.27h-.64V116h.53l.07.78h0a1.94,1.94,0,0,1,.57-.63A1.26,1.26,0,0,1,403.51,115.93Z"></path><path class="cls-1" d="M407,120.24V114.6h.66v5.05h2.49v.59Z"></path><path class="cls-1" d="M413.56,120.24l-.13-.6h0a1.69,1.69,0,0,1-.63.54,2,2,0,0,1-.79.14,1.44,1.44,0,0,1-1-.32,1.2,1.2,0,0,1-.36-.93c0-.85.69-1.3,2.05-1.34l.72,0v-.27a1,1,0,0,0-.22-.73.86.86,0,0,0-.68-.24,2.91,2.91,0,0,0-1.2.32l-.19-.49a2.91,2.91,0,0,1,.68-.26,2.76,2.76,0,0,1,.75-.1,1.58,1.58,0,0,1,1.12.34,1.41,1.41,0,0,1,.36,1.08v2.88Zm-1.45-.45a1.3,1.3,0,0,0,.94-.33,1.2,1.2,0,0,0,.34-.92v-.38l-.64,0a2.36,2.36,0,0,0-1.1.24.73.73,0,0,0-.34.65.66.66,0,0,0,.21.53A.89.89,0,0,0,412.11,119.79Z"></path><path class="cls-1" d="M418.08,119.09a1.07,1.07,0,0,1-.44.91,2.07,2.07,0,0,1-1.23.32,2.71,2.71,0,0,1-1.32-.27v-.59a3.71,3.71,0,0,0,.66.24,2.69,2.69,0,0,0,.67.09,1.47,1.47,0,0,0,.77-.16.55.55,0,0,0,.06-.91,3.15,3.15,0,0,0-.84-.42,3.94,3.94,0,0,1-.83-.38,1.22,1.22,0,0,1-.38-.37,1,1,0,0,1-.12-.5,1,1,0,0,1,.42-.82,2,2,0,0,1,1.16-.3,3.45,3.45,0,0,1,1.33.28l-.23.52a3.1,3.1,0,0,0-1.15-.26,1.42,1.42,0,0,0-.69.14.46.46,0,0,0-.23.4.48.48,0,0,0,.09.29,1,1,0,0,0,.28.23,7.21,7.21,0,0,0,.74.31,2.88,2.88,0,0,1,1,.55A1,1,0,0,1,418.08,119.09Z"></path><path class="cls-1" d="M420.49,119.79l.33,0,.25-.06v.49a.89.89,0,0,1-.31.09l-.36,0q-1.23,0-1.23-1.29v-2.52h-.61v-.31l.61-.27.27-.9h.37v1H421v.5h-1.23V119a.89.89,0,0,0,.18.59A.65.65,0,0,0,420.49,119.79Z"></path><path class="cls-1" d="M425.43,116.79a2.06,2.06,0,0,1,1.41.45,1.51,1.51,0,0,1,.51,1.21,1.75,1.75,0,0,1-.56,1.37,2.23,2.23,0,0,1-1.54.5,2.85,2.85,0,0,1-1.45-.3v-.62a2.46,2.46,0,0,0,.67.27,3.11,3.11,0,0,0,.79.1,1.62,1.62,0,0,0,1.06-.32,1.16,1.16,0,0,0,.37-.93c0-.79-.48-1.18-1.44-1.18a6.06,6.06,0,0,0-1,.11l-.34-.21.22-2.64H427v.59h-2.26l-.14,1.69A5.36,5.36,0,0,1,425.43,116.79Z"></path><path class="cls-1" d="M432.07,117.42l1.5-2.82h.71l-1.88,3.45v2.19h-.67v-2.16l-1.87-3.48h.71Z"></path><path class="cls-1" d="M436.75,120.32a1.94,1.94,0,0,1-1.48-.57,2.22,2.22,0,0,1-.55-1.59,2.42,2.42,0,0,1,.51-1.62,1.64,1.64,0,0,1,1.35-.61,1.6,1.6,0,0,1,1.26.53,2,2,0,0,1,.46,1.38v.4h-2.91a1.68,1.68,0,0,0,.37,1.13,1.31,1.31,0,0,0,1,.39,3.25,3.25,0,0,0,1.35-.29v.58a5.27,5.27,0,0,1-.64.21A3.84,3.84,0,0,1,436.75,120.32Zm-.18-3.85a1,1,0,0,0-.81.33,1.57,1.57,0,0,0-.36.92h2.22a1.43,1.43,0,0,0-.28-.93A.94.94,0,0,0,436.57,116.47Z"></path><path class="cls-1" d="M442,120.24l-.12-.6h0a1.69,1.69,0,0,1-.63.54,2,2,0,0,1-.79.14,1.45,1.45,0,0,1-1-.32,1.23,1.23,0,0,1-.35-.93c0-.85.68-1.3,2.05-1.34l.71,0v-.27a1.08,1.08,0,0,0-.21-.73.86.86,0,0,0-.68-.24,2.84,2.84,0,0,0-1.2.32l-.2-.49a3,3,0,0,1,.69-.26,2.69,2.69,0,0,1,.74-.1,1.56,1.56,0,0,1,1.12.34,1.37,1.37,0,0,1,.37,1.08v2.88Zm-1.44-.45a1.3,1.3,0,0,0,.94-.33,1.24,1.24,0,0,0,.34-.92v-.38l-.64,0a2.33,2.33,0,0,0-1.1.24.71.71,0,0,0-.34.65.66.66,0,0,0,.21.53A.89.89,0,0,0,440.55,119.79Z"></path><path class="cls-1" d="M445.72,115.93a2.49,2.49,0,0,1,.5,0l-.09.6a2.08,2.08,0,0,0-.46-.06,1.16,1.16,0,0,0-.88.41,1.55,1.55,0,0,0-.36,1v2.27h-.64V116h.53l.07.78h0a1.94,1.94,0,0,1,.57-.63A1.26,1.26,0,0,1,445.72,115.93Z"></path><path class="cls-1" d="M449.74,119.09a1,1,0,0,1-.44.91,2.07,2.07,0,0,1-1.23.32,2.64,2.64,0,0,1-1.31-.27v-.59a3.35,3.35,0,0,0,.65.24,2.69,2.69,0,0,0,.67.09,1.47,1.47,0,0,0,.77-.16.54.54,0,0,0,.28-.49.55.55,0,0,0-.22-.42,3.22,3.22,0,0,0-.83-.42,3.83,3.83,0,0,1-.84-.38,1.09,1.09,0,0,1-.37-.37.91.91,0,0,1-.13-.5,1,1,0,0,1,.42-.82,2,2,0,0,1,1.16-.3,3.45,3.45,0,0,1,1.33.28l-.22.52a3.19,3.19,0,0,0-1.16-.26,1.42,1.42,0,0,0-.69.14.46.46,0,0,0-.23.4.48.48,0,0,0,.09.29,1,1,0,0,0,.28.23c.13.07.38.17.74.31a2.88,2.88,0,0,1,1,.55A1,1,0,0,1,449.74,119.09Z"></path><path class="cls-1" d="M4.39,121a1,1,0,0,1,0-2c1.44,0,143.78-5.69,152.64-6.2,5.22-.31,20.51-.2,36.69-.09,11.5.08,23.39.16,31.53.08,3.63,0,7.39,0,11.3,0,17.05,0,36.35,0,59-2.91a435.69,435.69,0,0,0,51.34-9.39l.33-.08,2.55-.61c7.23-1.71,16.23-3.84,24.56-9.59C384.74,83,400.63,69.64,411,55.89c9.45-12.55,27.84-41.74,33.25-50.39a1,1,0,0,1,1.69,1.07c-5.42,8.66-23.84,37.91-33.34,50.52C402.09,71,386.51,84.17,375.42,91.83c-8.64,6-17.84,8.15-25.24,9.9l-2.54.6-.32.09a441.57,441.57,0,0,1-51.56,9.43c-22.78,3-42.17,2.93-59.26,2.92-3.89,0-7.65,0-11.27,0-8.16.08-20.06,0-31.56-.08-16.15-.11-31.41-.22-36.57.08C148.22,115.31,5.87,121,4.43,121Z"></path><polygon class="cls-1" points="448.43 16.01 446.46 16.38 444.65 6.68 435.11 9.19 434.61 7.25 446.22 4.2 448.43 16.01"></polygon></svg> 