<svg width="385" height="420" xml:space="preserve" xmlns="http://www.w3.org/2000/svg" id="Design" viewBox="0 0 385 420"><defs><style>.cls-1{fill:#303e49;}</style></defs><path class="cls-1" d="M63.79,182.73v2.53c0,7.3-2.23,12-7.19,14.29,6,2.33,8.31,7.7,8.31,15.2v5.78c0,10.95-5.78,16.82-16.93,16.82H30.45V166.41H47.27C58.83,166.41,63.79,171.78,63.79,182.73ZM41.6,195.29H46c4.15,0,6.69-1.82,6.69-7.5v-3.95c0-5.07-1.73-7.3-5.68-7.3H41.6Zm0,31.93H48c3.75,0,5.78-1.72,5.78-7V214c0-6.58-2.13-8.61-7.2-8.61h-5Z"></path><path class="cls-1" d="M87.3,221.14c0,5.07,2.23,6.89,5.78,6.89s5.78-1.82,5.78-6.89V166.41H109.4v54c0,11.35-5.68,17.84-16.62,17.84s-16.62-6.49-16.62-17.84v-54H87.3Z"></path><path class="cls-1" d="M137.06,165.6c10.85,0,16.42,6.49,16.42,17.84v2.23H142.94v-2.94c0-5.07-2-7-5.57-7s-5.58,1.93-5.58,7c0,14.59,21.79,17.33,21.79,37.6,0,11.35-5.67,17.84-16.62,17.84s-16.62-6.49-16.62-17.84V216h10.54V221c0,5.06,2.23,6.89,5.78,6.89s5.78-1.83,5.78-6.89c0-14.6-21.79-17.33-21.79-37.6C120.65,172.09,126.22,165.6,137.06,165.6Z"></path><path class="cls-1" d="M176.18,166.41v70.94H165V166.41Z"></path><path class="cls-1" d="M199.29,237.35h-10V166.41h14l11.45,42.47V166.41h9.94v70.94H213.17L199.29,186Z"></path><path class="cls-1" d="M264.15,196.31v10.13h-15.3v20.78H268.1v10.13H237.7V166.41h30.4v10.13H248.85v19.77Z"></path><path class="cls-1" d="M295.06,165.6c10.84,0,16.42,6.49,16.42,17.84v2.23H300.94v-2.94c0-5.07-2-7-5.58-7s-5.57,1.93-5.57,7c0,14.59,21.79,17.33,21.79,37.6,0,11.35-5.68,17.84-16.62,17.84s-16.62-6.49-16.62-17.84V216h10.54V221c0,5.06,2.23,6.89,5.77,6.89s5.78-1.83,5.78-6.89c0-14.6-21.79-17.33-21.79-37.6C278.64,172.09,284.22,165.6,295.06,165.6Z"></path><path class="cls-1" d="M338,165.6c10.84,0,16.42,6.49,16.42,17.84v2.23H343.91v-2.94c0-5.07-2-7-5.58-7s-5.57,1.93-5.57,7c0,14.59,21.79,17.33,21.79,37.6,0,11.35-5.68,17.84-16.62,17.84s-16.62-6.49-16.62-17.84V216h10.54V221c0,5.06,2.23,6.89,5.78,6.89s5.77-1.83,5.77-6.89c0-14.6-21.79-17.33-21.79-37.6C321.61,172.09,327.19,165.6,338,165.6Z"></path><path class="cls-1" d="M61.54,288c4.61,7.55,2.66,14.42-5.17,19.21L30.9,322.82c-7.84,4.79-14.84,3.39-19.46-4.16s-2.66-14.42,5.17-19.21l25.47-15.57C49.92,279.09,56.92,280.48,61.54,288Zm-43.1,26.34c1.5,2.45,3.77,3.18,7.26,1l26.45-16.17c3.5-2.14,3.89-4.49,2.39-6.94s-3.77-3.17-7.27-1L20.83,307.44C17.33,309.58,16.94,311.93,18.44,314.38Z"></path><path class="cls-1" d="M70.12,339.89l-5.9,5.69-8.08-8.38L39.08,353.65l-6.26-6.49,41.31-39.85,16.56,17.17-5.9,5.7L74.49,319.5,62,331.51Z"></path><path class="cls-1" d="M134.59,351.64l-3.74,7.29-8.39-4.31L100,398.37l-8-4.12,22.5-43.76-8.39-4.31,3.75-7.29Z"></path><path class="cls-1" d="M127.58,409.94l13.82-55.71,8.76,2.17-5.93,23.87,10,2.47,5.93-23.87,8.91,2.21L155.2,416.79l-8.91-2.21,5.92-23.88-10-2.47-5.92,23.88Z"></path><path class="cls-1" d="M200.64,386.52l-.14,8.2-12.37-.2-.28,16.81,15.58.25-.13,8.2-24.6-.4.93-57.39,24.6.4-.14,8.2-15.57-.26-.26,16Z"></path><path class="cls-1" d="M227.77,359l8.91-3.08,15.06,22.47-2-27,8.13-2.81,1.76,40,6.22,18-8.53,2.95-6.21-18Z"></path><path class="cls-1" d="M295,354.26l4.35,6.95-10.49,6.57L297.76,382l13.2-8.26,4.35,7-20.85,13L264,345.12l20.85-13.06,4.35,6.95L276,347.28l8.48,13.55Z"></path><path class="cls-1" d="M346.75,352.86l-8.47-6.26-7.82,7.83,6.26,8.46-5.85,5.86-34.12-47.06,9.33-9.34,47.1,34.07ZM331.9,342l-23.61-17.44,17.47,23.59Z"></path><path class="cls-1" d="M369.31,310.74,361.63,306c-4.55-2.79-7.17-2.28-9.31,1.21l-1.63,2.66,19.92,12.22-4.72,7.69-48.93-30,7.12-11.6c4.89-8,10.69-9.12,18.24-4.49l3.85,2.36c5,3.09,7.33,6.71,6.84,11.12,4-2.86,8.44-1.84,13.54,1.29l7.55,4.63c2.38,1.45,4.17,2.46,6.46,2.8l-4.81,7.83C374.24,313.38,373.3,313.19,369.31,310.74Zm-25.61-5.13,1.84-3c1.76-2.87,1.57-5.39-2.34-7.79l-4.82-3c-3.5-2.14-5.77-1.9-7.44.83l-2.27,3.7Z"></path><path class="cls-1" d="M27.09,82.42l26.28,20.23,6.1-7.93,4.38,3.37L54,110.84,23.39,87.24Z"></path><path class="cls-1" d="M65.32,64.91l3.81,4-6,5.74,7.8,8.22,7.61-7.23,3.81,4-12,11.42L43.64,63l12-11.41,3.81,4-7.62,7.23,7.42,7.82Z"></path><path class="cls-1" d="M90.45,73,68.91,40.89l5-3.39,9.23,13.77,5.74-3.84L79.69,33.66l5.14-3.45,21.55,32.13-5.14,3.45L92,52l-5.73,3.84L95.5,69.63Z"></path><path class="cls-1" d="M105.19,19.58,122,54.45l-5.48,2.63L99.71,22.22Z"></path><path class="cls-1" d="M142.61,23.94l3.76,11.68c1.9,5.89,0,10.21-5.65,12s-9.71-.59-11.61-6.49L123,22c-1.9-5.89,0-10.21,5.64-12s9.72.59,11.61,6.49L141.36,20l-5.48,1.77-1.27-3.95c-.84-2.63-2.32-3.26-4.16-2.66s-2.68,2-1.83,4.59L135,39.68c.84,2.63,2.31,3.2,4.15,2.61s2.69-1.91,1.85-4.54L138.83,31l-2.63.85-1.69-5.26Z"></path><path class="cls-1" d="M159.56,42,154.25,3.72l6-.83,2.28,16.42,6.84-.95L167.12,1.94l6.13-.85,5.31,38.32-6.14.85-2.27-16.42-6.84.95,2.27,16.42Z"></path><path class="cls-1" d="M224.34,2.81l5.53.72L219,41.13,210,40,209,.82l6.09.79.53,31.9Z"></path><path class="cls-1" d="M245.83,47.65l1-7-7.14-2.16-3,6.41-5.34-1.62L248.47,8,257,10.6l-5.28,38.83Zm1.76-12.29,2.86-19.57L242,33.66Z"></path><path class="cls-1" d="M283.06,21.17,268.43,50.93l9,4.42-2.44,5-14.44-7.1L277.6,18.49Z"></path><path class="cls-1" d="M310.22,37l-19,27.21,8.21,5.72-3.16,4.53-13.2-9.19,22.11-31.74Z"></path><path class="cls-1" d="M329.53,74.36l-3.83,4-6-5.77-7.84,8.18L319.42,88l-3.82,4-12-11.46L330.38,52.6l12,11.47-3.82,4L331,60.8l-7.45,7.78Z"></path><path class="cls-1" d="M352.37,75.11l3.81,5.08L344.86,94.48l16.89-6.86,3.48,4.64-25.31,9.37-10.25,7.69L326,104.45l10.26-7.69Z"></path><path class="cls-1" d="M148.09,106.4a1.31,1.31,0,0,0-1.09-.92l-5.56-.81a1.87,1.87,0,0,1-1.39-1l-2.49-5a1.34,1.34,0,0,0-2.41,0l-2.49,5a1.87,1.87,0,0,1-1.39,1l-5.56.81a1.31,1.31,0,0,0-1.09.92,1.33,1.33,0,0,0,.34,1.38l4,3.94a1.85,1.85,0,0,1,.53,1.63l-1,5.55a1.35,1.35,0,0,0,2,1.43l5-2.63a1.85,1.85,0,0,1,1.71,0l5,2.63a1.35,1.35,0,0,0,1.95-1.43l-.95-5.55a1.85,1.85,0,0,1,.53-1.63l4-3.94A1.33,1.33,0,0,0,148.09,106.4Z"></path><path class="cls-1" d="M185.52,87.94a1.33,1.33,0,0,0-1.09-.92l-5.56-.81a1.84,1.84,0,0,1-1.39-1l-2.49-5a1.34,1.34,0,0,0-2.41,0l-2.49,5a1.84,1.84,0,0,1-1.39,1l-5.56.81a1.33,1.33,0,0,0-1.09.92,1.35,1.35,0,0,0,.34,1.39l4,3.93a1.85,1.85,0,0,1,.53,1.63l-.95,5.55a1.34,1.34,0,0,0,1.95,1.43l5-2.62a1.77,1.77,0,0,1,1.71,0l5,2.62a1.34,1.34,0,0,0,1.95-1.43l-.95-5.55a1.85,1.85,0,0,1,.53-1.63l4-3.93A1.35,1.35,0,0,0,185.52,87.94Z"></path><path class="cls-1" d="M223,87.94a1.33,1.33,0,0,0-1.09-.92l-5.56-.81a1.84,1.84,0,0,1-1.39-1l-2.49-5a1.34,1.34,0,0,0-2.41,0l-2.49,5a1.84,1.84,0,0,1-1.39,1l-5.56.81a1.33,1.33,0,0,0-1.09.92,1.35,1.35,0,0,0,.34,1.39l4,3.93a1.85,1.85,0,0,1,.53,1.63l-.95,5.55a1.34,1.34,0,0,0,1.95,1.43l5-2.62a1.77,1.77,0,0,1,1.71,0l5,2.62a1.34,1.34,0,0,0,1.95-1.43l-.95-5.55a1.85,1.85,0,0,1,.53-1.63l4-3.93A1.35,1.35,0,0,0,223,87.94Z"></path><path class="cls-1" d="M260.38,106.4a1.31,1.31,0,0,0-1.09-.92l-5.56-.81a1.87,1.87,0,0,1-1.39-1l-2.49-5a1.34,1.34,0,0,0-2.41,0l-2.49,5a1.87,1.87,0,0,1-1.39,1l-5.56.81a1.31,1.31,0,0,0-1.09.92,1.33,1.33,0,0,0,.34,1.38l4,3.94a1.85,1.85,0,0,1,.53,1.63l-.95,5.55a1.35,1.35,0,0,0,1.95,1.43l5-2.63a1.85,1.85,0,0,1,1.71,0l5,2.63a1.35,1.35,0,0,0,2-1.43l-1-5.55a1.85,1.85,0,0,1,.53-1.63l4-3.94A1.33,1.33,0,0,0,260.38,106.4Z"></path><path class="cls-1" d="M241.66,310.57a1.34,1.34,0,0,0,1.43,0l4.71-3.07a1.85,1.85,0,0,1,1.71-.16l5.2,2.15a1.35,1.35,0,0,0,1.82-1.6l-1.47-5.43a1.83,1.83,0,0,1,.37-1.67l3.65-4.29a1.35,1.35,0,0,0-1-2.22l-5.62-.3a1.83,1.83,0,0,1-1.47-.87l-3-4.8a1.35,1.35,0,0,0-1.28-.64,1.31,1.31,0,0,0-1.13.87l-2,5.25a1.83,1.83,0,0,1-.5.72,1.78,1.78,0,0,1-.78.41l-5.47,1.32a1.35,1.35,0,0,0-.53,2.36l4.38,3.54a1.84,1.84,0,0,1,.68,1.58l-.42,5.61A1.31,1.31,0,0,0,241.66,310.57Z"></path><path class="cls-1" d="M199.71,315.59a1.32,1.32,0,0,0,.47,1.35l4.37,3.54a1.83,1.83,0,0,1,.67,1.57l-.44,5.61a1.34,1.34,0,0,0,.66,1.27,1.31,1.31,0,0,0,1.42,0l4.72-3.07a1.8,1.8,0,0,1,1.71-.16l5.19,2.14a1.32,1.32,0,0,0,1.41-.24,1.29,1.29,0,0,0,.41-1.36l-1.45-5.44a1.81,1.81,0,0,1,.38-1.67l3.65-4.29a1.36,1.36,0,0,0-1-2.23l-5.61-.28a1.92,1.92,0,0,1-.85-.26,1.81,1.81,0,0,1-.62-.61l-2.94-4.8a1.33,1.33,0,0,0-1.28-.64,1.35,1.35,0,0,0-1.14.87l-2,5.26a1.86,1.86,0,0,1-1.29,1.13l-5.47,1.32A1.35,1.35,0,0,0,199.71,315.59Z"></path><path class="cls-1" d="M166,328.42a1.33,1.33,0,0,0,1.42.09l5-2.67a1.85,1.85,0,0,1,1.71,0l5,2.57a1.34,1.34,0,0,0,1.94-1.44l-1-5.54a1.82,1.82,0,0,1,.51-1.63l4-4a1.31,1.31,0,0,0,.33-1.39,1.36,1.36,0,0,0-1.1-.91l-5.58-.75a1.86,1.86,0,0,1-1.39-1l-2.55-5a1.35,1.35,0,0,0-2.42,0l-2.43,5.07a2,2,0,0,1-.56.68,2,2,0,0,1-.82.34l-5.56.86a1.3,1.3,0,0,0-1.07.92,1.33,1.33,0,0,0,.35,1.39l4.07,3.89a1.83,1.83,0,0,1,.55,1.62l-.89,5.56A1.34,1.34,0,0,0,166,328.42Z"></path><path class="cls-1" d="M125.44,295.62a1.31,1.31,0,0,0,.28,1.4l3.86,4.09a1.84,1.84,0,0,1,.45,1.65l-1.18,5.51a1.31,1.31,0,0,0,.48,1.34,1.3,1.3,0,0,0,1.41.16l5.09-2.41a1.82,1.82,0,0,1,1.71.07l4.86,2.82a1.32,1.32,0,0,0,1.43-.05,1.3,1.3,0,0,0,.59-1.29l-.71-5.59a1.82,1.82,0,0,1,.6-1.6L148.5,298a1.3,1.3,0,0,0,.4-1.37,1.32,1.32,0,0,0-1-1l-5.53-1a1.94,1.94,0,0,1-.81-.37,1.76,1.76,0,0,1-.53-.7l-2.28-5.14a1.34,1.34,0,0,0-2.41-.1l-2.71,4.94a1.83,1.83,0,0,1-1.43.95l-5.59.58A1.33,1.33,0,0,0,125.44,295.62Z"></path><path class="cls-1" d="M14.23,274.7a2,2,0,0,1,1.13-2.59h0A2,2,0,0,1,18,273.23h0a2,2,0,0,1-1.12,2.6h0a2.1,2.1,0,0,1-.73.14h0A2,2,0,0,1,14.23,274.7ZM8.9,259.34h0a2,2,0,0,1,1.34-2.49h0a2,2,0,0,1,2.49,1.34h0a2,2,0,0,1-1.34,2.49h0a1.87,1.87,0,0,1-.57.08h0A2,2,0,0,1,8.9,259.34Zm-4-15.76a2,2,0,0,1,1.54-2.37h0a2,2,0,0,1,2.37,1.55h0a2,2,0,0,1-1.55,2.37h0a2.85,2.85,0,0,1-.41,0h0A2,2,0,0,1,4.9,243.58ZM2.25,227.53A2,2,0,0,1,4,225.3H4a2,2,0,0,1,2.22,1.75h0a2,2,0,0,1-1.74,2.23H4.23A2,2,0,0,1,2.25,227.53ZM1,211.32a2,2,0,0,1,1.92-2.07h0A2,2,0,0,1,5,211.18H5a2,2,0,0,1-1.92,2.07H3A2,2,0,0,1,1,211.32Zm2-14.17a2,2,0,0,1-1.9-2.09h0a2,2,0,0,1,2.09-1.91h0a2,2,0,0,1,1.91,2.1h0a2,2,0,0,1-2,1.9H3ZM4.23,181.1a2,2,0,0,1-1.72-2.24h0a2,2,0,0,1,2.24-1.72h0a2,2,0,0,1,1.72,2.24h0a2,2,0,0,1-2,1.74h0Zm2.62-15.88a2,2,0,0,1-1.53-2.38h0a2,2,0,0,1,2.38-1.53h0a2,2,0,0,1,1.53,2.39h0a2,2,0,0,1-2,1.57h0A2,2,0,0,1,6.85,165.22Zm4-15.6a2,2,0,0,1-1.32-2.5h0A2,2,0,0,1,12,145.8h0a2,2,0,0,1,1.31,2.51h0a2,2,0,0,1-1.91,1.4h0A2,2,0,0,1,10.81,149.62Zm5.27-15.2A2,2,0,0,1,15,131.81h0a2,2,0,0,1,2.61-1.1h0a2,2,0,0,1,1.09,2.61h0a2,2,0,0,1-1.85,1.24h0A2,2,0,0,1,16.08,134.42Zm6.56-14.7a2,2,0,0,1-.87-2.69h0a2,2,0,0,1,2.69-.87h0a2,2,0,0,1,.87,2.69h0a2,2,0,0,1-1.78,1.09h0A2,2,0,0,1,22.64,119.72Z"></path><path class="cls-1" d="M367.79,275.83a2,2,0,0,1-1.12-2.6h0a2,2,0,0,1,2.59-1.12h0a2,2,0,0,1,1.13,2.59h0a2,2,0,0,1-1.87,1.27h0A2.1,2.1,0,0,1,367.79,275.83Zm5.44-15.15a2,2,0,0,1-1.34-2.49h0a2,2,0,0,1,2.49-1.34h0a2,2,0,0,1,1.34,2.49h0a2,2,0,0,1-1.91,1.42h0A1.93,1.93,0,0,1,373.23,260.68Zm4.13-15.55a2,2,0,0,1-1.55-2.37h0a2,2,0,0,1,2.36-1.55h0a2,2,0,0,1,1.55,2.37h0a2,2,0,0,1-2,1.59h0A2.71,2.71,0,0,1,377.36,245.13Zm2.78-15.85a2,2,0,0,1-1.74-2.23h0a2,2,0,0,1,2.22-1.74h0a2,2,0,0,1,1.75,2.22h0a2,2,0,0,1-2,1.76h-.25Zm1.43-16a2,2,0,0,1-1.92-2.07h0a2,2,0,0,1,2.07-1.93h0a2,2,0,0,1,1.92,2.07h0a2,2,0,0,1-2,1.93h-.08Zm-2-18a2,2,0,0,1,1.9-2.09h0a2,2,0,0,1,2.09,1.9h0a2,2,0,0,1-1.9,2.09h-.1A2,2,0,0,1,379.57,195.25Zm-1.42-15.87a2,2,0,0,1,1.72-2.24h0a2,2,0,0,1,2.24,1.72h0a2,2,0,0,1-1.72,2.24h0l-.26,0h0A2,2,0,0,1,378.15,179.38Zm-2.76-15.68a2,2,0,0,1,1.53-2.39h0a2,2,0,0,1,2.38,1.53h0a2,2,0,0,1-1.52,2.38h0a2.18,2.18,0,0,1-.43.05h0A2,2,0,0,1,375.39,163.7Zm-4.08-15.39a2,2,0,0,1,1.32-2.51h0a2,2,0,0,1,2.5,1.32h0a2,2,0,0,1-1.32,2.5h0a2,2,0,0,1-.59.09h0A2,2,0,0,1,371.31,148.31Zm-5.38-15a2,2,0,0,1,1.09-2.61h0a2,2,0,0,1,2.61,1.1h0a2,2,0,0,1-1.1,2.61h0a2,2,0,0,1-.75.14h0A2,2,0,0,1,365.93,133.32Zm-6.64-14.47a2,2,0,0,1,.87-2.69h0a2,2,0,0,1,2.69.87h0a2,2,0,0,1-.87,2.69h0a2,2,0,0,1-.91.22h0A2,2,0,0,1,359.29,118.85Z"></path></svg> 