<svg width="420" height="420" xml:space="preserve" xmlns="http://www.w3.org/2000/svg" id="Design" viewBox="0 0 420 420"><defs><style>.cls-1,.cls-2{fill:#303e49;}.cls-2{fill-rule:evenodd;}</style></defs><path class="cls-1" d="M195.65,419.36h-.29c-2.08-.15-4.53-2.38-7.76-5.52-2.82-2.73-5.48-5.31-8-5.7a4.67,4.67,0,0,0-.77-.05c-2.41,0-5.4,1.5-8.56,3.09-4,2-7,3.4-9.07,2.91s-4.1-3.09-6.77-6.71c-2.34-3.18-4.54-6.16-6.95-7s-5.94.3-9.68,1.45c-4.34,1.34-7.52,2.21-9.46,1.39s-3.53-3.73-5.57-7.74c-1.78-3.51-3.45-6.82-5.71-8s-5.92-.7-9.81-.17c-4.45.6-7.75.93-9.53-.21s-2.87-4.24-4.22-8.53c-1.18-3.76-2.29-7.3-4.32-8.84s-5.73-1.66-9.65-1.79c-4.5-.14-7.8-.35-9.36-1.76s-2.14-4.68-2.76-9.13c-.55-3.91-1.07-7.58-2.82-9.43s-5.38-2.59-9.22-3.36c-4.42-.88-7.63-1.63-9-3.28s-1.34-5-1.22-9.47c.1-3.93.19-7.64-1.23-9.76s-4.88-3.44-8.55-4.83c-4.2-1.6-7.25-2.87-8.28-4.72s-.51-5.1.34-9.52c.75-3.88,1.45-7.52.4-9.85s-4.25-4.19-7.64-6.17c-3.89-2.28-6.69-4-7.4-6s.35-5.12,1.91-9.33c1.37-3.7,2.66-7.18,2-9.66s-3.5-4.83-6.51-7.33c-3.46-2.89-5.93-5.09-6.31-7.16s1.18-5,3.41-8.9c2-3.42,3.8-6.64,3.56-9.18s-2.67-5.36-5.23-8.34c-2.94-3.42-5-6-5-8.08s2-4.74,4.83-8.22c2.49-3.05,4.84-5.92,5-8.47s-1.75-5.72-3.79-9.07c-2.34-3.85-4-6.73-3.64-8.82s2.74-4.35,6.12-7.32c3-2.59,5.73-5,6.33-7.52s-.79-5.93-2.25-9.58c-1.68-4.18-2.81-7.29-2.15-9.28s3.42-3.84,7.24-6.21c3.34-2.07,6.49-4,7.48-6.36s.2-6-.64-9.84c-1-4.4-1.57-7.65-.59-9.51s4-3.22,8.14-4.92c3.65-1.5,7.07-2.9,8.44-5s1.18-5.86,1-9.79c-.23-4.5-.29-7.82,1-9.5s4.48-2.52,8.86-3.52c3.82-.86,7.43-1.68,9.13-3.58s2.13-5.59,2.58-9.5c.51-4.47,1-7.75,2.53-9.2s4.83-1.74,9.32-2c3.91-.23,7.6-.44,9.6-2s3-5.15,4.08-8.92c1.24-4.35,2.25-7.5,4-8.69s5-.92,9.5-.44c3.92.42,7.6.82,9.81-.42s3.82-4.59,5.51-8.13c1.94-4.07,3.46-7,5.39-7.89s5.12-.08,9.45,1.13c3.77,1.06,7.34,2.07,9.73,1.21s4.53-3.91,6.77-7.12C152,10.43,154,7.78,156,7.24s5,.74,9,2.64l-.74,1.86.85-1.81c3.53,1.66,6.88,3.23,9.38,2.78s5.1-3.11,7.85-5.91C185.56,3.58,188,1.29,190,1.09s4.85,1.57,8.58,4.15c3.2,2.22,6.23,4.31,8.77,4.31S213,7.33,216.15,5c3.68-2.69,6.45-4.53,8.5-4.37S229.17,3,232.4,6.16c2.81,2.73,5.48,5.31,8,5.7s5.81-1.26,9.3-3c4-2,7-3.42,9.09-2.92s4.11,3.09,6.78,6.71c2.33,3.17,4.53,6.15,6.94,6.95s6-.3,9.7-1.45c4.31-1.33,7.5-2.21,9.45-1.38s3.52,3.73,5.56,7.74c1.78,3.51,3.46,6.82,5.71,8s5.92.7,9.81.18c4.47-.6,7.75-.94,9.53.2s2.87,4.26,4.22,8.55c1.42,4.53,2.82,7.31,4.53,9,1.35,1.35,6.33,1.75,9.27,1.6h.17c4.5.14,7.79.35,9.37,1.76s2.13,4.68,2.76,9.14c.55,3.89,1.07,7.57,2.81,9.42s5.38,2.59,9.23,3.36c4.41.88,7.62,1.63,8.94,3.28s1.34,5,1.22,9.47c-.1,3.93-.19,7.64,1.23,9.76s4.88,3.44,8.55,4.83c4.2,1.59,7.25,2.86,8.28,4.71s.51,5.12-.35,9.54c-.74,3.86-1.44,7.51-.39,9.83s4.26,4.2,7.64,6.18c3.89,2.27,6.68,4,7.39,6s-.34,5.12-1.9,9.34c-1.37,3.7-2.66,7.18-2,9.65s3.51,4.84,6.52,7.34c3.47,2.89,5.94,5.09,6.31,7.17s-1.18,5-3.41,8.9c-2,3.42-3.81,6.63-3.56,9.17s2.66,5.36,5.22,8.33c2.94,3.41,5,6,5.05,8.1s-2,4.73-4.84,8.21c-2.49,3.05-4.84,5.92-5,8.47s1.74,5.71,3.78,9.07c2.34,3.85,4,6.73,3.65,8.82s-2.74,4.35-6.12,7.32c-2.95,2.59-5.73,5-6.33,7.51s.79,5.93,2.25,9.58c1.67,4.18,2.8,7.28,2.14,9.29s-3.41,3.83-7.22,6.2c-3.35,2.07-6.5,4-7.49,6.37s-.2,6,.64,9.82c1,4.4,1.57,7.66.59,9.53s-4,3.22-8.15,4.92c-3.64,1.49-7.07,2.89-8.43,5.05s-1.18,5.86-1,9.79c.23,4.51.29,7.82-1,9.5s-4.47,2.52-8.85,3.51c-3.83.87-7.44,1.69-9.14,3.59s-2.13,5.59-2.57,9.49c-.52,4.48-1,7.76-2.54,9.21s-4.82,1.75-9.31,2c-3.92.23-7.61.45-9.6,2s-3,5.15-4.09,8.93c-1.24,4.34-2.26,7.49-4,8.67s-5,.93-9.49.44c-3.92-.43-7.6-.83-9.83.42s-3.81,4.59-5.5,8.13c-1.94,4.07-3.45,7-5.37,7.89s-5.14.08-9.47-1.13c-3.78-1.06-7.34-2.07-9.74-1.21s-4.51,3.9-6.75,7.12c-2.59,3.7-4.57,6.35-6.61,6.89s-5.08-.77-9.14-2.68c-3.55-1.67-6.9-3.25-9.4-2.79s-5.11,3.11-7.85,5.91c-3.15,3.21-5.54,5.5-7.64,5.7s-4.83-1.55-8.53-4.12c-3.11-2.15-6.28-4.34-8.79-4.34h-.07c-2.56,0-5.55,2.22-8.72,4.54l-.29.21C200.24,417.62,197.7,419.36,195.65,419.36Zm-16.81-15.28a8.79,8.79,0,0,1,1.38.1c3.78.59,6.88,3.59,10.16,6.78,1.29,1.25,4.3,4.18,5.34,4.4.92-.06,4.12-2.4,5.48-3.4l.29-.21c3.7-2.71,7.2-5.26,11-5.31h.13c3.76,0,7.45,2.55,11,5,1.5,1,4.91,3.4,6,3.46.94-.24,3.88-3.24,5.13-4.52,3.2-3.27,6.23-6.36,10-7s7.67,1.15,11.82,3.1c1.43.68,5.16,2.43,6.36,2.43h0c1-.51,3.34-3.85,4.35-5.3,2.63-3.77,5.1-7.31,8.69-8.6s7.76-.12,12.17,1.11c1.72.49,5.76,1.62,6.77,1.33.8-.53,2.61-4.32,3.37-5.94,2-4.14,3.84-8.05,7.17-9.91s7.64-1.41,12.19-.91c1.8.2,5.94.65,6.89.2.7-.66,1.86-4.7,2.35-6.42,1.26-4.42,2.46-8.58,5.44-11s7.3-2.64,11.87-2.91c1.76-.1,5.84-.33,6.79-.92.64-.92,1.11-5,1.31-6.75.53-4.56,1-8.86,3.57-11.7s6.77-3.81,11.23-4.83c1.72-.39,5.7-1.29,6.55-2,.47-1,.27-5.1.18-6.87-.24-4.58-.46-8.91,1.59-12.14s6.05-4.88,10.29-6.61c1.66-.68,5.53-2.26,6.15-3.11.31-.92-.59-5-1-6.78-1-4.47-1.91-8.7-.42-12.23s5.16-5.8,9.05-8.22c1.53-.94,5.09-3.15,5.56-4.1.15-1-1.41-4.84-2.07-6.5-1.71-4.26-3.32-8.28-2.43-12s4.14-6.57,7.58-9.59c1.35-1.18,4.51-3.95,4.82-5,0-1-2.19-4.56-3.12-6.09-2.38-3.92-4.63-7.61-4.36-11.43s3-7.17,5.91-10.72c1.13-1.39,3.79-4.63,3.93-5.68-.16-.95-2.9-4.13-4.07-5.49-3-3.47-5.82-6.75-6.19-10.56s1.79-7.56,4.07-11.53c.9-1.57,3-5.21,2.95-6.26-.32-.91-3.54-3.6-4.91-4.74-3.53-2.94-6.86-5.7-7.84-9.41s.52-7.75,2.11-12.05c.63-1.69,2.09-5.62,1.88-6.66-.46-.84-4.07-3-5.61-3.85-4-2.32-7.7-4.5-9.28-8s-.76-7.73.11-12.23c.34-1.77,1.13-5.9.76-6.89-.6-.75-4.52-2.24-6.19-2.87-4.28-1.62-8.32-3.16-10.46-6.35s-2-7.5-1.9-12.08c0-1.79.16-6-.38-6.91-.71-.65-4.81-1.47-6.57-1.82-4.49-.9-8.73-1.75-11.35-4.54s-3.22-7.06-3.86-11.6c-.25-1.75-.82-5.81-1.48-6.72-1-.55-4.94-.68-6.74-.74s-9.18.26-12.22-2.77c-2.8-2.8-4.42-7.16-5.52-10.64-.54-1.72-1.79-5.73-2.6-6.42-.87-.37-5,.18-6.77.42-4.57.62-8.85,1.19-12.23-.6s-5.34-5.63-7.41-9.72c-.82-1.6-2.72-5.34-3.62-5.89-.93-.23-4.92,1-6.63,1.53-4.39,1.36-8.52,2.64-12.15,1.44s-6.19-4.68-8.91-8.37c-1.05-1.42-3.47-4.71-4.48-5.19h0c-1.16,0-4.89,1.87-6.32,2.59-4.1,2.06-8,4-11.74,3.41S232.9,12.22,229.61,9c-1.26-1.23-4.2-4.08-5.28-4.38-1.1.16-4.39,2.56-5.81,3.59-3.71,2.71-7.2,5.26-11,5.31h-.11c-3.79,0-7.31-2.44-11-5-1.46-1-4.9-3.39-6-3.46-.93.25-3.87,3.25-5.12,4.52-3.21,3.28-6.24,6.37-10,7.05s-7.67-1.15-11.81-3.09l-.1-.05C161.78,12.75,158,11,157,11.11c-.88.39-3.29,3.83-4.31,5.3-2.63,3.76-5.11,7.31-8.71,8.6s-7.75.12-12.16-1.12c-1.72-.48-5.75-1.61-6.76-1.32-.81.53-2.61,4.32-3.38,5.94-2,4.15-3.84,8.05-7.18,9.91s-7.61,1.4-12.15.91c-1.82-.2-6-.65-6.92-.19-.7.66-1.86,4.7-2.36,6.42-1.26,4.42-2.45,8.57-5.42,11s-7.31,2.64-11.87,2.9c-1.79.1-6,.34-6.84.95-.58.76-1.06,4.93-1.27,6.71-.52,4.56-1,8.86-3.56,11.71s-6.77,3.81-11.24,4.83c-1.74.39-5.83,1.32-6.58,2.06-.45.85-.24,5-.15,6.84.24,4.59.46,8.91-1.59,12.14s-6.05,4.87-10.29,6.6c-1.64.68-5.42,2.22-6.12,3.08-.31,1.08.57,5.07.94,6.79,1,4.5,1.92,8.73.42,12.26s-5.16,5.8-9,8.21c-1.5.93-5,3.09-5.54,4.06-.13,1.1,1.39,4.89,2,6.53,1.71,4.27,3.32,8.29,2.43,12s-4.14,6.58-7.58,9.59c-1.35,1.19-4.51,4-4.82,5,0,1,2.19,4.54,3.12,6.08,2.38,3.92,4.62,7.61,4.36,11.43s-3,7.17-5.91,10.72c-1.14,1.39-3.79,4.64-3.93,5.69.16.94,2.89,4.1,4.05,5.45,3,3.49,5.84,6.77,6.2,10.59s-1.78,7.56-4.06,11.54c-.89,1.56-3,5.2-2.94,6.26.32.9,3.54,3.59,4.92,4.74,3.51,2.93,6.83,5.69,7.82,9.38s-.52,7.77-2.12,12.07c-.61,1.66-2,5.49-1.88,6.6.58,1,4.1,3,5.62,3.91,4,2.32,7.7,4.5,9.28,8s.76,7.74-.1,12.24c-.35,1.78-1.14,5.89-.76,6.88.59.76,4.51,2.24,6.18,2.88,4.28,1.62,8.32,3.16,10.45,6.34s2,7.51,1.91,12.09c-.05,1.77-.15,5.87.35,6.87.86.71,4.86,1.51,6.59,1.86,4.5.9,8.75,1.75,11.37,4.54s3.21,7.06,3.86,11.6c.24,1.76.82,5.82,1.48,6.72,1,.56,5,.69,6.79.74,4.6.15,8.92.29,12,2.6S96,373,97.32,377.38c.54,1.72,1.8,5.72,2.6,6.41.88.38,5-.18,6.81-.42,4.53-.61,8.82-1.18,12.2.6s5.34,5.64,7.42,9.73c.8,1.57,2.65,5.22,3.57,5.86,1.09.23,5-1,6.65-1.5,4.43-1.37,8.54-2.64,12.17-1.44s6.19,4.67,8.91,8.36c1,1.43,3.48,4.72,4.48,5.2h0c1.16,0,4.76-1.81,6.32-2.59C172.08,405.78,175.48,404.08,178.84,404.08Z"></path><path class="cls-2" d="M201.06,131.32c7.32-5.33,5.28-13.76,7.32-21.3a10.12,10.12,0,0,0,1.5,2.29l.14.17.13-.17a10.94,10.94,0,0,0,1.47-2.22c2.07,7.61.81,16.31,7.62,21.26,8.65,6.28,21.83-1.19,28.74-9.42,7.22-8.63,10.86-19.42,6.64-22.42-3-2.12-8.27-4.13-14.23-6,6,.88,11.54.51,16.07-2.73,7.25-5.16,3.75-15.67,8.72-21.3,6.09-6.93,19.68-22,10.72-28.46-9.46-6.9-52,4.71-62.27,32.18-.24.65-.48,1.33-.68,2a4.37,4.37,0,0,1-.58-1.36,1.94,1.94,0,0,1,.34-1.57,1.79,1.79,0,0,0,.44-1c0-.82-.55-.82-1.06-1.13a1,1,0,0,1-.54-1,2.51,2.51,0,0,0-.07-1.13,38.07,38.07,0,0,1,2.28-5.42,15.52,15.52,0,0,1,3.1-3.89,1.64,1.64,0,0,1,.72-.45c.4-.17.78-.54.57-1s-.85-.21-1.15.13a31.16,31.16,0,0,0-3.71,5.26,25.12,25.12,0,0,0-2.15,5.09,3.39,3.39,0,0,0-2.35,0,27.68,27.68,0,0,0-2.18-5.16,34.3,34.3,0,0,0-3.78-5.36c-.27-.3-.85-.47-1.05,0s.17.85.58,1a3.23,3.23,0,0,1,.71.45,16.87,16.87,0,0,1,3.1,3.89A33.86,33.86,0,0,1,208.48,68a2,2,0,0,0,0,1,1.07,1.07,0,0,1-.58,1.23c-.47.3-1,.44-1,1.16,0,.41.28.65.48,1a1.94,1.94,0,0,1,.27,1.53,5.27,5.27,0,0,1-.58,1.37c-.37-1-.71-2-1.15-2.9C194.25,46,153.36,34.53,144.1,41.25c-9,6.49,4.63,21.57,10.72,28.46,5,5.67,1.47,16.18,8.72,21.3,4.29,3,9.5,3.55,15.05,2.87-5.41,1.74-10.18,3.62-12.91,5.56-4.22,3-.57,13.79,6.64,22.42,6.88,8.26,20.09,15.74,28.74,9.46ZM239.4,80.06c0,7.78-21.55,5.08-21.82,4.81,1.36-1.67,7.15-5.53,14.3-8.5,3-.85,7-.1,7.52,3.69Zm-3,6.45c4.12-.86,8.24-2.77,8.48-5.91.2-2.86-1.43-4.5-3.75-5.39,5.72.17,10.22,2.08,10.46,5.22.2,2.6-1.36,5-4.7,5.8a32.57,32.57,0,0,1-10.49.28ZM180.7,80.26c0,7.68,21.79,4.3,21.86,4.13-1.7-1.88-7.35-5.43-14.2-8.12-3-.86-7.11.27-7.66,4Zm2.76,6.21c-4-.89-8-2.76-8.21-5.83s1.57-4.65,4-5.5c-5.79.14-10.38,2.08-10.66,5.22-.2,2.6,1.36,5,4.7,5.81a33.42,33.42,0,0,0,10.15.3ZM219.69,114c-7.46,2.35-6.1-13.42-5.79-17.65C215.23,100,225.78,111,219.69,114Zm-4.87,2.62.27.28a5.35,5.35,0,0,0,4.15,1.67,5,5,0,0,0,1.81-.48c4-1.74,4.22-4.74,3.3-7.68.38.38.75.72,1.16,1.1,1.8,1.67,1.29,5.08,1.29,8.05,0,2.56.68,4.74-.3,6.25-1.43,2.15-6.57,1.36-7.6.75-2.07-1.2-3.33-5.23-4.08-9.94ZM200.28,114c7.52,2.39,6.33-13.52,6.06-17.72C205,99.92,194.15,111,200.28,114Zm5.14,2.28a8.23,8.23,0,0,1-.58.62,5.35,5.35,0,0,1-4.15,1.67,5.09,5.09,0,0,1-1.81-.48c-3.95-1.7-4.19-4.57-3.37-7.47-.27.27-.54.51-.82.78-1.8,1.68-1.29,5.09-1.29,8.06,0,2.56-.68,4.74.31,6.24,1.43,2.15,6.57,1.37,7.59.75,2.15-1.22,3.37-5.35,4.12-10.17Zm7-45.46a.24.24,0,0,1,.24.24.24.24,0,1,1-.48,0,.24.24,0,0,1,.24-.24Zm-4.77,0a.23.23,0,0,0-.23.24.23.23,0,0,0,.23.23.24.24,0,1,0,0-.47Zm-24.41,37c-.68-.75-2.52.82-4.43,2-1,.65-3.2,1.26-3.74,2-.65.93.13,2.87.82,3.69.91,1.13,3,1.71,4.52-.55a29,29,0,0,0,2.8-4.67,2.62,2.62,0,0,0,0-2.53Zm-7.39-57.37c-.24.65-1.57-.48-3.27-.54s-2.93-.35-2.82-1.54c.17-1.74,6.3,1.4,6.09,2.08Zm22.3,37.13c-.81.28-10.38,3.62-14.91,4.07-2.49.23-3.37-1.44-.58-2.5,3-1.12,8.38-2.18,15.49-1.57Zm8.21-.51c-.27-.75-3.47.65-7,1.71-4,1.26-9,2.35-10.18,3.72-.37.41-.34.65.07,1,1.84,1.68,6.84-1.43,10.59-2.56,3.41-1,7.08-2.18,6.47-3.89Zm-24-35.73c11.54,3.72,21.62,17.54,22.95,25.39C200.18,66.47,189.62,58,182.3,51.32ZM161.6,67.67c.41-7.41,21.62,3.41,21.45,4.78s-14.16.81-17.37.54c-4.08-.31-4.22-2.59-4.08-5.32Zm12.73,30a9.85,9.85,0,0,0-3.33,2.66c-.58.89-.79,1.67.4,2.15,2.18.89,4.84-2.39,8.79-3.58,1.4-.41,6.33-2,5.55-3.14-1.7-2.6-9.5.81-11.41,1.91Zm1-41c1.73-2,8.41-.69,15.56,5.66,9.74,8.64,15.63,19.56,14.64,20.28S169,64.08,175.29,56.68Zm13.51,51.84c-1.8-1.36-3.16-6.55,2.76-11.19,5.21-4.1,11.78-5.64,14.68-5,1,.24-12,20.38-17.44,16.18Zm-1.09,14.33c.89,2.33,4.12,2.6,3.82.21-.1-.82,0-1.47,0-3.52,0-1.16.75-6.17-.17-6-1.77.28-4.36,7.61-3.68,9.35Zm-3.84-9.69c-1.23,1.4-3.41,4.47-3.54,5.63s1.66,1.2,2.41,1.74c3.65,2.63,2.52-.27,3.48-3.2.54-1.71,1.87-2.84,1.73-3.59-.07-.17-3.3-1.47-4.08-.58ZM165.07,54c4,3.59,7.12,8.67,6.68,9.15,0,0-21-2.22-18.09-10.95,1-3,6.41-2.67,11.41,1.8Zm-10-8.6c0,1-.58.41-2.28.41s-3.24-.06-3.1-1.26,5.38-.14,5.38.85Zm12.74,1.81c0,1.1-.65.41-2.52.34s-3.55-.2-3.34-1.5,5.89.07,5.86,1.16Zm16.95,52.94c-.92-1-4.76,1-7.18,2.83-2.22,1.71-5,1.57-5.76,2.83s.28,3.42,1,4.27,4.19-.89,5-1.54c2.58-2,7.86-7.37,6.94-8.39Zm80.43-54.64c0,1,.58.41,2.28.41s3.23-.07,3.1-1.27-5.38-.13-5.38.86Zm-33.44,62.83c1.81-1.37,2.83-6.28-3.1-10.92-5.21-4.1-11.78-5.63-14.67-5-1,.21,12.32,20.07,17.77,15.91Zm.78,14.61c-.88,2.32-4.12,2.59-3.81.2.1-.82,0-1.47,0-3.51,0-1.16-.75-6.18.17-6,1.77.27,4.35,7.57,3.67,9.35Zm3.82-9.7c1.22,1.4,3.4,4.48,3.54,5.64s-1.67,1.19-2.42,1.74c-3.64,2.62-2.52-.28-3.47-3.21-.55-1.71-1.87-2.83-1.74-3.59.07-.17,3.3-1.46,4.09-.58Zm.64-5.35c.69-.75,2.52.81,4.43,2,1,.65,3.24,1.27,3.75,2,.68.92-.14,2.86-.82,3.68-.92,1.13-3,1.71-4.53-.54a29.53,29.53,0,0,1-2.79-4.68c-.48-1.26-.34-2.22,0-2.52Zm-1.53-7.65c.92-1,4.77,1,7.19,2.83,2.21,1.71,5,1.57,5.75,2.87s-.27,3.41-1,4.27-4.18-.89-5-1.54c-2.56-2-7.83-7.41-7-8.43Zm10.42-2.49a10,10,0,0,1,3.34,2.66c.58.89.78,1.67-.41,2.15-2.18.89-4.8-2.39-8.79-3.58-1.39-.41-6.33-2-5.55-3.14,1.74-2.6,9.5.82,11.41,1.91ZM222.1,87.67c.82.27,10.39,3.61,14.92,4.06,2.52.24,3.37-1.44.58-2.49-3-1.13-8.38-2.19-15.5-1.57Zm-8.24-.51c.28-.76,3.48.64,6.95,1.7,4.05,1.26,9,2.36,10.18,3.72.38.41.34.65-.07,1-1.84,1.67-6.84-1.44-10.59-2.56-3.4-1-7.08-2.19-6.47-3.89Zm30.92-30.69c-1.73-2-8.27-.41-15.39,5.94-9.74,8.64-15.63,19.56-14.64,20.27s36.4-18.77,30-26.21Zm-6.88-5C226.36,55.14,216.28,69,215,76.81c5.11-10.24,15.63-18.7,23-25.39Zm20.71,16.35c-.41-7.41-21.63,3.41-21.46,4.78s14.14.82,17.37.54c4.12-.3,4.26-2.59,4.09-5.32Zm-3.48-13.65c-4,3.58-6.47,8.5-6,9,0,0,20.33-2.08,17.4-10.82-1-2.93-6.37-2.66-11.41,1.85Zm-2.72-6.79c0,1.09.65.41,2.52.34s3.54-.21,3.34-1.5-5.9.06-5.86,1.16Zm-8,3.17c.24.65,1.56-.48,3.27-.55s2.92-.34,2.82-1.53c-.2-1.71-6.33,1.43-6.09,2.08Zm18.28-7.71c.14.71.79.47,2.32.41s2.58-.28,2.48-1.37c-.1-1.54-5-.31-4.8,1Zm-33.84,85.87c-.41.2-1.23.27-1.57.41s-.58.17-.58.58c0,.2.17.34.55.44a6.09,6.09,0,0,0,1.56-.24c.41-.07,1.33-.31,1.13-.82a1,1,0,0,0-1.09-.37Zm5.1-2.32c-.57.51-1.87,1-2.35,1.36s-.81.55-.68,1.2c.07.3.41.51,1.06.47a8.34,8.34,0,0,0,2.38-1.05c.65-.31,2-1.06,1.43-1.78a1.36,1.36,0,0,0-1.84-.2Zm5.11-2.84c-.51.58-2,1.13-2.38,1.61-1,1-.34,1.81.78,1.6a9.16,9.16,0,0,0,2.25-1.3c.61-.37,1.87-1.29,1.22-1.94a1.36,1.36,0,0,0-1.87,0Zm3.88-3.51c-.34,1.16-1.32,2.49-.81,2.86s1.73-1.29,2.11-1.91,1-1.6.1-1.91a1.19,1.19,0,0,0-1.4,1Zm4.12-3.45c-.34,1.16-1.8,2-1.5,2.22.55.48,2.05-1.16,2.42-1.74s.79-1.26-.1-1.57c-.44-.14-.58.27-.82,1.09Zm2-4.88c-.34,1.16-.68,1.33-.41,1.54.54.47,1.12-.45,1.5-1s.78-1.26-.1-1.57c-.45-.13-.75.24-1,1.06Zm1.84-10.27c0,2.18.51,2.25,1,2a3,3,0,0,0,.89-2.49c-.14-1-1.4-2.43-2.56-1.95-.58.24.72,1.3.72,2.46Zm-.28,5c.34,1.57,0,2,.51,2.08,1,.2,1-1.23,1.09-2.15s.11-2-1.09-1.78c-.61.11-.74.69-.51,1.85Zm-29.24,23.78c-.55,0-1.06-.06-1.16.48a1.11,1.11,0,0,0,1,1.2c.54,0,1.12-.34,1.12-.82a.88.88,0,0,0-.95-.86Zm3.88.82c-.55,0-1.33.21-1.43.75s.75,1.06,1.29,1.06,1.16-.37,1.16-.85a1,1,0,0,0-1-1Zm3.27,0a1.1,1.1,0,0,0-1.13.88c-.1.55.45.89,1,.89a1,1,0,0,0,1-.89.83.83,0,0,0-.85-.88Zm3.71-.86c-1.64-.13-1.77,2-.21,2A1.24,1.24,0,0,0,233.1,131a.84.84,0,0,0-.88-.89Zm2.76-1a1.09,1.09,0,0,0-1.13.92c-.13.51.48,1,1,1a1,1,0,0,0,1-1c.06-.51-.21-.85-.85-.92Zm3-1.71a1.1,1.1,0,0,0-1.13.89c-.1.55.44.89,1,.89a1,1,0,0,0,1-.89.82.82,0,0,0-.85-.89Zm2.48-1.5a.77.77,0,0,0-.82.85.85.85,0,0,0,.82,1,1,1,0,0,0,1-.89,1,1,0,0,0-1-.92Zm2.73-2.42c-.55,0-.82.27-1,.82a.78.78,0,0,0,.82,1,1,1,0,0,0,1-.89c0-.55-.24-.92-.78-.92Zm11.33-21.88a1.1,1.1,0,0,0-1.12.89c-.1.54.44.92,1,.92a1,1,0,0,0,1-.89.83.83,0,0,0-.86-.92Zm.17,3.21c-.64,0-.81.37-.92.89a.79.79,0,0,0,.82.92,1,1,0,0,0,1-.89.83.83,0,0,0-.89-.92Zm-6.94,14c-.55,0-.82.27-1,.82a.78.78,0,0,0,.81,1,1,1,0,0,0,1-.89c0-.51-.24-.92-.78-.92Zm-2.18,2.69c-.55,0-.82.28-1,.82a.78.78,0,0,0,.81,1,1,1,0,0,0,1-.88c0-.52-.24-.93-.78-.93ZM253.77,108a.77.77,0,0,0-.82.86.85.85,0,0,0,.82,1,1,1,0,0,0,1-.88,1,1,0,0,0-1-.93Zm-1,2.8c-.64,0-.81.38-.92.89a.78.78,0,0,0,.82.92,1,1,0,0,0,1-.89.83.83,0,0,0-.89-.92Zm-3.13,5.53a.92.92,0,0,0-1,.89.81.81,0,0,0,.88.92,1,1,0,0,0,1-.89.92.92,0,0,0-.92-.92Zm1.19-2.69a1.14,1.14,0,0,0-.41,1.36.87.87,0,0,0,1.33.17.92.92,0,0,0,.27-1.3.83.83,0,0,0-1.19-.23Zm24.93-71.4a1,1,0,0,0-1.19-.52.81.81,0,0,0-.31,1.16.94.94,0,0,0,1.26.45c.44-.24.48-.62.24-1.09Zm1,1.63a1,1,0,0,0-1.3.07.78.78,0,0,0,.28,1.16.94.94,0,0,0,1.32-.17c.28-.41.14-.75-.3-1.06ZM276.31,46a.92.92,0,0,0-.78,1,.83.83,0,0,0,1,.75,1,1,0,0,0,.82-1.06.87.87,0,0,0-1.06-.72Zm0,3a1.11,1.11,0,0,0-1.13.89c-.1.55.44.92,1,.92a1,1,0,0,0,1-.92.83.83,0,0,0-.85-.89Zm-.65,2.22c-.65-.07-.82.38-.92.89a.77.77,0,0,0,.82.92,1,1,0,0,0,1-.92c0-.48-.23-.82-.88-.89ZM265.65,65c-.54,0-.81.27-1,.82a.78.78,0,0,0,.82,1,1,1,0,0,0,1-.89c0-.55-.24-.92-.79-.92Zm2.59-2.94c-.54,0-.82.28-1,.82a.78.78,0,0,0,.82,1,1,1,0,0,0,1-.88c0-.55-.24-.93-.79-.93Zm6.13-8.26a.77.77,0,0,0-.82.86.85.85,0,0,0,.82.95.91.91,0,1,0,0-1.81Zm-1.19,1.88c-.65-.07-.82.38-.92.89a.77.77,0,0,0,.82.92,1,1,0,0,0,1-.92c0-.51-.23-.85-.88-.89ZM269.74,60a.93.93,0,0,0-.95.89.83.83,0,0,0,.88.92,1,1,0,0,0,1-.89.9.9,0,0,0-.92-.92Zm2-2.19a1.09,1.09,0,0,0-1.12.89c-.11.55.44.89,1,.89a1,1,0,0,0,1-.92.84.84,0,0,0-.85-.86ZM254.62,42.14c-1.56.34-3.74,1.81-3.54,2.52.27,1,2.59,0,3.61-.24s2.55-.68,2.52-1.57c-.07-1.33-1.46-1-2.59-.71Zm4.87-.89c-1.33.92-1.6,2.25-1.26,2.63s1.53-.65,2.42-1,2.21-1.26,1.87-2c-.3-.55-2.08-.28-3,.37Zm11.41-.75c-1.6,0-2.73.34-2.62.82s1.66.78,2.55,1.06,2.32.1,2.45-.75c.14-.62-1.22-1.1-2.38-1.13ZM251.39,90.12c.13-2.52-7.32-.47-8.58.14,3.06,1.37,8.48,1.47,8.58-.14Zm4.39-2.66c-.41-.61-1.5-.27-2.38.38-1.4,1-.89,2.25-.14,2.25,1.63-.07,3.13-1.74,2.52-2.63Zm2.28-3.89c-.54-.14-1,.21-1.26,1.3-.44,1.67.34,1.77.92,1.3.78-.69,1.4-2.33.34-2.6Zm.07-4.2c-.51.28-.61.79-.14,1.81.72,1.57,1.43,1.09,1.54.38.17-1.06-.45-2.7-1.4-2.19Zm-1.46-2.49c-.11.58.54,1.13,1.43,1.4,2.17.58,1.77-1.33.23-1.74-.44-.14-1.6-.27-1.66.34Zm4.25-2.69c.27-.89.1-1.1-.24-1.3a1.76,1.76,0,0,0-2,.75c-1.53,2,1.4,3.34,2.28.55Zm1.6-8.71c-1.36.17-.71,1.85-.88,2.7s-.75,2.93.4,2.9c.38,0,1.23-1.43,1.44-2.83s-.28-2.87-1-2.77Zm10.86-21.67c-1.19.17-1.87.61-1.87,1.47,0,.58,1.09.78,2,.65,1.33-.21,1.3-2.32-.17-2.12Zm-9,17.27c-1.66-.41-2.28-.14-2.35.38s.69,1.57,1.54,2,1.87.55,2.24-.71c.21-.58-.23-1.4-1.43-1.71Zm2.39-3.65c-1.13,1.16-1.19,1.81-.79,2.08a2.62,2.62,0,0,0,2.39-.31c.82-.47,1.33-1.29.47-2.18-.4-.41-1.26-.45-2.07.41Zm3.4-5c-1.77.48-2.21,1.06-2,1.6a3.1,3.1,0,0,0,2.52,1.13c1.09,0,2.05-.48,1.74-1.84-.14-.72-.95-1.23-2.25-.89Zm2.32-4.95c-1.7.45-2.15,1-1.94,1.54A3,3,0,0,0,273,50.09c1.05,0,2-.44,1.7-1.77-.17-.69-1-1.16-2.21-.86ZM261.3,48.9c3.26-1,2-3.79-.28-3.28-3.78.78-2.79,4.2.28,3.28Zm5.85.81c3.41-.13,2.86-3.14.55-3.24-3.82-.13-3.71,3.38-.55,3.24Zm-13.21,2.53c4.16-.17,4.16-2.76,1.23-2.9-4.06-.21-4.8,3-1.23,2.9Zm-14.16-1.77c.17.27,2-1.23,3.95-2.36s4-1.91,3.64-2.7c-.61-1.5-8.24,4.07-7.59,5.06ZM157.31,43c-.14.71-.79.47-2.32.4s-2.58-.27-2.48-1.36c.13-1.5,5-.27,4.8,1Zm34.18,85.59a14.68,14.68,0,0,0,1.57.41c.34.17.58.17.58.58,0,.21-.17.34-.55.45a6.56,6.56,0,0,1-1.56-.24c-.41-.07-1.33-.31-1.13-.82a.94.94,0,0,1,1.09-.38Zm-5.14-2.28c.58.51,1.88,1,2.35,1.36s.82.55.65,1.2c-.07.3-.41.51-1.06.47a8.34,8.34,0,0,1-2.38-1.05c-.65-.31-2-1.06-1.43-1.78a1.34,1.34,0,0,1,1.87-.2Zm-5.1-2.87c.51.58,2,1.13,2.38,1.6,1,1,.3,1.81-.78,1.61a8.6,8.6,0,0,1-2.25-1.3c-.61-.38-1.87-1.3-1.23-1.95a1.37,1.37,0,0,1,1.88,0ZM177.36,120c.34,1.16,1.3,2.5.82,2.87s-1.74-1.3-2.11-1.91-1-1.6-.1-1.91a1.19,1.19,0,0,1,1.39,1Zm-4.12-3.44c.34,1.16,1.81,2,1.5,2.21-.54.48-2-1.16-2.42-1.74s-.78-1.26.11-1.57c.44-.13.57.28.81,1.1Zm-2-4.88c.34,1.16.68,1.33.41,1.53-.55.48-1.13-.44-1.47-1s-.78-1.26.11-1.57c.4-.1.71.24,1,1.06Zm-1.84-10.28c0,2.19-.51,2.26-1,2a3,3,0,0,1-.89-2.49c.14-1,1.4-2.42,2.55-1.94.58.23-.71,1.29-.71,2.45Zm.27,5c-.34,1.57,0,2-.51,2.08-.95.21-1-1.22-1.09-2.15s-.1-2,1.09-1.77c.61.1.75.68.51,1.84ZM199,130.09c.55,0,1.06-.07,1.16.48a1.1,1.1,0,0,1-1,1.19c-.54,0-1.12-.34-1.12-.82a.87.87,0,0,1,.95-.85Zm-3.88.82c.54,0,1.33.2,1.43.75s-.75,1.06-1.29,1.06-1.16-.38-1.16-.86a1,1,0,0,1,1-1Zm-3.27,0a1.09,1.09,0,0,1,1.12.89c.11.55-.44.89-1,.89a1,1,0,0,1-1-.89.83.83,0,0,1,.85-.89Zm-3.68-.85c1.64-.14,1.77,2,.21,2a1.23,1.23,0,0,1-1.09-1.12.82.82,0,0,1,.88-.89Zm-2.79-1a1.08,1.08,0,0,1,1.12.93c.11.47-.47,1-1,1a1,1,0,0,1-1-1c-.07-.52.2-.86.85-.93Zm-3-1.7a1.09,1.09,0,0,1,1.12.89c.11.54-.44.88-1,.88a1,1,0,0,1-1-.88.83.83,0,0,1,.85-.89Zm-2.49-1.5a.76.76,0,0,1,.82.85.85.85,0,0,1-.82,1,1,1,0,0,1-1-.89,1,1,0,0,1,1-.92Zm-2.72-2.43c.55,0,.82.28,1,.82a.78.78,0,0,1-.81,1,1,1,0,0,1-1-.89c0-.47.24-.92.78-.92Zm-11.34-21.87a1.11,1.11,0,0,1,1.13.88c.1.55-.45.89-1,.89a1,1,0,0,1-1-.89.81.81,0,0,1,.85-.88Zm-.17,3.2c.65,0,.82.38.92.89a.78.78,0,0,1-.82.92,1,1,0,0,1-1-.88.84.84,0,0,1,.88-.93Zm6.95,14c.54,0,.82.28,1,.82a.78.78,0,0,1-.82,1,1,1,0,0,1-1-.89c0-.51.23-.92.78-.92Zm2.18,2.73c.54,0,.81.28,1,.82a.78.78,0,0,1-.82,1,1,1,0,0,1-1-.88c0-.55.24-.93.79-.93Zm-8.14-13.58a.77.77,0,0,1,.82.85.85.85,0,0,1-.82,1,.91.91,0,1,1,0-1.81Zm1,2.8c.65,0,.82.37.92.89a.78.78,0,0,1-.81.92,1,1,0,0,1-1-.89.85.85,0,0,1,.88-.92Zm3.14,5.53a.92.92,0,0,1,1,.89.82.82,0,0,1-.89.92,1,1,0,0,1-1-.89.89.89,0,0,1,.92-.92Zm-1.2-2.66a1.11,1.11,0,0,1,.41,1.36c-.2.48-.88.48-1.33.17a.93.93,0,0,1-.27-1.3.77.77,0,0,1,1.19-.23ZM144.27,42.45a1,1,0,0,1,1.19-.52.82.82,0,0,1,.31,1.16.94.94,0,0,1-1.26.45c-.48-.24-.52-.62-.24-1.09Zm-1,1.63a1,1,0,0,1,1.29.07.78.78,0,0,1-.27,1.16,1,1,0,0,1-1.33-.17c-.27-.41-.14-.75.31-1.06Zm.44,2.15a.92.92,0,0,1,.78,1,.83.83,0,0,1-1,.75,1,1,0,0,1-.82-1.06.9.9,0,0,1,1.06-.72Zm0,3a1.1,1.1,0,0,1,1.13.89c.1.55-.44.92-1,.92a1,1,0,0,1-1-.92.86.86,0,0,1,.85-.89Zm.69,2.22c.64-.07.81.38.91.89a.77.77,0,0,1-.81.92,1,1,0,0,1-1-.92c0-.48.24-.82.89-.89Zm10,13.86c.54,0,.81.27,1,.82a.78.78,0,0,1-.82,1,1,1,0,0,1-1-.89c0-.51.24-.92.79-.92Zm-2.59-2.94c.54,0,.82.28,1,.82a.78.78,0,0,1-.82,1,1,1,0,0,1-1-.89.82.82,0,0,1,.79-.92Zm-6.1-8.26a.76.76,0,0,1,.82.86.84.84,0,0,1-.82,1,.91.91,0,1,1,0-1.81ZM146.85,56c.65-.07.82.38.92.89a.77.77,0,0,1-.81.92,1,1,0,0,1-1-.92c0-.48.24-.82.88-.89Zm3.41,4.27a.93.93,0,0,1,1,.88.83.83,0,0,1-.88.93,1,1,0,0,1-1-.89.89.89,0,0,1,.92-.92Zm-2-2.15a1.1,1.1,0,0,1,1.13.88c.1.55-.44.93-1,.93a1,1,0,0,1-1-.93.81.81,0,0,1,.85-.88Zm17.1-15.7c1.56.34,3.71,1.81,3.54,2.52-.27,1-2.59,0-3.61-.24s-2.55-.68-2.49-1.57c0-1.33,1.43-1,2.56-.71Zm-4.84-.86c1.3.93,1.6,2.26,1.26,2.63s-1.53-.65-2.41-.95-2.22-1.27-1.88-2.05c.27-.58,2.08-.31,3,.37Zm-11.4-.75c1.6,0,2.72.34,2.62.82s-1.67.79-2.56,1.06-2.31.1-2.45-.75c-.13-.62,1.23-1.13,2.39-1.13Zm19.47,49.59c-.13-2.52,7.32-.47,8.58.14-3.06,1.36-8.48,1.47-8.58-.14Zm-4.36-2.62c.41-.62,1.5-.28,2.39.37,1.39,1,.88,2.25.13,2.25-1.66-.1-3.13-1.77-2.52-2.62Zm-2.31-3.9c.58-.13,1,.21,1.26,1.3.44,1.67-.38,1.78-.92,1.3-.78-.72-1.36-2.36-.34-2.6Zm-.07-4.23c.51.28.61.79.14,1.81-.72,1.57-1.43,1.09-1.54.38-.17-1.06.45-2.67,1.4-2.19Zm1.5-2.49c.1.58-.55,1.13-1.43,1.4-2.18.58-1.77-1.33-.24-1.74.44-.14,1.57-.27,1.67.34Zm-4.26-2.7c-.27-.88-.1-1.09.24-1.29a1.76,1.76,0,0,1,2,.75c1.54,2-1.43,3.38-2.28.54Zm-1.6-8.7c1.36.17.72,1.84.89,2.7s.75,2.93-.41,2.9c-.38,0-1.23-1.43-1.43-2.83s.24-2.84.95-2.77ZM146.62,44.08c1.19.17,1.87.62,1.9,1.47,0,.58-1.09.79-2,.65-1.33-.21-1.33-2.36.14-2.12Zm9,17.27c1.63-.41,2.28-.13,2.35.38s-.68,1.57-1.53,2.05-1.88.54-2.25-.72c-.24-.61.2-1.4,1.43-1.71Zm-2.38-3.68c1.12,1.16,1.19,1.81.78,2.08a2.59,2.59,0,0,1-2.38-.31c-.82-.48-1.33-1.3-.48-2.18.41-.41,1.26-.41,2.08.41Zm-3.41-5c1.77.48,2.21,1.06,2,1.6a3.1,3.1,0,0,1-2.52,1.13c-1.09,0-2.05-.48-1.74-1.84.14-.72,1-1.23,2.28-.89Zm-2.31-4.91c1.7.44,2.14,1,1.94,1.53A3,3,0,0,1,147,50.36c-1.06,0-2-.44-1.71-1.77.17-.68,1-1.2,2.22-.85Zm11.2,1.39c-3.27-1-2-3.78.27-3.27,3.75.82,2.79,4.2-.27,3.27Zm-5.89.82c-3.41-.13-2.86-3.14-.55-3.24,3.85-.14,3.75,3.38.55,3.24Zm13.21,2.53c-4.16-.17-4.16-2.77-1.23-2.9,4.06-.21,4.8,3.07,1.23,2.9Zm14.2-1.78c-.17.28-2-1.22-4-2.35s-4-1.91-3.64-2.7c.61-1.46,8.27,4.06,7.63,5.05Z"></path><path class="cls-1" d="M96.26,194.9l5.8-6.92c4.44,3.84,9.49,6.16,15.44,6.16,5,0,7.64-2.32,7.64-5.27,0-3.35-2.73-4.38-9.9-6-9.9-2.26-16.93-5.07-16.93-14.17,0-8.7,7.1-14.65,17.34-14.65a27.08,27.08,0,0,1,18.37,6.5l-5.26,7.26a21.65,21.65,0,0,0-13.38-5.2c-4.3,0-6.9,2.25-6.9,5.06,0,3.42,2.8,4.52,10,6.16,10.11,2.26,16.8,5.27,16.8,14,0,9-6.76,14.92-18.23,14.92A30.11,30.11,0,0,1,96.26,194.9Z"></path><path class="cls-1" d="M174.65,194.48h-20.9l-3,7.4H139.48l19.12-47h11.27l19.12,47H177.66Zm-3.48-8.55-7-17.18-7,17.18Z"></path><path class="cls-1" d="M192.13,194.9l5.81-6.92c4.44,3.84,9.49,6.16,15.43,6.16,5,0,7.65-2.32,7.65-5.27,0-3.35-2.73-4.38-9.9-6-9.91-2.26-16.94-5.07-16.94-14.17,0-8.7,7.1-14.65,17.35-14.65a27.1,27.1,0,0,1,18.37,6.5l-5.26,7.26a21.69,21.69,0,0,0-13.39-5.2c-4.3,0-6.89,2.25-6.89,5.06,0,3.42,2.8,4.52,10,6.16,10.1,2.26,16.79,5.27,16.79,14,0,9-6.76,14.92-18.23,14.92A30.11,30.11,0,0,1,192.13,194.9Z"></path><path class="cls-1" d="M236,194.9l5.8-6.92c4.44,3.84,9.5,6.16,15.44,6.16,5.05,0,7.65-2.32,7.65-5.27,0-3.35-2.73-4.38-9.91-6-9.9-2.26-16.93-5.07-16.93-14.17,0-8.7,7.1-14.65,17.34-14.65a27.13,27.13,0,0,1,18.38,6.5l-5.26,7.26a21.69,21.69,0,0,0-13.39-5.2c-4.3,0-6.9,2.25-6.9,5.06,0,3.42,2.8,4.52,10,6.16,10.11,2.26,16.8,5.27,16.8,14,0,9-6.76,14.92-18.23,14.92A30.11,30.11,0,0,1,236,194.9Z"></path><path class="cls-1" d="M297,184.9l-18.37-30.05H290.4l11.67,20.6,12.16-20.6H325.5L307.2,184.9v17H297Z"></path><path class="cls-1" d="M69.52,219.44h10L94.11,246l14.48-26.56h10.1v47h-10.1v-29.3L94.11,263.73,79.56,237.17v29.3h-10Z"></path><path class="cls-1" d="M160.41,259.08H139.52l-3,7.39H125.24l19.13-47h11.26l19.13,47H163.42Zm-3.48-8.56-7-17.18-7,17.18Z"></path><path class="cls-1" d="M177.89,259.49l5.81-6.91c4.44,3.83,9.49,6.16,15.43,6.16,5.06,0,7.65-2.33,7.65-5.27,0-3.36-2.73-4.39-9.9-6-9.9-2.26-16.94-5.06-16.94-14.17,0-8.69,7.1-14.65,17.35-14.65a27,27,0,0,1,18.37,6.51l-5.26,7.25a21.75,21.75,0,0,0-13.39-5.2c-4.3,0-6.89,2.26-6.89,5.07,0,3.42,2.8,4.51,10,6.16,10.1,2.25,16.8,5.27,16.8,14,0,9-6.76,14.92-18.24,14.92A30.14,30.14,0,0,1,177.89,259.49Z"></path><path class="cls-1" d="M221.8,259.49l5.81-6.91c4.44,3.83,9.49,6.16,15.43,6.16,5.05,0,7.65-2.33,7.65-5.27,0-3.36-2.73-4.39-9.9-6-9.91-2.26-16.94-5.06-16.94-14.17,0-8.69,7.1-14.65,17.35-14.65a27.06,27.06,0,0,1,18.37,6.51l-5.26,7.25a21.75,21.75,0,0,0-13.39-5.2c-4.3,0-6.9,2.26-6.9,5.07,0,3.42,2.81,4.51,10,6.16,10.11,2.25,16.8,5.27,16.8,14,0,9-6.76,14.92-18.23,14.92A30.11,30.11,0,0,1,221.8,259.49Z"></path><path class="cls-1" d="M278.89,228.55v9.38h23.56V247H278.89v10.34h26v9.1H268.78v-47h36.13v9.11Z"></path><path class="cls-1" d="M327.24,249.5l-18.37-30.06h11.74l11.68,20.61,12.16-20.61h11.27L337.41,249.5v17H327.24Z"></path><path class="cls-1" d="M73.82,297.79A24.8,24.8,0,0,1,71.11,302c-.79.92-1.43,1.38-1.93,1.38-.68,0-1-.79-1-2.36a12.06,12.06,0,0,1,.65-4.11,10.38,10.38,0,0,1,1.83-3.23,11.14,11.14,0,0,1,2.79-2.4A17.38,17.38,0,0,1,77,289.59a23.58,23.58,0,0,1,4.06-.94,31.76,31.76,0,0,1,4.4-.31,36.32,36.32,0,0,1,5.29.39,40.36,40.36,0,0,1,5.1,1.08,31,31,0,0,1,4.56,1.69,19.55,19.55,0,0,1,3.69,2.19,10.34,10.34,0,0,1,2.47,2.59,5.34,5.34,0,0,1,.9,2.91,8.67,8.67,0,0,1-.78,3.56,8.91,8.91,0,0,1-2.45,3.17,13.26,13.26,0,0,1-4.26,2.33,19.76,19.76,0,0,1-6.23,1,10,10,0,0,1,4,.75,8.56,8.56,0,0,1,2.89,2,8.4,8.4,0,0,1,1.75,3.06,11.7,11.7,0,0,1,.58,3.61,11.24,11.24,0,0,1-.4,2.94,11.7,11.7,0,0,1-1.19,2.87,12.27,12.27,0,0,1-2,2.58,12.08,12.08,0,0,1-2.79,2.1,14.94,14.94,0,0,1-3.6,1.42,17.77,17.77,0,0,1-4.4.51,30.1,30.1,0,0,1-3.19-.18c-1.11-.12-2.24-.29-3.38-.5s-2.27-.45-3.37-.74-2.14-.6-3.12-.93a3.94,3.94,0,0,1-1.15-.45,1.14,1.14,0,0,1-.5-1.08c0-2.61.06-5.29.2-8a81.56,81.56,0,0,1,.8-8.14,39.82,39.82,0,0,1,1.63-7,24.57,24.57,0,0,1,2.91-5.79,5.38,5.38,0,0,1,3-1.15A3.32,3.32,0,0,1,85.3,299a15.68,15.68,0,0,0-1.83,3.27,28,28,0,0,0-1.16,3.19,29.83,29.83,0,0,0-.71,3.45c-.21,1.38-.37,2.72-.5,4-.07.74-.14,1.56-.19,2.47s-.11,1.79-.16,2.66-.08,1.73-.1,2.59,0,1.68,0,2.47v.53a4.2,4.2,0,0,0,.06.69,5.38,5.38,0,0,0,.15.66,1,1,0,0,0,.28.44,27.59,27.59,0,0,0,3.05.81,16.47,16.47,0,0,0,3.26.33,15,15,0,0,0,3.85-.49,9.47,9.47,0,0,0,3.3-1.55,7.78,7.78,0,0,0,2.32-2.72,9,9,0,0,0,.87-4.23,4.69,4.69,0,0,0-.51-2.3,4.85,4.85,0,0,0-1.34-1.54,7.06,7.06,0,0,0-1.89-1c-.7-.25-1.42-.47-2.16-.67l-2.17-.58a9.2,9.2,0,0,1-1.88-.72,4.3,4.3,0,0,1-1.34-1.09A2.69,2.69,0,0,1,86,308a5.3,5.3,0,0,1,.06-.85,1,1,0,0,1,.27-.59,1.3,1.3,0,0,1,.66-.35,4.51,4.51,0,0,1,1.17-.12c.67,0,1.28,0,1.83.08a16.53,16.53,0,0,0,1.78.08,13.71,13.71,0,0,0,4-.55,9.76,9.76,0,0,0,3.07-1.49,6.66,6.66,0,0,0,2-2.19,5.46,5.46,0,0,0,.69-2.68,3,3,0,0,0-.54-1.72,5.38,5.38,0,0,0-1.5-1.41,11.15,11.15,0,0,0-2.27-1.08,19.83,19.83,0,0,0-2.84-.79,28.67,28.67,0,0,0-3.24-.47c-1.13-.1-2.28-.15-3.44-.15a37.78,37.78,0,0,0-4.38.19,24.6,24.6,0,0,0-4,.74A14.47,14.47,0,0,0,76,296,6.64,6.64,0,0,0,73.82,297.79Z"></path><path class="cls-1" d="M112.49,328.86a3.24,3.24,0,0,1-2.33-1.09,9.43,9.43,0,0,1-1.88-2.93,19.72,19.72,0,0,1-1.25-4.26,27.78,27.78,0,0,1-.45-5.09,36.9,36.9,0,0,1,.67-6.11c.45-2.55.67-3.83.67-3.83l1-3.82a43.39,43.39,0,0,1,2-6.12,38.65,38.65,0,0,1,2.22-4.31,23.53,23.53,0,0,1,2.52-3.5,11.54,11.54,0,0,1,2.75-2.34,5.61,5.61,0,0,1,2.91-.85,3.5,3.5,0,0,1,1.78.41,3.13,3.13,0,0,1,1.11,1.09,4.86,4.86,0,0,1,.56,1.54,9.16,9.16,0,0,1,.17,1.74,20.15,20.15,0,0,1-.53,4.5,32.94,32.94,0,0,1-1.4,4.59c-.59,1.55-1.27,3.09-2,4.64s-1.59,3.09-2.43,4.61-1.68,3-2.53,4.51-1.63,2.92-2.34,4.33a6.06,6.06,0,0,0-.25.62q-.12.38-.24.81t-.24.93c-.07.33-.14.65-.18,1v.33a5.17,5.17,0,0,0,.13,1.19,6.41,6.41,0,0,0,.31,1,3.46,3.46,0,0,0,.4.73c.14.18.27.27.4.27a3.28,3.28,0,0,0,1-.19,10.19,10.19,0,0,0,1.24-.51,15.08,15.08,0,0,0,1.35-.73c.46-.27.91-.55,1.33-.83,1-.66,2.06-1.42,3.15-2.29l2.06,4.92a48,48,0,0,1-4.22,2.53c-.61.31-1.24.62-1.88.92s-1.3.58-2,.82a16.51,16.51,0,0,1-1.92.56A7.94,7.94,0,0,1,112.49,328.86Zm0-18.5c.71-1.25,1.45-2.67,2.24-4.24s1.53-3.18,2.23-4.84,1.3-3.33,1.82-5a23.75,23.75,0,0,0,1-4.63c0-.45,0-.84,0-1.16s-.1-.49-.21-.49a2,2,0,0,0-1.38.89,11.52,11.52,0,0,0-1.48,2.4,37,37,0,0,0-1.77,4.92l-1,3.41-.63,3.17A38.94,38.94,0,0,0,112.51,310.36Z"></path><path class="cls-1" d="M137.34,307.11c0,.42,0,1-.05,1.72a15.47,15.47,0,0,1-.28,2.37c-.16.85-.35,1.89-.57,3.1s-.42,2.22-.56,3-.28,1.49-.39,2.08a8.33,8.33,0,0,0-.17,1.3c0,.44,0,.84,0,1.21a5,5,0,0,0,.13,1,1.32,1.32,0,0,0,.31.64.82.82,0,0,0,.61.22,4,4,0,0,0,1.25-.26,11.34,11.34,0,0,0,1.56-.69c.55-.29,1.11-.62,1.69-1s1.12-.75,1.64-1.15,1-.81,1.42-1.21a9.16,9.16,0,0,0,1-1.12c0,.52,0,1,0,1.41s0,.82,0,1.21,0,.77,0,1.18,0,.86,0,1.36a11.59,11.59,0,0,1-1.27,1.08,18.16,18.16,0,0,1-1.68,1.15q-.92.58-2,1.11a22.62,22.62,0,0,1-2.09.93,16,16,0,0,1-2,.65,8,8,0,0,1-1.86.24,3,3,0,0,1-1.48-.35,3.26,3.26,0,0,1-1.07-1,5.77,5.77,0,0,1-.75-1.49,13.85,13.85,0,0,1-.54-1.92,19,19,0,0,1-1.77,2,14.86,14.86,0,0,1-1.9,1.58,9.13,9.13,0,0,1-2,1,5.43,5.43,0,0,1-1.93.38,4,4,0,0,1-1.43-.26,3,3,0,0,1-1.2-.86,4.38,4.38,0,0,1-.82-1.6,8.61,8.61,0,0,1-.3-2.46,19.58,19.58,0,0,1,.46-4.69,48.47,48.47,0,0,0,1.3-7.1c0-.23.1-.54.18-.94a9.93,9.93,0,0,1,.33-1.3,12.54,12.54,0,0,1,.55-1.42,6.42,6.42,0,0,1,.76-1.31,3.94,3.94,0,0,1,1-1,2.56,2.56,0,0,1,1.34-.39,3.78,3.78,0,0,1,1.77.4,1,1,0,0,1,.53.84c-.14,1.05-.29,2.06-.47,3s-.35,1.94-.52,2.93-.37,2.07-.59,3.27-.39,2.17-.52,2.9-.23,1.31-.31,1.76-.12.68-.12.69a3.71,3.71,0,0,0,.08.83,2.47,2.47,0,0,0,.24.71,1.51,1.51,0,0,0,.42.51,1,1,0,0,0,.61.19,2.34,2.34,0,0,0,1.05-.27,3.56,3.56,0,0,0,1-.8,4.53,4.53,0,0,0,.86-1.23,6.48,6.48,0,0,0,.56-1.71L132.12,307A1.47,1.47,0,0,1,133,306a4.07,4.07,0,0,1,1.81-.38,3.43,3.43,0,0,1,1.82.42A1.23,1.23,0,0,1,137.34,307.11Z"></path><path class="cls-1" d="M150.25,328.86a8.48,8.48,0,0,1-3.81-.81,7.8,7.8,0,0,1-2.71-2.17,9.41,9.41,0,0,1-1.64-3.16,13,13,0,0,1-.54-3.76,11.79,11.79,0,0,1,.49-3.08c.32-1.19.66-2.25,1-3.17a15,15,0,0,1,1.31-2.63,10.77,10.77,0,0,1,1.84-2.22,8.8,8.8,0,0,1,2.37-1.52,7.35,7.35,0,0,1,2.9-.56,6.89,6.89,0,0,1,2.43.42,5.88,5.88,0,0,1,1.94,1.18,5.13,5.13,0,0,1,1.3,1.83,5.94,5.94,0,0,1,.46,2.4,6.81,6.81,0,0,1-.94,3.17,12.81,12.81,0,0,1-2.21,3,14,14,0,0,1-3,2.24,16.47,16.47,0,0,1-3.76,1.53,6.43,6.43,0,0,0,.69,1,2.72,2.72,0,0,0,.69.64,2.06,2.06,0,0,0,.73.32,3.64,3.64,0,0,0,.83.09,9,9,0,0,0,2.95-.54,20.81,20.81,0,0,0,3-1.37,26.82,26.82,0,0,0,2.77-1.79,24.66,24.66,0,0,0,2.22-1.84l3,3.06a32.23,32.23,0,0,1-4.36,3.87c-.66.48-1.38,1-2.15,1.41a19,19,0,0,1-2.42,1.24,16.88,16.88,0,0,1-2.63.87A12.24,12.24,0,0,1,150.25,328.86Zm-3.11-11.11a4.75,4.75,0,0,0,1.83-.43,8.15,8.15,0,0,0,1.85-1.08,8.5,8.5,0,0,0,1.67-1.78,3.41,3.41,0,0,0,.82-1.85,3.3,3.3,0,0,0-.39-1.69,1.1,1.1,0,0,0-.94-.66,3.64,3.64,0,0,0-1.72.37,3.71,3.71,0,0,0-1.19.94,4.73,4.73,0,0,0-.77,1.33c-.2.49-.43,1.1-.68,1.83a6.88,6.88,0,0,0-.43,1.81C147.15,317,147.14,317.41,147.14,317.75Z"></path><path class="cls-1" d="M171.8,297.79a25.51,25.51,0,0,1-2.7,4.16c-.8.92-1.44,1.38-1.94,1.38-.68,0-1-.79-1-2.36a12.31,12.31,0,0,1,.65-4.11,10.79,10.79,0,0,1,1.83-3.23,11.14,11.14,0,0,1,2.79-2.4,17.38,17.38,0,0,1,3.54-1.64,23.48,23.48,0,0,1,4.07-.94,31.54,31.54,0,0,1,4.4-.31,36.29,36.29,0,0,1,5.28.39,40.36,40.36,0,0,1,5.1,1.08,31,31,0,0,1,4.56,1.69,20,20,0,0,1,3.7,2.19,10.29,10.29,0,0,1,2.46,2.59,5.34,5.34,0,0,1,.9,2.91,8.67,8.67,0,0,1-.78,3.56,8.88,8.88,0,0,1-2.44,3.17,13.21,13.21,0,0,1-4.27,2.33,19.74,19.74,0,0,1-6.22,1,10,10,0,0,1,4,.75,8.56,8.56,0,0,1,2.89,2,8.26,8.26,0,0,1,1.75,3.06,11.41,11.41,0,0,1,.58,3.61,11.24,11.24,0,0,1-.4,2.94,12.07,12.07,0,0,1-1.18,2.87,12.67,12.67,0,0,1-2,2.58,12.08,12.08,0,0,1-2.79,2.1,15,15,0,0,1-3.59,1.42,17.89,17.89,0,0,1-4.4.51,29.81,29.81,0,0,1-3.19-.18c-1.12-.12-2.25-.29-3.39-.5s-2.26-.45-3.37-.74-2.14-.6-3.12-.93a3.94,3.94,0,0,1-1.15-.45,1.16,1.16,0,0,1-.5-1.08q0-3.92.2-8a81.56,81.56,0,0,1,.8-8.14,40.74,40.74,0,0,1,1.63-7,24.57,24.57,0,0,1,2.91-5.79,5.4,5.4,0,0,1,3-1.15,3.31,3.31,0,0,1,2.84,1.92,15.68,15.68,0,0,0-1.83,3.27,26,26,0,0,0-1.15,3.19,27.85,27.85,0,0,0-.71,3.45c-.21,1.38-.38,2.72-.5,4-.08.74-.15,1.56-.2,2.47s-.11,1.79-.15,2.66-.09,1.73-.11,2.59,0,1.68,0,2.47v.53a4.15,4.15,0,0,0,.05.69,4,4,0,0,0,.16.66.86.86,0,0,0,.28.44,26.45,26.45,0,0,0,3,.81,16.29,16.29,0,0,0,3.25.33,15,15,0,0,0,3.85-.49,9.47,9.47,0,0,0,3.3-1.55,7.67,7.67,0,0,0,2.32-2.72,9,9,0,0,0,.87-4.23,4.69,4.69,0,0,0-.51-2.3,4.85,4.85,0,0,0-1.34-1.54,7.15,7.15,0,0,0-1.88-1c-.71-.25-1.43-.47-2.17-.67l-2.16-.58a9.08,9.08,0,0,1-1.89-.72,4.3,4.3,0,0,1-1.34-1.09,2.69,2.69,0,0,1-.51-1.7,5.3,5.3,0,0,1,.06-.85,1,1,0,0,1,.28-.59,1.23,1.23,0,0,1,.65-.35,4.56,4.56,0,0,1,1.17-.12c.67,0,1.28,0,1.83.08a16.65,16.65,0,0,0,1.78.08,13.71,13.71,0,0,0,4-.55,9.81,9.81,0,0,0,3.08-1.49,6.74,6.74,0,0,0,2-2.19,5.46,5.46,0,0,0,.69-2.68,3,3,0,0,0-.54-1.72,5.11,5.11,0,0,0-1.5-1.41,11.15,11.15,0,0,0-2.27-1.08,19.83,19.83,0,0,0-2.84-.79,28.34,28.34,0,0,0-3.24-.47c-1.13-.1-2.28-.15-3.44-.15a37.78,37.78,0,0,0-4.38.19,24.6,24.6,0,0,0-4,.74A14.47,14.47,0,0,0,174,296,6.64,6.64,0,0,0,171.8,297.79Z"></path><path class="cls-1" d="M222.79,307.11c0,.42,0,1,0,1.72a16.83,16.83,0,0,1-.28,2.37c-.16.85-.35,1.89-.58,3.1s-.41,2.22-.56,3-.27,1.49-.39,2.08a8,8,0,0,0-.16,1.3c0,.44,0,.84,0,1.21a4.33,4.33,0,0,0,.12,1,1.42,1.42,0,0,0,.31.64.85.85,0,0,0,.62.22,3.93,3.93,0,0,0,1.24-.26,11.34,11.34,0,0,0,1.56-.69c.55-.29,1.12-.62,1.69-1s1.12-.75,1.64-1.15,1-.81,1.42-1.21a9.32,9.32,0,0,0,1-1.12c0,.52,0,1,0,1.41s0,.82,0,1.21,0,.77,0,1.18,0,.86,0,1.36a13.85,13.85,0,0,1-1.27,1.08c-.51.39-1.07.77-1.68,1.15s-1.27.76-2,1.11a22.45,22.45,0,0,1-2.08.93,16.11,16.11,0,0,1-2.05.65,7.9,7.9,0,0,1-1.85.24,3,3,0,0,1-1.49-.35,3.23,3.23,0,0,1-1.06-1,6.12,6.12,0,0,1-.76-1.49,13.85,13.85,0,0,1-.54-1.92,19,19,0,0,1-1.77,2,13.6,13.6,0,0,1-1.9,1.58,8.9,8.9,0,0,1-2,1,5.42,5.42,0,0,1-1.92.38,4,4,0,0,1-1.44-.26,2.91,2.91,0,0,1-1.19-.86,4.39,4.39,0,0,1-.83-1.6,8.61,8.61,0,0,1-.3-2.46,19.49,19.49,0,0,1,.47-4.69,49.87,49.87,0,0,0,1.3-7.1c0-.23.1-.54.17-.94a9.93,9.93,0,0,1,.33-1.3,12.54,12.54,0,0,1,.55-1.42A6.45,6.45,0,0,1,208,307a3.91,3.91,0,0,1,1-1,2.59,2.59,0,0,1,1.34-.39,3.71,3.71,0,0,1,1.77.4,1,1,0,0,1,.54.84c-.14,1.05-.3,2.06-.47,3s-.35,1.94-.53,2.93-.37,2.07-.59,3.27-.38,2.17-.51,2.9l-.32,1.76c-.08.44-.12.68-.12.69a4.41,4.41,0,0,0,.08.83,2.82,2.82,0,0,0,.25.71,1.51,1.51,0,0,0,.42.51,1,1,0,0,0,.61.19,2.34,2.34,0,0,0,1.05-.27,3.67,3.67,0,0,0,1-.8,4.34,4.34,0,0,0,.87-1.23,6.87,6.87,0,0,0,.56-1.71L217.58,307c.07-.38.37-.69.91-.95a4,4,0,0,1,1.81-.38,3.43,3.43,0,0,1,1.82.42A1.22,1.22,0,0,1,222.79,307.11Z"></path><path class="cls-1" d="M247.24,323.63q-2.24,1.32-4,2.29c-1.16.65-2.2,1.2-3.11,1.64a19,19,0,0,1-2.43,1,6.75,6.75,0,0,1-1.92.32,4.84,4.84,0,0,1-3.1-1.07,8.1,8.1,0,0,1-2.25-3.09,19.57,19.57,0,0,1-1.35-4.89,42,42,0,0,1-.46-6.47c0-.93,0-1.93.12-3s.18-2.1.32-3.15c-.47-.07-.83-.13-1.09-.19l-.82-.18c-.29-.06-.65-.13-1.1-.2s-1.09-.15-1.93-.26a1.85,1.85,0,0,1-.87-.3,1.39,1.39,0,0,1-.45-.52,1.89,1.89,0,0,1-.16-.62c0-.22,0-.4,0-.56a.62.62,0,0,1,.45-.56,4.54,4.54,0,0,1,1.17-.29,12.47,12.47,0,0,1,1.57-.11c.57,0,1.12,0,1.64,0l1.41,0a5.52,5.52,0,0,0,.85,0,53.62,53.62,0,0,1,1.59-6.08,34.93,34.93,0,0,1,2.16-5.24,14.49,14.49,0,0,1,2.62-3.68,4.24,4.24,0,0,1,3-1.38,3.14,3.14,0,0,1,1.83.56,4.92,4.92,0,0,1,1.41,1.49,7.56,7.56,0,0,1,.9,2.18,10.58,10.58,0,0,1,.31,2.6,9.61,9.61,0,0,1-.32,2.36,17.13,17.13,0,0,1-.89,2.54,26.52,26.52,0,0,1-1.31,2.61c-.51.88-1,1.76-1.6,2.63a1.8,1.8,0,0,1,.7,0c.33,0,.7,0,1.13.06l1.39,0,1.44,0,1.3.05c.41,0,.74,0,1,.05a.75.75,0,0,1,.67.52,3.14,3.14,0,0,1,.21,1.24,2.11,2.11,0,0,1-.47,1.42,1.32,1.32,0,0,1-1,.55H236.8c-.46.62-.91,1.23-1.37,1.83s-.89,1.14-1.28,1.62c-.06,1-.11,1.92-.16,2.85,0,.41,0,.82-.05,1.25s0,.85,0,1.27,0,.83,0,1.22,0,.74,0,1.07a8.47,8.47,0,0,0,.23,2.12,4,4,0,0,0,.68,1.42,2.58,2.58,0,0,0,1.09.79,4.1,4.1,0,0,0,1.44.24,4.05,4.05,0,0,0,1.22-.23,12.76,12.76,0,0,0,1.61-.64c.58-.27,1.2-.6,1.84-1s1.28-.78,1.91-1.23,1.23-.91,1.81-1.4a18.65,18.65,0,0,0,1.56-1.5Zm-7.45-29.55a4,4,0,0,0,0-.57,1.9,1.9,0,0,0-.15-.59,1.19,1.19,0,0,0-.36-.47,1.13,1.13,0,0,0-.69-.18c-.41,0-.82.35-1.23,1.06a15.9,15.9,0,0,0-1.19,2.72c-.38,1.11-.74,2.32-1.08,3.65s-.64,2.62-.92,3.87l.7.06.73.06c.46-.78.95-1.63,1.46-2.54s1-1.82,1.37-2.7.74-1.71,1-2.48A6,6,0,0,0,239.79,294.08Z"></path><path class="cls-1" d="M264.8,323.63c-1.5.88-2.82,1.64-4,2.29s-2.2,1.2-3.11,1.64a19,19,0,0,1-2.43,1,6.86,6.86,0,0,1-1.92.32,4.87,4.87,0,0,1-3.11-1.07A8.19,8.19,0,0,1,248,324.7a19.55,19.55,0,0,1-1.36-4.89,42.1,42.1,0,0,1-.45-6.47c0-.93,0-1.93.12-3s.18-2.1.32-3.15c-.47-.07-.83-.13-1.09-.19l-.82-.18-1.1-.2-1.94-.26a1.85,1.85,0,0,1-.86-.3,1.31,1.31,0,0,1-.45-.52,1.67,1.67,0,0,1-.16-.62c0-.22,0-.4,0-.56s.16-.43.46-.56a4.43,4.43,0,0,1,1.17-.29,12.47,12.47,0,0,1,1.57-.11c.57,0,1.12,0,1.64,0l1.4,0a5.67,5.67,0,0,0,.86,0,51.59,51.59,0,0,1,1.59-6.08A33.92,33.92,0,0,1,251,292.1a14.73,14.73,0,0,1,2.61-3.68,4.26,4.26,0,0,1,3-1.38,3.14,3.14,0,0,1,1.83.56,4.92,4.92,0,0,1,1.41,1.49,7.56,7.56,0,0,1,.9,2.18,10.58,10.58,0,0,1,.31,2.6,9.18,9.18,0,0,1-.33,2.36,17.06,17.06,0,0,1-.88,2.54,24.61,24.61,0,0,1-1.32,2.61c-.5.88-1,1.76-1.59,2.63a1.8,1.8,0,0,1,.7,0c.32,0,.7,0,1.13.06l1.38,0,1.45,0,1.3.05,1,.05a.75.75,0,0,1,.68.52,3.14,3.14,0,0,1,.21,1.24,2.11,2.11,0,0,1-.47,1.42,1.33,1.33,0,0,1-1,.55h-9c-.45.62-.91,1.23-1.37,1.83s-.88,1.14-1.27,1.62c-.06,1-.12,1.92-.16,2.85,0,.41,0,.82-.05,1.25s0,.85-.05,1.27,0,.83,0,1.22,0,.74,0,1.07a8.47,8.47,0,0,0,.23,2.12,3.83,3.83,0,0,0,.68,1.42,2.58,2.58,0,0,0,1.09.79,4,4,0,0,0,1.43.24,4.06,4.06,0,0,0,1.23-.23,13.38,13.38,0,0,0,1.61-.64c.58-.27,1.19-.6,1.84-1s1.28-.78,1.91-1.23a22.73,22.73,0,0,0,1.8-1.4,17.38,17.38,0,0,0,1.57-1.5Zm-7.46-29.55q0-.25,0-.57a1.9,1.9,0,0,0-.15-.59,1,1,0,0,0-1.05-.65c-.41,0-.82.35-1.23,1.06a15.9,15.9,0,0,0-1.19,2.72c-.39,1.11-.74,2.32-1.08,3.65s-.64,2.62-.92,3.87c.23,0,.47.05.7.06l.72.06c.47-.78,1-1.63,1.47-2.54s1-1.82,1.36-2.7.74-1.71,1-2.48A6.21,6.21,0,0,0,257.34,294.08Z"></path><path class="cls-1" d="M270.81,328.86a8.47,8.47,0,0,1-3.8-.81,7.83,7.83,0,0,1-2.72-2.17,9.39,9.39,0,0,1-1.63-3.16,13,13,0,0,1-.54-3.76,11.79,11.79,0,0,1,.49-3.08c.32-1.19.66-2.25,1-3.17a15,15,0,0,1,1.31-2.63,10.77,10.77,0,0,1,1.84-2.22,8.75,8.75,0,0,1,2.36-1.52,7.44,7.44,0,0,1,2.91-.56,6.8,6.8,0,0,1,2.42.42,5.82,5.82,0,0,1,1.95,1.18,5.39,5.39,0,0,1,1.3,1.83,5.94,5.94,0,0,1,.46,2.4,6.81,6.81,0,0,1-.94,3.17,12.81,12.81,0,0,1-2.21,3,14,14,0,0,1-3,2.24,16.55,16.55,0,0,1-3.77,1.53,8.13,8.13,0,0,0,.69,1,3.1,3.1,0,0,0,.69.64,2.19,2.19,0,0,0,.74.32,3.64,3.64,0,0,0,.83.09,9,9,0,0,0,2.95-.54,20.81,20.81,0,0,0,3-1.37,26.82,26.82,0,0,0,2.77-1.79,23.09,23.09,0,0,0,2.21-1.84l3,3.06a32.23,32.23,0,0,1-4.36,3.87c-.67.48-1.38,1-2.15,1.41a19,19,0,0,1-2.42,1.24,17.24,17.24,0,0,1-2.63.87A12.26,12.26,0,0,1,270.81,328.86Zm-3.1-11.11a4.75,4.75,0,0,0,1.83-.43,8.37,8.37,0,0,0,1.85-1.08,8.77,8.77,0,0,0,1.67-1.78,3.49,3.49,0,0,0,.82-1.85,3.3,3.3,0,0,0-.39-1.69,1.11,1.11,0,0,0-.95-.66,3.62,3.62,0,0,0-2.9,1.31,5,5,0,0,0-.78,1.33c-.19.49-.42,1.1-.67,1.83a7,7,0,0,0-.44,1.81C267.72,317,267.71,317.41,267.71,317.75Z"></path><path class="cls-1" d="M280.56,324c0-.68,0-1.48.12-2.39s.18-1.87.31-2.88.29-2,.47-3.09.41-2.17.68-3.36.52-2.19.73-3a16.94,16.94,0,0,1,.6-2,6,6,0,0,1,.37-.82,1.84,1.84,0,0,1,.43-.48,1.58,1.58,0,0,1,.61-.23,5.62,5.62,0,0,1,.9-.06,5.73,5.73,0,0,1,.94.06.76.76,0,0,1,.5.28,1.31,1.31,0,0,1,.2.64c0,.28,0,.66,0,1.15s0,1.39-.11,2.45a24.7,24.7,0,0,0-.07,2.77h.25c.31-.62.7-1.43,1.17-2.45a13.21,13.21,0,0,1,1.46-2.52,8.22,8.22,0,0,1,1.75-1.69,3.83,3.83,0,0,1,2.26-.69,2.55,2.55,0,0,1,.86.15,2.33,2.33,0,0,1,.73.44,2.06,2.06,0,0,1,.51.68,2.3,2.3,0,0,1,.18.93,7.27,7.27,0,0,1-.12,1.11c-.07.47-.2,1.09-.37,1.85s-.29,1.39-.37,1.88a7.87,7.87,0,0,0-.12,1.22,5.08,5.08,0,0,0,.17,1.41,2.38,2.38,0,0,0,.43.89,1.49,1.49,0,0,0,.6.48,1.73,1.73,0,0,0,.71.14,5.65,5.65,0,0,0,2.17-.46,16.37,16.37,0,0,0,2-1.05,20.29,20.29,0,0,0,2.14-1.55l-.35,5.47-1.37.88a17.28,17.28,0,0,1-1.65.93,13.64,13.64,0,0,1-1.81.72,6.62,6.62,0,0,1-1.92.29,5,5,0,0,1-2.82-.71,5.27,5.27,0,0,1-1.7-1.87,9.35,9.35,0,0,1-.93-2.59c-.2-1-.37-1.92-.49-2.9h-.37l-4.17,11.64a14.38,14.38,0,0,1-.62,1.51,5.27,5.27,0,0,1-.59,1,1.82,1.82,0,0,1-.65.52,2,2,0,0,1-.77.15,2.58,2.58,0,0,1-1.54-.41,2.52,2.52,0,0,1-.89-1.09,5.24,5.24,0,0,1-.42-1.57A15,15,0,0,1,280.56,324Z"></path><path class="cls-1" d="M322.83,328.86a3,3,0,0,1-2-.8,7.76,7.76,0,0,1-1.67-2.21,16.84,16.84,0,0,1-1.26-3.31,24.91,24.91,0,0,1-.75-4.1,20.6,20.6,0,0,1-2.57.65c-.83.15-1.57.26-2.22.34s-1.5.13-2.18.17a29.82,29.82,0,0,1,1.62,3.19A26.72,26.72,0,0,1,313,326a12.73,12.73,0,0,1,.52,3.56q0,.21-.09.9c0,.46-.12,1-.2,1.68s-.21,1.38-.38,2.16a22.89,22.89,0,0,1-.7,2.39,16.6,16.6,0,0,1-1,2.32,9.44,9.44,0,0,1-1.43,2,6.46,6.46,0,0,1-1.88,1.4,5.37,5.37,0,0,1-2.41.53,4.18,4.18,0,0,1-2.22-.58,5.37,5.37,0,0,1-1.62-1.57,9.84,9.84,0,0,1-1.12-2.3,18.23,18.23,0,0,1-.7-2.78,28.88,28.88,0,0,1-.36-3c-.07-1-.1-2-.1-2.95,0-.08,0-.55.05-1.43s.14-2,.3-3.47.34-3.11.54-5,.43-3.88.66-6,.56-4.29,1-6.5.92-4.37,1.5-6.47a57.4,57.4,0,0,1,2-5.94,27,27,0,0,1,2.52-4.87,12.53,12.53,0,0,1,3.11-3.3,6.39,6.39,0,0,1,3.77-1.21,5.35,5.35,0,0,1,1.66.28,4.36,4.36,0,0,1,1.59.9,5,5,0,0,1,1.2,1.66,6,6,0,0,1,.48,2.55,13.16,13.16,0,0,1-.45,3.16,30.33,30.33,0,0,1-1.24,3.8q-.81,2-1.9,4.22c-.72,1.46-1.52,2.92-2.38,4.37s-1.77,2.88-2.72,4.28-1.92,2.73-2.91,3.95l-.05.38a5.13,5.13,0,0,1,.74-.27,2.1,2.1,0,0,1,.51-.06,2.5,2.5,0,0,1,.53,0l.36.11.34.11a1.25,1.25,0,0,0,.42.06,14.63,14.63,0,0,0,3.47-.38,15.71,15.71,0,0,0,2.74-.91,33.67,33.67,0,0,1,.45-3.73c.24-1.41.56-2.91.95-4.49s.86-3.19,1.41-4.83,1.14-3.25,1.79-4.8a45.13,45.13,0,0,1,2.14-4.41A24.87,24.87,0,0,1,326.2,288a12.24,12.24,0,0,1,2.65-2.45,5.11,5.11,0,0,1,2.82-.9,3.52,3.52,0,0,1,1.78.41,3.05,3.05,0,0,1,1.1,1.07,4.61,4.61,0,0,1,.57,1.52,8.88,8.88,0,0,1,.16,1.72,19.72,19.72,0,0,1-.52,4.46,34.09,34.09,0,0,1-1.4,4.57c-.59,1.52-1.27,3.06-2,4.6s-1.57,3.06-2.41,4.57-1.68,3-2.52,4.48-1.62,2.92-2.34,4.37c-.07.17-.15.37-.24.63a8.42,8.42,0,0,0-.24.84c-.08.3-.16.61-.24.95s-.14.67-.18,1v.33a5.43,5.43,0,0,0,.13,1.22,6.51,6.51,0,0,0,.31,1.07,3.25,3.25,0,0,0,.39.75c.14.18.28.28.4.28a3.32,3.32,0,0,0,1-.2,8.5,8.5,0,0,0,1.24-.54c.43-.22.88-.48,1.34-.77s.9-.58,1.32-.88c1-.69,2-1.5,3.14-2.41l2.05,5.17a45,45,0,0,1-4.2,2.53c-.6.31-1.23.62-1.87.92s-1.29.58-1.94.82a17.59,17.59,0,0,1-1.91.56A7.94,7.94,0,0,1,322.83,328.86ZM306,318.53a18.4,18.4,0,0,0-.17,2.87q-.1,2.88-.27,4c-.11.73-.22,1.55-.32,2.45s-.24,1.78-.41,2.65-.28.74-.31-.34-.05-1.94-.05-2.57c0,2.28.05,4.1.15,5.45a25,25,0,0,0,.36,3.08,3.4,3.4,0,0,0,.5,1.36.8.8,0,0,0,.57.32,1.69,1.69,0,0,0,1.44-.73,2.9,2.9,0,0,0,.59-1.1c0-.25.07-.58.13-1a19.58,19.58,0,0,0,.08-2.1c0-.67,0-1.49-.1-2.47s-.17-2-.29-3.05-.25-2.11-.41-3.17-.32-2-.49-2.82a16,16,0,0,0-.52-2Q306.21,318.53,306,318.53Zm5.62-25.43c-.84,2.25-1.5,4.24-2,5.95s-.84,3.24-1.09,4.57-.45,2.65-.61,4-.33,2.54-.5,3.67q1.32-2.88,2.67-5.69t2.55-5.2q1.2-2.4,1.95-4.23a8.06,8.06,0,0,0,.76-2.79,4.15,4.15,0,0,0-.35-1.95,1,1,0,0,0-.94-.61,2,2,0,0,0-1.52.57A5.19,5.19,0,0,0,311.6,293.1Zm11.62,17.17q1-1.86,2.16-4.21c.74-1.56,1.44-3.17,2.08-4.84s1.22-3.33,1.69-5a26.34,26.34,0,0,0,.91-4.59c0-.45,0-.84,0-1.16s-.1-.48-.22-.48a2.65,2.65,0,0,0-1.75,1.12,13.2,13.2,0,0,0-1.93,3.18,33.18,33.18,0,0,0-1.73,5,42,42,0,0,0-1.16,6.52c0,.16,0,.42,0,.79s0,.79,0,1.24v1.65C323.2,309.78,323.2,310,323.22,310.27Z"></path><path class="cls-1" d="M340,329.26l.51-2.82a12.44,12.44,0,0,1-2.62,1.79,6,6,0,0,1-2.64.68,5.37,5.37,0,0,1-2.18-.46,5.73,5.73,0,0,1-1.87-1.3,6.36,6.36,0,0,1-1.31-2.08,7.55,7.55,0,0,1-.49-2.77,23.66,23.66,0,0,1,.28-3.72c.19-1.13.42-2.52.69-4.18a20.44,20.44,0,0,1,1-3.92c.37-1,.8-1.92,1.28-2.9a3.67,3.67,0,0,1,1.54-1.6,4,4,0,0,1,1.95-.55,2.41,2.41,0,0,1,1.4.41,1.43,1.43,0,0,1,.58,1.27,2.89,2.89,0,0,1-.06.56,3.86,3.86,0,0,1-.19.65,14,14,0,0,0-.69,2.56c-.19,1-.45,2.3-.76,3.94s-.56,2.95-.75,3.92a14.14,14.14,0,0,0-.27,2.57,7.16,7.16,0,0,0,.08,1.15,3.27,3.27,0,0,0,.29,1,1.89,1.89,0,0,0,.56.71,1.4,1.4,0,0,0,.88.27,2.08,2.08,0,0,0,1.56-.75,7.43,7.43,0,0,0,1.21-1.81,13.49,13.49,0,0,0,.83-2.19,13.09,13.09,0,0,0,.41-1.88l1.86-8.73a3.41,3.41,0,0,1,.66-1.4,4.89,4.89,0,0,1,1.09-1,4.82,4.82,0,0,1,1.31-.64,4.33,4.33,0,0,1,1.28-.21,2.18,2.18,0,0,1,1.21.31,1.1,1.1,0,0,1,.49,1,1.92,1.92,0,0,1-.07.49l-.29,1.67c-.12.7-.26,1.49-.41,2.38s-.37,2.14-.65,3.74-.51,2.9-.68,3.88q-.6,3.47-1.2,7.44a15.25,15.25,0,0,0,1.52-1,16,16,0,0,0,1.82-1.56,33.16,33.16,0,0,0,2.24-2.46q1.23-1.49,2.77-3.7l1.11,5.2a9.32,9.32,0,0,1-1.07,1.46c-.46.52-1,1-1.49,1.53a19.88,19.88,0,0,1-1.67,1.43l-1.7,1.35c-.31.26-1.34,1-3.09,2.14a2.33,2.33,0,0,0-.87,1.53c-.16.74-.34,2.11-.54,4.12-.09.57-.15,1-.17,1.32-.09.74-.18,1.45-.27,2.12a17.87,17.87,0,0,1-.45,2.31,17.5,17.5,0,0,1-.77,2.38A11.36,11.36,0,0,1,342,347a9,9,0,0,1-1.59,1.83,6.77,6.77,0,0,1-2.1,1.23,7.62,7.62,0,0,1-2.7.47,8.56,8.56,0,0,1-2.2-.27,6.14,6.14,0,0,1-1.84-.83,4.21,4.21,0,0,1-1.37-1.52,5.42,5.42,0,0,1-.63-2.28,9.16,9.16,0,0,1,1.35-5.22c.57-1,1-1.74,1.21-2.13s.6-1,1.09-1.72a18,18,0,0,1,1.56-2c1.09-1.23,2-2.21,2.69-3S339,330.11,340,329.26Zm.08,5.63a12.69,12.69,0,0,0-3.22,3.73,27,27,0,0,0-2.52,5.23c-.51,1.49-.25,2.24.77,2.24a3.4,3.4,0,0,0,1-.14,2,2,0,0,0,.82-.51,5,5,0,0,0,.65-.79,8.07,8.07,0,0,0,.59-1.21c.21-.52.4-1,.56-1.54s.37-1.18.62-2a8.93,8.93,0,0,0,.31-1.51c.07-.55.15-1.22.24-2S340,335.1,340,334.89Z"></path><path class="cls-1" d="M192.55,364.11a1,1,0,0,0-.84-.71l-4.3-.63a1.44,1.44,0,0,1-1.07-.78l-1.92-3.92a1,1,0,0,0-1.87,0L180.62,362a1.41,1.41,0,0,1-1.07.78l-4.3.63a1,1,0,0,0-.58,1.78l3.12,3.05a1.44,1.44,0,0,1,.4,1.26l-.73,4.3a1,1,0,0,0,.42,1,1,1,0,0,0,1.09.08l3.85-2a1.41,1.41,0,0,1,.66-.17,1.38,1.38,0,0,1,.66.17l3.85,2a1,1,0,0,0,1.51-1.11l-.73-4.3a1.41,1.41,0,0,1,.41-1.26l3.11-3.05A1,1,0,0,0,192.55,364.11Z"></path><path class="cls-1" d="M219.07,364.11a1,1,0,0,0-.84-.71l-4.3-.63a1.44,1.44,0,0,1-1.07-.78l-1.93-3.92a1,1,0,0,0-.93-.58,1,1,0,0,0-.94.58L207.14,362a1.44,1.44,0,0,1-1.07.78l-4.3.63a1,1,0,0,0-.84.71,1,1,0,0,0,.26,1.07l3.12,3.05a1.44,1.44,0,0,1,.4,1.26l-.73,4.3a1,1,0,0,0,.41,1,1,1,0,0,0,1.1.08l3.85-2a1.37,1.37,0,0,1,1.32,0l3.85,2a1,1,0,0,0,1.1-.08,1,1,0,0,0,.41-1l-.73-4.3a1.44,1.44,0,0,1,.4-1.26l3.12-3.05A1,1,0,0,0,219.07,364.11Z"></path><path class="cls-1" d="M245.59,364.11a1,1,0,0,0-.84-.71l-4.3-.63a1.41,1.41,0,0,1-1.07-.78l-1.93-3.92a1,1,0,0,0-.93-.58,1,1,0,0,0-.94.58L233.66,362a1.44,1.44,0,0,1-1.07.78l-4.3.63a1,1,0,0,0-.84.71,1,1,0,0,0,.26,1.07l3.11,3.05a1.41,1.41,0,0,1,.41,1.26l-.73,4.3A1,1,0,0,0,232,374.9l3.85-2a1.38,1.38,0,0,1,.66-.17,1.41,1.41,0,0,1,.66.17l3.85,2a1,1,0,0,0,1.1-.08,1,1,0,0,0,.41-1l-.73-4.3a1.44,1.44,0,0,1,.4-1.26l3.12-3.05A1,1,0,0,0,245.59,364.11Z"></path></svg> 