<svg width="246" height="420" xml:space="preserve" xmlns="http://www.w3.org/2000/svg" id="Design" viewBox="0 0 246 420"><defs><style>.cls-1{fill:#1e73be;}.cls-2{fill:#ea4c60;}.cls-3{fill:#f4b335;}</style></defs><path class="cls-1" d="M243.31,419.22H70a2,2,0,0,1-1.41-.59L1.28,351.12a2,2,0,0,1-.58-1.41V2.78a2,2,0,0,1,2-2H176a2,2,0,0,1,1.41.59l67.33,67.51a2,2,0,0,1,.58,1.41V417.22A2,2,0,0,1,243.31,419.22Zm-172.46-4H241.31V71.12L175.16,4.78H4.7v344.1Z"></path><path class="cls-2" d="M53.05,64.05V77.54c0,6.81-3.41,10.7-10,10.7s-10-3.89-10-10.7V55.41c0-6.8,3.42-10.7,10-10.7s10,3.9,10,10.7v4.14H46.71V55c0-3-1.34-4.2-3.47-4.2S39.76,52,39.76,55V78c0,3,1.34,4.13,3.48,4.13S46.71,81,46.71,78V70.13H43.66V64.05Z"></path><path class="cls-2" d="M70.8,82.53V75.84c0-4-1.34-5.41-4.39-5.41H64.09V87.75H57.38V45.2H67.5c7,0,9.94,3.22,9.94,9.79v3.34c0,4.38-1.4,7.24-4.39,8.63,3.36,1.4,4.45,4.62,4.45,9.06v6.57a12.49,12.49,0,0,0,.74,5.16H71.41C71,86.66,70.8,86,70.8,82.53ZM64.09,64.35h2.62c2.5,0,4-1.09,4-4.5V55.66c0-3-1-4.38-3.42-4.38H64.09Z"></path><path class="cls-2" d="M97.81,63.13v6.08H88.6V81.68h11.59v6.07H81.9V45.2h18.29v6.08H88.6V63.13Z"></path><path class="cls-2" d="M119.28,87.75,118.12,80h-8.23l-1.16,7.72h-6.16L109.4,45.2h9.82L126,87.75ZM117.2,74.26,114,52.74l-3.23,21.52Z"></path><path class="cls-2" d="M145.62,45.2v6.08h-7V87.75H131.9V51.28h-7V45.2Z"></path><path class="cls-2" d="M53.48,110.9v5.53c0,6.81-3.29,10.52-10,10.52H40.31v16H33.6V100.38h9.88C50.19,100.38,53.48,104.09,53.48,110.9Zm-13.17,10h3.17c2.13,0,3.29-1,3.29-4v-6.38c0-3-1.16-4-3.29-4H40.31Z"></path><path class="cls-2" d="M63.6,100.38v36.47h11v6.08H56.89V100.38Z"></path><path class="cls-2" d="M92.51,142.93l-1.16-7.72H83.12L82,142.93H75.8l6.83-42.55h9.81l6.83,42.55Zm-2.08-13.49L87.2,107.92,84,129.44Z"></path><path class="cls-2" d="M121.78,132.72c0,6.81-3.42,10.7-10,10.7s-10-3.89-10-10.7V110.59c0-6.81,3.41-10.7,10-10.7s10,3.89,10,10.7v4.14h-6.34v-4.56c0-3-1.35-4.2-3.48-4.2s-3.48,1.16-3.48,4.2v23c0,3,1.35,4.13,3.48,4.13s3.48-1.09,3.48-4.13v-6.08h6.34Z"></path><path class="cls-2" d="M141.78,118.31v6.08h-9.21v12.46h11.59v6.08h-18.3V100.38h18.3v6.08H132.57v11.85Z"></path><path class="cls-2" d="M52.38,155.56v6.08h-7v36.47H38.66V161.64h-7v-6.08Z"></path><path class="cls-2" d="M64.94,155.07c6.59,0,10.19,3.89,10.19,10.7V187.9c0,6.81-3.6,10.7-10.19,10.7s-10.18-3.89-10.18-10.7V165.77C54.76,159,58.36,155.07,64.94,155.07Zm0,37.45c2.14,0,3.48-1.15,3.48-4.19v-23c0-3-1.34-4.2-3.48-4.2s-3.47,1.16-3.47,4.2v23C61.47,191.37,62.81,192.52,64.94,192.52Z"></path><path class="cls-2" d="M46,253.29H36.83l-4.75-42.55H38.6l3.6,33.55,3.23-33.55h6.46l3.36,33.8,3.47-33.8h5.86l-4.76,42.55h-8.9l-2.44-22.67Z"></path><path class="cls-2" d="M77.57,210.25c6.58,0,10.18,3.89,10.18,10.7v22.13c0,6.81-3.6,10.7-10.18,10.7s-10.19-3.89-10.19-10.7V221C67.38,214.14,71,210.25,77.57,210.25Zm0,37.45c2.13,0,3.47-1.16,3.47-4.2v-23c0-3-1.34-4.2-3.47-4.2s-3.48,1.16-3.48,4.2v23C74.09,246.54,75.43,247.7,77.57,247.7Z"></path><path class="cls-2" d="M105.5,248.06v-6.68c0-3.95-1.35-5.41-4.4-5.41H98.79v17.32H92.08V210.74H102.2c7,0,9.94,3.22,9.94,9.79v3.34c0,4.38-1.4,7.23-4.39,8.63,3.35,1.4,4.45,4.62,4.45,9.06v6.57a12.49,12.49,0,0,0,.73,5.16H106.1C105.74,252.2,105.5,251.53,105.5,248.06Zm-6.71-18.17h2.62c2.5,0,4-1.1,4-4.5v-4.2c0-3-1-4.37-3.41-4.37H98.79Z"></path><path class="cls-2" d="M123.3,240.22v13.07h-6.71V210.74h6.71v18.54l8.78-18.54h6.71l-9.33,19,9.33,23.58H131.9l-6.52-17Z"></path><path class="cls-3" d="M53.05,342.3c0,6.81-3.41,10.7-10,10.7s-10-3.89-10-10.7V320.17c0-6.81,3.42-10.7,10-10.7s10,3.89,10,10.7v4.14H46.71v-4.56c0-3-1.34-4.2-3.47-4.2s-3.48,1.16-3.48,4.2v23c0,3,1.34,4.13,3.48,4.13s3.47-1.1,3.47-4.13v-6.08h6.34Z"></path><path class="cls-3" d="M73.05,327.89V334h-9.2v12.46H75.43v6.08H57.14V310H75.43V316H63.85v11.85Z"></path><path class="cls-3" d="M93,347.29V340.6c0-4-1.35-5.41-4.4-5.41H86.29v17.32H79.58V310H89.7c7,0,9.94,3.22,9.94,9.79v3.34c0,4.38-1.4,7.23-4.39,8.63,3.35,1.4,4.45,4.62,4.45,9.06v6.57a12.49,12.49,0,0,0,.73,5.16H93.6C93.24,351.42,93,350.75,93,347.29Zm-6.71-18.18h2.62c2.5,0,4-1.1,4-4.5v-4.19c0-3-1-4.38-3.41-4.38H86.29Z"></path><path class="cls-3" d="M122.87,310V316h-7v36.47h-6.7V316h-7V310Z"></path><path class="cls-3" d="M132.51,310v42.55H125.8V310Z"></path><path class="cls-3" d="M152.75,328.87v6.07H144.1v17.57h-6.71V310h17.74V316h-11v12.83Z"></path><path class="cls-3" d="M165.07,310v42.55h-6.7V310Z"></path><path class="cls-3" d="M185.87,327.89V334h-9.21v12.46h11.58v6.08H170V310h18.29V316H176.66v11.85Z"></path><path class="cls-3" d="M203,310c6.71,0,10,3.71,10,10.52V342c0,6.8-3.29,10.51-10,10.51H192.39V310Zm-3.9,36.47h3.78c2.13,0,3.41-1.09,3.41-4.13V320.17c0-3-1.28-4.13-3.41-4.13H199.1Z"></path><rect class="cls-1" x="33.07" y="277.87" width="59.61" height="4.16"></rect></svg> 