<?xml version="1.0" encoding="UTF-8"?> <svg xmlns="http://www.w3.org/2000/svg" id="Design" viewBox="0 0 1120 360"><defs><style>.cls-1{fill:#fff;}.cls-2{fill:#d1d3d4;}.cls-3{fill:#939598;}.cls-4{fill:#a7a9ac;}</style></defs><path class="cls-1" d="M84.35,191.49H70V81.16h-39V68.45h92.23V81.16h-39Z"></path><path class="cls-1" d="M178.69,193.17q-20.46,0-32.28-12.45t-11.82-34.59q0-22.31,11-35.43t29.5-13.13q17.34,0,27.43,11.4t10.1,30.09v8.84H149.06q.42,16.23,8.21,24.65T179.19,181a74.36,74.36,0,0,0,29.46-6.23V187.2a73.61,73.61,0,0,1-14,4.58A78.3,78.3,0,0,1,178.69,193.17Zm-3.79-83.9q-11.11,0-17.71,7.23t-7.79,20h48.22q0-13.21-5.89-20.25T174.9,109.27Z"></path><path class="cls-1" d="M293.14,191.49l-2.78-13.13h-.67q-6.9,8.67-13.76,11.74t-17.13,3.07q-13.71,0-21.5-7.07T229.52,166q0-27.94,44.69-29.29l15.65-.5v-5.72q0-10.86-4.67-16t-14.94-5.17q-11.53,0-26.09,7.07l-4.29-10.69a65.76,65.76,0,0,1,14.94-5.81,64.77,64.77,0,0,1,16.28-2.1q16.5,0,24.45,7.32t7.95,23.48v63Zm-31.56-9.85q13.05,0,20.49-7.15t7.45-20v-8.33l-14,.59q-16.67.59-24,5.17t-7.37,14.27q0,7.58,4.59,11.53T261.58,181.64Z"></path><path class="cls-1" d="M449.84,191.49v-60q0-11-4.71-16.54t-14.64-5.51q-13,0-19.28,7.49T405,140v51.5H391v-60q0-11-4.72-16.54t-14.72-5.51q-13.14,0-19.23,7.86t-6.11,25.8v48.39h-14V99.25h11.37l2.27,12.63h.67a27.48,27.48,0,0,1,11.15-10.52,34,34,0,0,1,16.12-3.79q21.63,0,28.28,15.65h.67a29.39,29.39,0,0,1,11.95-11.44,37,37,0,0,1,17.84-4.21q15.66,0,23.44,8t7.78,25.71v60.17Z"></path><path class="cls-1" d="M180,309H168.69V222H138V212h72.71v10H180Z"></path><path class="cls-1" d="M286.39,272.57q0,17.78-9,27.76t-24.75,10a32.77,32.77,0,0,1-17.31-4.58,30.13,30.13,0,0,1-11.68-13.14,45.77,45.77,0,0,1-4.11-20q0-17.79,8.89-27.7T253.15,235q15.25,0,24.25,10.15T286.39,272.57Zm-55.4,0q0,13.94,5.57,21.23T253,301.1q10.82,0,16.42-7.27T275,272.57q0-13.87-5.61-21.07t-16.55-7.2q-10.81,0-16.33,7.1T231,272.57Z"></path><path class="cls-1" d="M365.21,236.27v7l-13.47,1.59a23.63,23.63,0,0,1,4.78,14.53q0,10.69-7.3,17.06t-20,6.36a32.83,32.83,0,0,1-6.1-.53q-7,3.72-7,9.36A4.76,4.76,0,0,0,318.5,296q2.46,1.43,8.43,1.43H339.8q11.81,0,18.15,5t6.33,14.47q0,12.08-9.68,18.41t-28.27,6.34q-14.26,0-22-5.31t-7.73-15a16.85,16.85,0,0,1,4.24-11.48q4.25-4.83,11.95-6.56a11.51,11.51,0,0,1-4.68-3.92,10.35,10.35,0,0,1-1.89-6.17,11.69,11.69,0,0,1,2.12-7,22.43,22.43,0,0,1,6.7-5.77,19.69,19.69,0,0,1-9.19-7.89,23.29,23.29,0,0,1-3.55-12.74q0-11.94,7.17-18.41t20.3-6.47a37.16,37.16,0,0,1,10.29,1.32Zm-58,84.93a9.87,9.87,0,0,0,5,9q5,3,14.26,3,13.88,0,20.54-4.15t6.67-11.24q0-5.91-3.65-8.2c-2.44-1.52-7-2.29-13.74-2.29h-13.2q-7.5,0-11.68,3.59T307.22,321.2Zm6-61.64q0,7.63,4.32,11.55t12,3.91q16.13,0,16.12-15.66,0-16.38-16.32-16.39-7.77,0-11.94,4.18T313.19,259.56Z"></path><path class="cls-1" d="M410.86,310.32q-16.12,0-25.44-9.82t-9.33-27.27q0-17.58,8.66-27.93T408,235q13.67,0,21.63,9t8,23.72v7H387.51q.33,12.81,6.47,19.44t17.28,6.64a58.61,58.61,0,0,0,23.22-4.91v9.82a58.1,58.1,0,0,1-11.05,3.61A62,62,0,0,1,410.86,310.32Zm-3-66.15q-8.76,0-14,5.71t-6.14,15.79h38q0-10.42-4.64-16T407.88,244.17Z"></path><path class="cls-1" d="M479.86,301.23a35.62,35.62,0,0,0,5.64-.43,37.07,37.07,0,0,0,4.32-.9v8.43a20.27,20.27,0,0,1-5.28,1.42,39.16,39.16,0,0,1-6.27.57q-21.09,0-21.1-22.23V244.83H446.76v-5.31L457.17,235l4.65-15.53h6.37v16.85h21.1v8.56h-21.1v42.8q0,6.57,3.12,10.08A10.81,10.81,0,0,0,479.86,301.23Z"></path><path class="cls-1" d="M554.11,309V262q0-8.9-4.05-13.27t-12.67-4.38q-11.48,0-16.75,6.24T515.36,271v38h-11V205.75h11V237a68.83,68.83,0,0,1-.53,9.36h.66a22.45,22.45,0,0,1,9.26-8.26,30.11,30.11,0,0,1,13.7-3q13.34,0,20,6.34t6.66,20.13V309Z"></path><path class="cls-1" d="M618.47,310.32q-16.12,0-25.45-9.82t-9.32-27.27q0-17.58,8.66-27.93T615.62,235q13.67,0,21.63,9t8,23.72v7h-50.1q.33,12.81,6.47,19.44t17.29,6.64a58.61,58.61,0,0,0,23.22-4.91v9.82A58.33,58.33,0,0,1,631,309.22,62,62,0,0,1,618.47,310.32Zm-3-66.15q-8.76,0-14,5.71t-6.14,15.79h38q0-10.42-4.65-16T615.48,244.17Z"></path><path class="cls-1" d="M697.16,235a43.12,43.12,0,0,1,8.69.79L704.32,246a37.71,37.71,0,0,0-8-1q-8.82,0-15.09,7.17T675,270v39H664V236.27h9.09l1.26,13.47h.54a31.89,31.89,0,0,1,9.75-11A22,22,0,0,1,697.16,235Z"></path><path class="cls-2" d="M591.35,90.42h-7.63L563.38,63.37l-5.84,5.19V90.42h-6.49V34.63h6.49V62.3l25.3-27.67h7.67L568.07,58.86Z"></path><path class="cls-2" d="M597.53,37.27a4.22,4.22,0,0,1,1.07-3.19,3.74,3.74,0,0,1,2.67-1,3.69,3.69,0,0,1,2.63,1A4.13,4.13,0,0,1,605,37.27a4.18,4.18,0,0,1-1.11,3.18,3.87,3.87,0,0,1-5.3,0A4.29,4.29,0,0,1,597.53,37.27Zm6.87,53.15h-6.34V48.6h6.34Z"></path><path class="cls-2" d="M646.45,90.42V63.37c0-3.41-.77-6-2.32-7.63s-4-2.52-7.29-2.52q-6.57,0-9.62,3.55t-3.05,11.71V90.42h-6.34V48.6H623l1,5.72h.31a13,13,0,0,1,5.46-4.79,17.73,17.73,0,0,1,7.82-1.69q7.56,0,11.37,3.64t3.82,11.66V90.42Z"></path><path class="cls-2" d="M694.27,84.81h-.35q-4.38,6.38-13.12,6.38-8.2,0-12.77-5.61t-4.56-16q0-10.35,4.58-16.07t12.75-5.72q8.51,0,13.05,6.18h.49l-.26-3-.16-2.93v-17h6.34V90.42h-5.15ZM681.6,85.88q6.48,0,9.4-3.53T693.92,71V69.63q0-8.89-2.95-12.69c-2-2.53-5.12-3.8-9.45-3.8A9.69,9.69,0,0,0,673,57.47q-3,4.34-3,12.23T673,81.8Q675.91,85.88,681.6,85.88Z"></path><path class="cls-2" d="M889.57,203q-9.45,0-14.92,6.29t-5.47,17.24q0,11.25,5.28,17.39t15,6.13a51.7,51.7,0,0,0,13.69-2.15v5.84a42.21,42.21,0,0,1-14.71,2.23q-12.66,0-19.54-7.68T862,226.41a34.45,34.45,0,0,1,3.32-15.53,23.78,23.78,0,0,1,9.57-10.27A28.86,28.86,0,0,1,889.65,197a35.58,35.58,0,0,1,15.76,3.29L902.59,206A30.38,30.38,0,0,0,889.57,203Z"></path><path class="cls-2" d="M941.13,255.15,939.84,249h-.31a18.14,18.14,0,0,1-6.42,5.47,19.44,19.44,0,0,1-8,1.43q-6.39,0-10-3.29t-3.63-9.37q0-13,20.82-13.65l7.29-.23v-2.67q0-5.06-2.17-7.47t-7-2.41q-5.37,0-12.16,3.29l-2-5a30.52,30.52,0,0,1,7-2.7,29.83,29.83,0,0,1,7.59-1q7.68,0,11.39,3.41T946,225.82v29.33Zm-14.7-4.59q6.08,0,9.55-3.33t3.47-9.33V234l-6.51.28q-7.77.27-11.2,2.41a7.29,7.29,0,0,0-3.43,6.65,6.69,6.69,0,0,0,2.14,5.37A8.86,8.86,0,0,0,926.43,250.56Z"></path><path class="cls-2" d="M979,211.39a25.79,25.79,0,0,1,5.14.47l-.9,6a22.38,22.38,0,0,0-4.71-.59,11.45,11.45,0,0,0-8.92,4.23,15.45,15.45,0,0,0-3.7,10.55v23.06h-6.51v-43h5.37l.74,8h.32a18.92,18.92,0,0,1,5.76-6.47A13,13,0,0,1,979,211.39Z"></path><path class="cls-2" d="M991.6,200.53a4.32,4.32,0,0,1,1.1-3.28,4.06,4.06,0,0,1,5.45,0,4.28,4.28,0,0,1,1.13,3.26,4.34,4.34,0,0,1-1.13,3.27,3.8,3.8,0,0,1-2.71,1.08,3.74,3.74,0,0,1-2.74-1.08A4.37,4.37,0,0,1,991.6,200.53Zm7.06,54.62h-6.51v-43h6.51Z"></path><path class="cls-2" d="M1041.87,255.15v-27.8c0-3.5-.8-6.12-2.4-7.84s-4.09-2.59-7.49-2.59q-6.74,0-9.88,3.64t-3.13,12v22.55h-6.51v-43h5.29l1.06,5.88h.31a13.46,13.46,0,0,1,5.61-4.92,18.27,18.27,0,0,1,8-1.74q7.76,0,11.68,3.74t3.93,12v28Z"></path><path class="cls-2" d="M1096.92,212.17v4.12l-8,.94a14,14,0,0,1,2.82,8.59,12.72,12.72,0,0,1-4.31,10.08q-4.32,3.76-11.84,3.76a19.66,19.66,0,0,1-3.61-.31q-4.15,2.19-4.16,5.53a2.81,2.81,0,0,0,1.45,2.6,10.62,10.62,0,0,0,5,.85h7.61q7,0,10.72,2.94t3.75,8.54a12.22,12.22,0,0,1-5.73,10.89q-5.72,3.74-16.7,3.74-8.43,0-13-3.14a10.13,10.13,0,0,1-4.57-8.86,10,10,0,0,1,2.51-6.78,12.81,12.81,0,0,1,7.06-3.88,6.76,6.76,0,0,1-2.76-2.32,6.07,6.07,0,0,1-1.12-3.64,7,7,0,0,1,1.25-4.12,13.26,13.26,0,0,1,4-3.41,11.64,11.64,0,0,1-5.43-4.67,13.75,13.75,0,0,1-2.09-7.53q0-7.05,4.23-10.88t12-3.82a22,22,0,0,1,6.08.78Zm-34.27,50.19a5.85,5.85,0,0,0,2.94,5.3q2.94,1.8,8.43,1.8,8.19,0,12.13-2.45a7.51,7.51,0,0,0,3.95-6.65c0-2.32-.72-3.94-2.16-4.84s-4.15-1.35-8.12-1.35H1072c-3,0-5.26.7-6.9,2.12A7.54,7.54,0,0,0,1062.65,262.36Zm3.53-36.42c0,3,.85,5.28,2.55,6.82a10.16,10.16,0,0,0,7.09,2.31q9.53,0,9.53-9.25,0-9.69-9.64-9.69c-3.06,0-5.42.83-7.06,2.47S1066.18,222.7,1066.18,225.94Z"></path><path class="cls-3" d="M579.64,150.79h-4.36V133.15H555.54v17.64h-4.36V113.31h4.36v15.95h19.74V113.31h4.36Z"></path><path class="cls-3" d="M593.28,122.7v18.22a7.36,7.36,0,0,0,1.56,5.13q1.56,1.69,4.9,1.69,4.39,0,6.44-2.41c1.36-1.6,2-4.23,2-7.87V122.7h4.26v28.09H609l-.61-3.77h-.23a8.4,8.4,0,0,1-3.63,3.18,12.12,12.12,0,0,1-5.29,1.11c-3.42,0-6-.82-7.68-2.44s-2.55-4.22-2.55-7.79V122.7Z"></path><path class="cls-3" d="M639.63,143.13a7,7,0,0,1-2.93,6.05c-1.94,1.42-4.68,2.13-8.2,2.13-3.73,0-6.63-.59-8.72-1.77v-3.95a21.07,21.07,0,0,0,4.35,1.61,17.85,17.85,0,0,0,4.47.59,10.17,10.17,0,0,0,5.13-1.06,3.67,3.67,0,0,0,.37-6,22.34,22.34,0,0,0-5.55-2.76,29.58,29.58,0,0,1-5.57-2.55,7.55,7.55,0,0,1-2.47-2.47,6.54,6.54,0,0,1-.8-3.31,6.3,6.3,0,0,1,2.79-5.42,13,13,0,0,1,7.67-2A22.47,22.47,0,0,1,639,124l-1.52,3.46a20.37,20.37,0,0,0-7.66-1.74,8.82,8.82,0,0,0-4.56.94,2.94,2.94,0,0,0-1.54,2.62,3.21,3.21,0,0,0,.57,1.92,5.69,5.69,0,0,0,1.86,1.51,40.6,40.6,0,0,0,4.93,2.08q5,1.83,6.75,3.67A6.46,6.46,0,0,1,639.63,143.13Z"></path><path class="cls-3" d="M655.63,147.79a14.61,14.61,0,0,0,3.84-.51v3.26a8,8,0,0,1-2,.55,15.84,15.84,0,0,1-2.42.22q-8.16,0-8.15-8.59V126h-4v-2l4-1.77,1.79-6h2.46v6.52h8.15V126h-8.15v16.54a5.63,5.63,0,0,0,1.21,3.89A4.17,4.17,0,0,0,655.63,147.79Z"></path><path class="cls-3" d="M669.34,150.79h-4.26V110.9h4.26Z"></path><path class="cls-3" d="M690.23,151.31q-6.22,0-9.83-3.8T676.8,137q0-6.78,3.35-10.79a11.12,11.12,0,0,1,9-4,10.59,10.59,0,0,1,8.36,3.48,13.3,13.3,0,0,1,3.08,9.16v2.69H681.21c.09,3.3.92,5.81,2.5,7.51a8.65,8.65,0,0,0,6.68,2.57,22.56,22.56,0,0,0,9-1.9v3.8a23,23,0,0,1-4.27,1.39A23.37,23.37,0,0,1,690.23,151.31Zm-1.15-25.56a7,7,0,0,0-5.4,2.2,10.17,10.17,0,0,0-2.37,6.1H696a9.37,9.37,0,0,0-1.79-6.16A6.32,6.32,0,0,0,689.08,125.75Z"></path><path class="cls-2" d="M155.35,78.79h-5.57v-43H134.59v-5h36v5h-15.2Z"></path><path class="cls-2" d="M192.14,79.45q-8,0-12.59-4.86T174.94,61.1q0-8.68,4.28-13.81a14.25,14.25,0,0,1,11.51-5.12q6.75,0,10.69,4.45t3.94,11.73v3.44H180.59q.16,6.33,3.2,9.62c2,2.18,4.87,3.28,8.54,3.28a29,29,0,0,0,11.49-2.43v4.86a28.89,28.89,0,0,1-5.47,1.78A30.63,30.63,0,0,1,192.14,79.45Zm-1.48-32.72a8.9,8.9,0,0,0-6.91,2.82,13,13,0,0,0-3,7.81h18.8q0-5.14-2.3-7.89A8.1,8.1,0,0,0,190.66,46.73Z"></path><path class="cls-2" d="M236.76,78.79l-1.08-5.12h-.27a15.17,15.17,0,0,1-5.36,4.58,16.32,16.32,0,0,1-6.68,1.2c-3.56,0-6.36-.92-8.38-2.76s-3-4.45-3-7.84Q212,58,229.38,57.43l6.1-.2V55q0-4.23-1.82-6.25c-1.22-1.34-3.16-2-5.83-2a23.74,23.74,0,0,0-10.17,2.76L216,45.32a25.8,25.8,0,0,1,5.82-2.26,25.09,25.09,0,0,1,6.35-.82q6.43,0,9.53,2.85t3.1,9.16V78.79ZM224.45,75c3.39,0,6.06-.93,8-2.79s2.91-4.46,2.91-7.81V61.1l-5.45.23q-6.5.24-9.37,2a6.09,6.09,0,0,0-2.87,5.56,5.63,5.63,0,0,0,1.79,4.5A7.4,7.4,0,0,0,224.45,75Z"></path><path class="cls-2" d="M297.85,78.79V55.39q0-4.29-1.84-6.44T290.3,46.8q-5.08,0-7.51,2.92c-1.62,2-2.43,4.94-2.43,9V78.79h-5.44V55.39c0-2.86-.62-5-1.84-6.44s-3.14-2.15-5.74-2.15c-3.42,0-5.91,1-7.5,3.07s-2.38,5.39-2.38,10.05V78.79H252v-36h4.43l.89,4.92h.26a10.69,10.69,0,0,1,4.35-4.1,13.2,13.2,0,0,1,6.28-1.48q8.43,0,11,6.11h.26a11.42,11.42,0,0,1,4.66-4.47,14.48,14.48,0,0,1,7-1.64q6.09,0,9.13,3.14c2,2.08,3,5.43,3,10V78.79Z"></path><path class="cls-2" d="M343.89,78.79l-6.6-21.1q-.62-1.94-2.33-8.79h-.26c-.88,3.83-1.64,6.78-2.3,8.86l-6.79,21h-6.3l-9.81-36h5.71q3.48,13.55,5.3,20.64A82.91,82.91,0,0,1,322.59,73h.26c.24-1.24.63-2.86,1.17-4.84s1-3.54,1.39-4.7L332,42.83h5.9l6.43,20.64a69.3,69.3,0,0,1,2.5,9.48h.26a33.7,33.7,0,0,1,.71-3.64q.57-2.46,6.84-26.48h5.64l-9.94,36Z"></path><path class="cls-2" d="M397.83,60.78q0,8.79-4.43,13.73t-12.24,4.94a16.23,16.23,0,0,1-8.57-2.27,15,15,0,0,1-5.77-6.5,22.55,22.55,0,0,1-2-9.9q0-8.81,4.39-13.7t12.21-4.91q7.55,0,12,5T397.83,60.78Zm-27.4,0q0,6.89,2.76,10.5t8.1,3.6c3.56,0,6.27-1.19,8.12-3.59s2.77-5.9,2.77-10.51-.92-8.05-2.77-10.42-4.58-3.56-8.19-3.56S375,48,373.15,50.31,370.43,56.14,370.43,60.78Z"></path><path class="cls-2" d="M423.78,42.17a20.76,20.76,0,0,1,4.3.4l-.76,5a18.35,18.35,0,0,0-3.93-.49,9.6,9.6,0,0,0-7.47,3.54,12.9,12.9,0,0,0-3.1,8.83V78.79h-5.45v-36h4.5l.62,6.66h.26a15.8,15.8,0,0,1,4.83-5.41A10.85,10.85,0,0,1,423.78,42.17Z"></path><path class="cls-2" d="M440.18,60.38q1.43-2,4.3-5.25l11.62-12.3h6.46L448,58.15l15.59,20.64H457l-12.69-17-4.11,3.55V78.79H434.8V27.74h5.38V54.8c0,1.21-.08,3.07-.26,5.58Z"></path><path class="cls-3" d="M786.82,301.1v6.78H728.51v-32.5h6V301.1h21.34V276.93h6V301.1Z"></path><path class="cls-3" d="M786.82,260.1v6.62H724.76V260.1Z"></path><path class="cls-3" d="M787.62,227.6q0,9.69-5.9,15.29t-16.39,5.61q-10.58,0-16.8-5.21t-6.22-14q0-8.22,5.41-13T762,211.52h4.19v30.11q7.7-.19,11.69-3.88t4-10.39a35.33,35.33,0,0,0-3-14h5.9A35.06,35.06,0,0,1,787,220,37.19,37.19,0,0,1,787.62,227.6Zm-39.76,1.79a10.81,10.81,0,0,0,3.43,8.4q3.42,3.12,9.49,3.69V218.62q-6.27,0-9.59,2.79T747.86,229.39Z"></path><path class="cls-3" d="M764.45,189.7l-21.34,15.2v-7.54l16.75-11.52-16.75-11.49v-7.46l21.34,15.2,22.37-16v7.5l-17.71,12.25,17.71,12.36v7.5Z"></path><path class="cls-3" d="M731.26,158a4.43,4.43,0,0,1-3.33-1.12,4.16,4.16,0,0,1,0-5.55,4.32,4.32,0,0,1,3.31-1.15,4.38,4.38,0,0,1,3.33,1.15,3.85,3.85,0,0,1,1.1,2.76,3.81,3.81,0,0,1-1.1,2.79A4.49,4.49,0,0,1,731.26,158Zm55.56-7.18v6.62H743.11v-6.62Z"></path><path class="cls-3" d="M742.39,116.44q0-8.62,5.88-13.39t16.66-4.76q10.77,0,16.73,4.8t6,13.35a18.89,18.89,0,0,1-1.57,7.79,14.68,14.68,0,0,1-4.85,5.93v.47l5.62,1.4v4.75H724.76v-6.62h15.08c3.38,0,6.41.1,9.09.32v-.32Q742.39,125.53,742.39,116.44Zm5.55,1q0,6.78,3.88,9.78c2.6,2,7,3,13.11,3s10.53-1,13.18-3.08,4-5.33,4-9.85c0-4.06-1.49-7.1-4.45-9.09s-7.23-3-12.78-3-9.93,1-12.73,3S747.94,113.22,747.94,117.39Z"></path><path class="cls-3" d="M786.82,80.1v6.62H724.76V80.1Z"></path><path class="cls-3" d="M787.62,47.59q0,9.69-5.9,15.3t-16.39,5.6q-10.58,0-16.8-5.2t-6.22-14q0-8.22,5.41-13T762,31.52h4.19V61.63q7.7-.2,11.69-3.89t4-10.39a35.4,35.4,0,0,0-3-14h5.9A35.15,35.15,0,0,1,787,40,37.09,37.09,0,0,1,787.62,47.59Zm-39.76,1.8a10.78,10.78,0,0,0,3.43,8.39q3.42,3.13,9.49,3.69V38.62q-6.27,0-9.59,2.79T747.86,49.39Z"></path><path class="cls-2" d="M882.91,122.55c-5,0-9,1.66-11.85,5s-4.35,7.9-4.35,13.69q0,9,4.19,13.82t12,4.88a40.48,40.48,0,0,0,10.87-1.72v4.65A33.54,33.54,0,0,1,882,164.64q-10.06,0-15.53-6.1T861,141.18a27.48,27.48,0,0,1,2.63-12.34,18.94,18.94,0,0,1,7.6-8.16,23.06,23.06,0,0,1,11.7-2.87,28.16,28.16,0,0,1,12.53,2.62L893.26,125A24.17,24.17,0,0,0,882.91,122.55Z"></path><path class="cls-2" d="M918.46,129.25a20.3,20.3,0,0,1,4.09.37l-.72,4.8a17.73,17.73,0,0,0-3.74-.47,9.1,9.1,0,0,0-7.09,3.37,12.26,12.26,0,0,0-2.94,8.38V164h-5.17V129.87h4.26l.6,6.33H908a14.92,14.92,0,0,1,4.58-5.15A10.32,10.32,0,0,1,918.46,129.25Z"></path><path class="cls-2" d="M943.36,164.64q-7.58,0-12-4.61T927,147.23q0-8.26,4.07-13.12A13.5,13.5,0,0,1,942,129.25q6.42,0,10.16,4.22t3.74,11.14v3.27H932.39q.17,6,3,9.13t8.12,3.12a27.49,27.49,0,0,0,10.91-2.31v4.61a27.22,27.22,0,0,1-5.19,1.7A29.41,29.41,0,0,1,943.36,164.64ZM942,133.58a8.44,8.44,0,0,0-6.56,2.68,12.33,12.33,0,0,0-2.88,7.41h17.85c0-3.26-.72-5.76-2.18-7.49A7.68,7.68,0,0,0,942,133.58Z"></path><path class="cls-2" d="M985.74,164l-1-4.86h-.25a14.39,14.39,0,0,1-5.09,4.35,15.71,15.71,0,0,1-6.34,1.13c-3.39,0-6-.87-8-2.61s-2.88-4.23-2.88-7.45q0-10.35,16.55-10.84l5.79-.19v-2.12c0-2.68-.57-4.66-1.73-5.94s-3-1.91-5.53-1.91a22.52,22.52,0,0,0-9.66,2.62l-1.59-4a24.27,24.27,0,0,1,5.53-2.15,24,24,0,0,1,6-.78c4.08,0,7.09.9,9.06,2.71s2.94,4.7,2.94,8.69V164Zm-11.69-3.64a10.53,10.53,0,0,0,7.59-2.65,9.81,9.81,0,0,0,2.76-7.42v-3.08l-5.17.21c-4.12.15-7.08.79-8.9,1.92a5.77,5.77,0,0,0-2.73,5.28,5.34,5.34,0,0,0,1.7,4.27A7,7,0,0,0,974.05,160.38Z"></path><path class="cls-2" d="M1011.26,160.38a16.44,16.44,0,0,0,2.65-.21,15.4,15.4,0,0,0,2-.42v4a9.62,9.62,0,0,1-2.48.67,19.32,19.32,0,0,1-2.94.26q-9.91,0-9.91-10.43V133.89h-4.89V131.4l4.89-2.15,2.18-7.29h3v7.91h9.91v4h-9.91V154a6.89,6.89,0,0,0,1.47,4.73A5.09,5.09,0,0,0,1011.26,160.38Z"></path><path class="cls-2" d="M1022.32,120.62a3.45,3.45,0,0,1,.87-2.61,3.24,3.24,0,0,1,4.33,0,3.35,3.35,0,0,1,.91,2.59,3.4,3.4,0,0,1-.91,2.6,3.18,3.18,0,0,1-4.33,0A3.5,3.5,0,0,1,1022.32,120.62Zm5.61,43.4h-5.17V129.87h5.17Z"></path><path class="cls-2" d="M1046.37,164l-13-34.15H1039l7.35,20.25a95.85,95.85,0,0,1,2.93,9.23h.25a69.39,69.39,0,0,1,2.17-6.84q1.81-5.19,8.17-22.64h5.55l-13,34.15Z"></path><path class="cls-2" d="M1085.29,164.64q-7.56,0-12-4.61t-4.38-12.8q0-8.26,4.07-13.12a13.5,13.5,0,0,1,10.92-4.86q6.42,0,10.16,4.22t3.74,11.14v3.27h-23.53q.17,6,3,9.13t8.12,3.12a27.49,27.49,0,0,0,10.91-2.31v4.61a27.22,27.22,0,0,1-5.19,1.7A29.41,29.41,0,0,1,1085.29,164.64Zm-1.4-31.06a8.44,8.44,0,0,0-6.56,2.68,12.33,12.33,0,0,0-2.88,7.41h17.85c0-3.26-.72-5.76-2.18-7.49A7.68,7.68,0,0,0,1083.89,133.58Z"></path><path class="cls-2" d="M91.8,302.86v4.78H50.7V284.73H55v18.13H70v-17h4.24v17Z"></path><path class="cls-2" d="M61,274.25H81c2.51,0,4.38-.58,5.62-1.72s1.86-2.93,1.86-5.37q0-4.83-2.65-7.07c-1.76-1.49-4.63-2.23-8.63-2.23H61v-4.67H91.8V257l-4.13.68V258a9.33,9.33,0,0,1,3.49,4,13.42,13.42,0,0,1,1.2,5.8q0,5.63-2.67,8.42T81.15,279H61Z"></path><path class="cls-2" d="M91.8,222.21H71.87q-3.77,0-5.62,1.72t-1.86,5.37q0,4.83,2.62,7.08t8.63,2.25H91.8v4.67H61v-3.8l4.22-.76v-.22a9.54,9.54,0,0,1-3.53-4,13.16,13.16,0,0,1-1.25-5.77c0-3.71.9-6.5,2.68-8.37s4.66-2.81,8.59-2.81H91.8Z"></path><path class="cls-2" d="M525.34,186.08v4.56H486.16V168.8h4v17.28h14.33V169.84h4v16.24Z"></path><path class="cls-2" d="M525.34,144.92l-4.18.89V146a12.54,12.54,0,0,1,3.74,4.38,13.44,13.44,0,0,1,1,5.46,9.79,9.79,0,0,1-2.25,6.84,8.17,8.17,0,0,1-6.4,2.48q-8.89,0-9.33-14.23l-.16-5h-1.82c-2.31,0-4,.49-5.11,1.49s-1.64,2.57-1.64,4.75a19.39,19.39,0,0,0,2.25,8.31L498,161.89a21.51,21.51,0,0,1-1.85-4.76,20.88,20.88,0,0,1-.67-5.19q0-5.25,2.34-7.78t7.47-2.53h20.05ZM522.2,155a9,9,0,0,0-2.28-6.52,8.41,8.41,0,0,0-6.37-2.38h-2.66l.19,4.45q.19,5.31,1.65,7.65a5,5,0,0,0,4.54,2.35,4.59,4.59,0,0,0,3.67-1.46A6.08,6.08,0,0,0,522.2,155Z"></path><path class="cls-2" d="M525.34,95H506.23a8,8,0,0,0-5.27,1.5,5.82,5.82,0,0,0-1.75,4.67q0,4.16,2.38,6.13t7.35,2h16.4v4.44H506.23a8,8,0,0,0-5.27,1.5,5.87,5.87,0,0,0-1.75,4.7q0,4.17,2.5,6.12c1.68,1.29,4.41,1.94,8.22,1.94h15.41v4.45H496v-3.62l4-.72v-.22a8.7,8.7,0,0,1-3.35-3.55,10.73,10.73,0,0,1-1.21-5.13q0-6.89,5-9V110a9.3,9.3,0,0,1-3.65-3.8,11.85,11.85,0,0,1-1.34-5.68c0-3.33.85-5.81,2.56-7.47s4.43-2.48,8.19-2.48h19.16Z"></path><path class="cls-2" d="M488,81.78a3,3,0,0,1-2.24-.75,2.78,2.78,0,0,1,0-3.72,2.92,2.92,0,0,1,2.23-.78,3,3,0,0,1,2.24.78,2.59,2.59,0,0,1,.73,1.85,2.56,2.56,0,0,1-.73,1.87A3,3,0,0,1,488,81.78ZM525.34,77v4.45H496V77Z"></path><path class="cls-2" d="M525.34,63.08v4.45h-41.7V63.08Z"></path><path class="cls-2" d="M496,58.31V53.54l16.75-6.43A62.33,62.33,0,0,1,521,44.48v-.22c-.92-.23-2.47-.71-4.68-1.46s-9-3.16-20.35-7.27V30.76l33.44,12.62c3.31,1.25,5.65,2.71,7,4.38a9.34,9.34,0,0,1,2.07,6.15,18.08,18.08,0,0,1-.45,4H534.5a15.11,15.11,0,0,0,.32-3.29q0-4.59-5.14-6.54l-4.18-1.64Z"></path><path class="cls-4" d="M51.09,42a13.29,13.29,0,0,1-1.69,7,8.44,8.44,0,0,1-4.78,3.78l5.21,5.41H46.14l-4.27-4.94-.82,0q-4.83,0-7.46-3T31,42q0-5.34,2.64-8.29c1.75-2,4.25-2.94,7.48-2.94a9.31,9.31,0,0,1,7.36,3C50.21,35.71,51.09,38.47,51.09,42ZM33.66,42q0,4.44,1.89,6.74A6.71,6.71,0,0,0,41.05,51a6.67,6.67,0,0,0,5.49-2.28Q48.4,46.44,48.4,42t-1.85-6.7A6.64,6.64,0,0,0,41.08,33a6.72,6.72,0,0,0-5.53,2.3C34.29,36.83,33.66,39.05,33.66,42Z"></path><path class="cls-4" d="M57.93,36.54V47.18a4.29,4.29,0,0,0,.91,3,3.75,3.75,0,0,0,2.86,1,4.65,4.65,0,0,0,3.76-1.41c.79-.94,1.19-2.47,1.19-4.6V36.54h2.48V53h-2l-.35-2.2h-.14a5,5,0,0,1-2.12,1.85,7.08,7.08,0,0,1-3.09.64,6.26,6.26,0,0,1-4.48-1.42q-1.49-1.41-1.49-4.55V36.54Z"></path><path class="cls-4" d="M74.19,32.1a1.66,1.66,0,0,1,.42-1.25,1.48,1.48,0,0,1,1-.39,1.45,1.45,0,0,1,1,.4,1.61,1.61,0,0,1,.44,1.24,1.64,1.64,0,0,1-.44,1.25,1.52,1.52,0,0,1-2.08,0A1.67,1.67,0,0,1,74.19,32.1ZM76.89,53H74.4V36.54h2.49Z"></path><path class="cls-4" d="M89.63,36.25a10.63,10.63,0,0,1,2,.17l-.35,2.31a8.51,8.51,0,0,0-1.79-.23,4.37,4.37,0,0,0-3.41,1.62,5.91,5.91,0,0,0-1.41,4V53H82.15V36.54h2l.29,3h.12a7.29,7.29,0,0,1,2.2-2.47A5,5,0,0,1,89.63,36.25Z"></path><path class="cls-4" d="M97.12,44.55a27.58,27.58,0,0,1,2-2.39l5.29-5.62h2.95l-6.64,7L107.79,53h-3L99,45.19l-1.87,1.62V53H94.66V29.66h2.46V42c0,.55,0,1.39-.12,2.54Z"></path><path class="cls-4" d="M108.15,36.54h2.66l3.59,9.36a35.16,35.16,0,0,1,1.47,4.62H116q.2-.77.81-2.61t4.06-11.37h2.67l-7,18.68A9.22,9.22,0,0,1,114,59.15a5.2,5.2,0,0,1-3.43,1.16,10,10,0,0,1-2.25-.26v-2a8.73,8.73,0,0,0,1.85.18c1.7,0,2.92-1,3.65-2.87l.91-2.33Z"></path><path class="cls-4" d="M842.92,46.34q0,7.95-5.42,12.22T822,62.84h-6.15V83.41h-6.08V31.1h13.56Q842.93,31.1,842.92,46.34ZM815.84,57.61h5.47q8.09,0,11.7-2.61t3.62-8.37c0-3.46-1.14-6-3.4-7.73s-5.8-2.54-10.59-2.54h-6.8Z"></path><path class="cls-4" d="M869.54,84.12q-8.68,0-13.72-5.29t-5-14.7q0-9.49,4.67-15.07A15.52,15.52,0,0,1,868,43.48c4.92,0,8.8,1.62,11.67,4.85S884,55.83,884,61.12v3.76H857q.18,6.9,3.49,10.48t9.31,3.58a31.69,31.69,0,0,0,12.53-2.65v5.29a31,31,0,0,1-6,2A33,33,0,0,1,869.54,84.12Zm-1.61-35.66a9.69,9.69,0,0,0-7.53,3.07,14.17,14.17,0,0,0-3.31,8.52h20.5c0-3.75-.84-6.62-2.5-8.61A8.83,8.83,0,0,0,867.93,48.46Z"></path><path class="cls-4" d="M912,43.48a23.79,23.79,0,0,1,4.69.43l-.83,5.51a20.07,20.07,0,0,0-4.29-.54,10.46,10.46,0,0,0-8.14,3.87A14.09,14.09,0,0,0,900,62.37v21h-5.94V44.2H899l.68,7.26H900a17.18,17.18,0,0,1,5.26-5.9A11.78,11.78,0,0,1,912,43.48Z"></path><path class="cls-4" d="M949.28,72.71a9.83,9.83,0,0,1-4.07,8.44q-4.08,3-11.45,3-7.8,0-12.17-2.46V76.15a29.87,29.87,0,0,0,6.07,2.25,25.25,25.25,0,0,0,6.24.82,14.18,14.18,0,0,0,7.16-1.48,5.12,5.12,0,0,0,.52-8.45q-2-1.62-7.75-3.84a42.28,42.28,0,0,1-7.78-3.56,10.76,10.76,0,0,1-3.44-3.45,9,9,0,0,1-1.12-4.62,8.81,8.81,0,0,1,3.9-7.57q3.9-2.76,10.69-2.77a31.27,31.27,0,0,1,12.38,2.58l-2.11,4.83a28.42,28.42,0,0,0-10.7-2.43,12.31,12.31,0,0,0-6.36,1.32,4.08,4.08,0,0,0-2.15,3.65,4.48,4.48,0,0,0,.8,2.68,8,8,0,0,0,2.6,2.11,56.41,56.41,0,0,0,6.87,2.9q7,2.54,9.42,5.12A9,9,0,0,1,949.28,72.71Z"></path><path class="cls-4" d="M992.79,63.77q0,9.58-4.83,15t-13.35,5.38a17.71,17.71,0,0,1-9.33-2.46,16.32,16.32,0,0,1-6.3-7.09,24.65,24.65,0,0,1-2.22-10.8q0-9.59,4.8-14.94t13.3-5.35q8.24,0,13.08,5.48T992.79,63.77Zm-29.87,0q0,7.51,3,11.45t8.84,3.93c3.88,0,6.84-1.31,8.85-3.92s3-6.43,3-11.46-1-8.77-3-11.36-5-3.88-8.92-3.88-6.83,1.27-8.81,3.82S962.92,58.71,962.92,63.77Z"></path><path class="cls-4" d="M1030,83.41V58c0-3.19-.73-5.58-2.18-7.15s-3.73-2.36-6.83-2.36q-6.16,0-9,3.32t-2.86,11V83.41h-5.94V44.2H1008l1,5.36h.28a12.2,12.2,0,0,1,5.12-4.49,16.62,16.62,0,0,1,7.33-1.59q7.08,0,10.66,3.42T1036,57.83V83.41Z"></path><path class="cls-4" d="M1072.28,83.41l-1.18-5.58h-.28a16.63,16.63,0,0,1-5.85,5,17.86,17.86,0,0,1-7.28,1.3q-5.84,0-9.15-3t-3.3-8.55q0-11.88,19-12.45l6.66-.22V57.47q0-4.62-2-6.81t-6.35-2.2a25.91,25.91,0,0,0-11.09,3l-1.82-4.54a28.61,28.61,0,0,1,13.27-3.37q7,0,10.39,3.12t3.38,10V83.41Zm-13.41-4.19c3.69,0,6.6-1,8.71-3s3.16-4.86,3.16-8.51V64.13l-5.93.25q-7.1.24-10.22,2.2a6.62,6.62,0,0,0-3.13,6.06,6.11,6.11,0,0,0,2,4.9A8.11,8.11,0,0,0,1058.87,79.22Z"></path><path class="cls-4" d="M1094.86,83.41h-5.94V27.74h5.94Z"></path><path class="cls-2" d="M842.38,308.08H809.71v-3.79h32.67Z"></path><path class="cls-2" d="M842.38,279.13H826.54a6.38,6.38,0,0,0-4.47,1.36,5.53,5.53,0,0,0-1.48,4.27q0,3.84,2.08,5.63t6.86,1.78h12.85v3.71H817.89v-3l3.35-.61v-.18a7.54,7.54,0,0,1-2.81-3.19,10.43,10.43,0,0,1-1-4.58q0-4.43,2.13-6.66c1.43-1.49,3.7-2.23,6.83-2.23h16Z"></path><path class="cls-2" d="M842.38,251H826.54a6.38,6.38,0,0,0-4.47,1.36,5.53,5.53,0,0,0-1.48,4.27q0,3.84,2.08,5.63t6.86,1.79h12.85v3.71H817.89v-3l3.35-.6V264a7.63,7.63,0,0,1-2.81-3.2,10.39,10.39,0,0,1-1-4.58q0-4.43,2.13-6.66c1.43-1.49,3.7-2.23,6.83-2.23h16Z"></path><path class="cls-2" d="M830.11,218.57q6,0,9.35,3a10.62,10.62,0,0,1,3.36,8.33,11,11,0,0,1-1.54,5.83,10.23,10.23,0,0,1-4.42,3.94,15.46,15.46,0,0,1-6.75,1.38q-6,0-9.33-3a10.59,10.59,0,0,1-3.34-8.31,10.36,10.36,0,0,1,3.42-8.17Q824.28,218.57,830.11,218.57Zm0,18.66q4.7,0,7.15-1.88a7.44,7.44,0,0,0,0-11c-1.63-1.26-4-1.88-7.16-1.88s-5.48.62-7.09,1.88a6.64,6.64,0,0,0-2.43,5.58,6.55,6.55,0,0,0,2.39,5.5C824.58,236.61,827,237.23,830.11,237.23Z"></path><path class="cls-2" d="M842.38,206.71,817.89,216v-4l14.52-5.27a69.26,69.26,0,0,1,6.62-2.1v-.18a48.83,48.83,0,0,1-4.91-1.55q-3.72-1.3-16.23-5.87v-4l24.49,9.29Z"></path><path class="cls-2" d="M842.38,174.08l-3.49.74V175a10.34,10.34,0,0,1,3.12,3.65,11.23,11.23,0,0,1,.81,4.55,8.19,8.19,0,0,1-1.87,5.71,6.84,6.84,0,0,1-5.34,2.07q-7.43,0-7.78-11.87L827.7,175h-1.52a6.21,6.21,0,0,0-4.26,1.24,5.06,5.06,0,0,0-1.37,4,16.19,16.19,0,0,0,1.87,6.93l-2.83,1.14a17.63,17.63,0,0,1-1.55-4,17.23,17.23,0,0,1-.55-4.32c0-2.92.64-5.08,1.94-6.49s3.37-2.11,6.23-2.11h16.72Zm-2.62,8.38a7.51,7.51,0,0,0-1.9-5.44,7,7,0,0,0-5.32-2h-2.21l.16,3.71q.15,4.42,1.37,6.38a4.15,4.15,0,0,0,3.79,2,3.83,3.83,0,0,0,3.06-1.22A5.06,5.06,0,0,0,839.76,182.46Z"></path><path class="cls-2" d="M839.76,155.78a13.17,13.17,0,0,0-.14-1.9,14.22,14.22,0,0,0-.3-1.45h2.83a6.34,6.34,0,0,1,.48,1.78,13,13,0,0,1,.19,2.11q0,7.11-7.48,7.11H820.77v3.5H819l-1.54-3.5-5.23-1.57v-2.14h5.68v-7.11h2.88v7.11h14.41a5,5,0,0,0,3.4-1.05A3.65,3.65,0,0,0,839.76,155.78Z"></path><path class="cls-2" d="M811.25,147.85a2.47,2.47,0,0,1-1.86-.62,2.3,2.3,0,0,1,0-3.11,2.42,2.42,0,0,1,1.85-.65,2.47,2.47,0,0,1,1.87.65,2.29,2.29,0,0,1,0,3.11A2.54,2.54,0,0,1,811.25,147.85Zm31.13-4v3.71H817.89v-3.71Z"></path><path class="cls-2" d="M842.38,130.6l-24.49,9.3v-4l14.52-5.27a66.3,66.3,0,0,1,6.62-2.1v-.18a49.89,49.89,0,0,1-4.91-1.56q-3.72-1.31-16.23-5.86v-4l24.49,9.3Z"></path><path class="cls-2" d="M842.82,102.69a11.26,11.26,0,0,1-3.3,8.57q-3.32,3.15-9.19,3.14t-9.4-2.91a9.69,9.69,0,0,1-3.49-7.84,9.24,9.24,0,0,1,3-7.28,11.59,11.59,0,0,1,8-2.68h2.34v16.87c2.88-.08,5.06-.8,6.55-2.18a7.54,7.54,0,0,0,2.23-5.82,19.76,19.76,0,0,0-1.65-7.82h3.31a20.37,20.37,0,0,1,1.22,3.72A21.38,21.38,0,0,1,842.82,102.69Zm-22.27,1a6,6,0,0,0,1.92,4.7,8.85,8.85,0,0,0,5.32,2.07V97.67a8.2,8.2,0,0,0-5.38,1.56A5.51,5.51,0,0,0,820.55,103.7Z"></path><rect class="cls-2" x="550.63" y="176.92" width="150.24" height="12.97"></rect><rect class="cls-2" x="859.78" y="293.36" width="237.25" height="14.5"></rect></svg> 