<?xml version="1.0" encoding="UTF-8"?> <svg xmlns="http://www.w3.org/2000/svg" id="Design" viewBox="0 0 690 211"><defs><style>.cls-1{fill:#1e73be;}.cls-2{fill:#f4b335;}</style></defs><path class="cls-1" d="M91.83,185.31H52.69V78.08l.38-17.62.63-19.27Q44,51,40.15,54L18.87,71.11,0,47.53,59.66,0H91.83Z"></path><path class="cls-1" d="M167,151.23q-6.48,25.2-21.95,59.77H117.62q8.1-33.19,12.59-62.64h34.92Z"></path><path class="cls-1" d="M309.45,94.09q0,47.79-15.65,70.76t-48.2,23q-31.54,0-47.57-23.71t-16-70Q182,45.8,197.6,22.9T245.6,0q31.54,0,47.7,24T309.45,94.09Zm-89.16,0q0,33.57,5.8,48.11t19.51,14.54q13.47,0,19.46-14.73t6-47.92q0-33.57-6.05-48.23T245.6,31.2q-13.59,0-19.45,14.66T220.29,94.09Z"></path><path class="cls-1" d="M415.24,125.49a72.58,72.58,0,0,1-4.12,16.66q-6,14.72-19.45,14.72-13.73,0-19.52-14.54t-5.8-48.1q0-33.57,5.86-48.23t19.46-14.67Q405,31.33,411.06,46a71.74,71.74,0,0,1,4.15,16.59h38Q449.42,39,439.36,24.1q-16.14-24-47.69-24-32.43,0-48,22.9T328.07,94.23q0,46.29,16,70t47.57,23.71q32.54,0,48.19-23,10-14.67,13.6-39.49Z"></path><path class="cls-1" d="M585.13,24.1Q569,.13,537.44.14q-32.43,0-48,22.9-9.94,14.6-13.53,39.55H514A73.39,73.39,0,0,1,518,46q5.87-14.67,19.46-14.67,13.34,0,19.39,14.67t6,48.23q0,33.19-6,47.92t-19.45,14.72q-13.73,0-19.52-14.54a73.63,73.63,0,0,1-4-16.84H476.05q3.75,23.83,13.82,38.74,16,23.72,47.57,23.71,32.53,0,48.19-23t15.65-70.75Q601.28,48.06,585.13,24.1Z"></path><path class="cls-1" d="M395.6,83.76A6.56,6.56,0,0,0,390,86.5q-2,2.75-2,7.63,0,10.2,7.64,10.19a24.12,24.12,0,0,0,7.77-1.6v5.41A21.42,21.42,0,0,1,395,109.7q-6.64,0-10.16-4t-3.52-11.58a18.8,18.8,0,0,1,1.73-8.32,12.47,12.47,0,0,1,5-5.48,14.7,14.7,0,0,1,7.59-1.91,20.46,20.46,0,0,1,8.91,2.15l-2.08,5.25A36.15,36.15,0,0,0,399,84.36,10.28,10.28,0,0,0,395.6,83.76Z"></path><path class="cls-1" d="M409.84,109.28V78.82h6.45V104h12.35v5.33Z"></path><path class="cls-1" d="M433.93,109.28V78.82h6.45v30.46Z"></path><path class="cls-1" d="M465.57,109.28H448V78.82h17.53v5.29H454.5V90.8h10.3v5.29H454.5V104h11.07Z"></path><path class="cls-1" d="M498.92,109.28h-8.2l-13.24-23h-.19c.26,4.07.4,7,.4,8.71v14.33h-5.77V78.82h8.14l13.22,22.81h.15q-.31-5.92-.32-8.39V78.82h5.81Z"></path><path class="cls-1" d="M518.32,109.28h-6.45V84.2h-8.26V78.82h23V84.2h-8.27Z"></path><path class="cls-1" d="M549.24,100.82a7.87,7.87,0,0,1-3,6.5c-2,1.59-4.73,2.38-8.25,2.38a19.27,19.27,0,0,1-8.62-1.84v-6a34.52,34.52,0,0,0,5.21,1.94,15.28,15.28,0,0,0,3.91.56,5.59,5.59,0,0,0,3.26-.81,2.8,2.8,0,0,0,1.13-2.42,2.71,2.71,0,0,0-.5-1.59,5.39,5.39,0,0,0-1.47-1.34A38.22,38.22,0,0,0,537,96.13a18.41,18.41,0,0,1-4.19-2.52,9.27,9.27,0,0,1-2.22-2.81,8,8,0,0,1-.84-3.75,7.89,7.89,0,0,1,2.74-6.35q2.75-2.33,7.57-2.32a17.68,17.68,0,0,1,4.53.57,30.41,30.41,0,0,1,4.5,1.58l-2.08,5a30.38,30.38,0,0,0-4-1.4,13.09,13.09,0,0,0-3.13-.39,4.14,4.14,0,0,0-2.81.85,2.84,2.84,0,0,0-1,2.23,2.7,2.7,0,0,0,.4,1.49,4.12,4.12,0,0,0,1.26,1.23,37.71,37.71,0,0,0,4.09,2.14,16.34,16.34,0,0,1,5.85,4.09A8,8,0,0,1,549.24,100.82Z"></path><path class="cls-2" d="M562.56,107.93v-28h49.61V30.27h28V79.92H690v28H640.16v49.88h-28V107.93Z"></path></svg> 