<?xml version="1.0" encoding="UTF-8"?> <svg xmlns="http://www.w3.org/2000/svg" id="Design" viewBox="0 0 196 93.39"><defs><style>.cls-1{fill:none;stroke:#d0d2d3;stroke-miterlimit:10;stroke-width:0.42px;}.cls-2{fill:#f2f2f2;}.cls-3{fill:#303e49;}.cls-4{fill:#2473ba;}.cls-5{fill:#faa719;}.cls-6{fill:#fff;}</style></defs><line class="cls-1" y1="93.21" x2="195.97" y2="93.21"></line><line class="cls-1" y1="73.57" x2="195.97" y2="73.57"></line><line class="cls-1" y1="53.94" x2="195.97" y2="53.94"></line><line class="cls-1" y1="34.3" x2="195.97" y2="34.3"></line><rect class="cls-2" width="89.69" height="30.97" rx="2.38"></rect><path class="cls-3" d="M10.17,7H11L9.28,12H8.43L6.71,7h.83l1,3.06c0,.15.11.34.17.57s.1.4.12.51A4.62,4.62,0,0,1,9,10.58c.06-.22.11-.39.15-.5Z"></path><path class="cls-3" d="M11.66,12V7h.8V12Z"></path><path class="cls-3" d="M16.61,10.62a1.25,1.25,0,0,1-.47,1,2.09,2.09,0,0,1-1.32.38,3.19,3.19,0,0,1-1.37-.26V11a5.55,5.55,0,0,0,.72.25,3.07,3.07,0,0,0,.71.09,1,1,0,0,0,.7-.19.57.57,0,0,0,.23-.49.59.59,0,0,0-.21-.46,3.28,3.28,0,0,0-.86-.46,2.26,2.26,0,0,1-1-.62,1.32,1.32,0,0,1-.28-.85,1.19,1.19,0,0,1,.44-1A1.79,1.79,0,0,1,15.13,7a3.42,3.42,0,0,1,1.41.31l-.26.65a3.15,3.15,0,0,0-1.17-.27.89.89,0,0,0-.6.17.56.56,0,0,0-.2.45.67.67,0,0,0,.08.33.84.84,0,0,0,.27.26,4.82,4.82,0,0,0,.67.32,3.66,3.66,0,0,1,.79.42,1.16,1.16,0,0,1,.37.44A1.34,1.34,0,0,1,16.61,10.62Z"></path><path class="cls-3" d="M17.57,12V7h.8V12Z"></path><path class="cls-3" d="M21.38,12h-.81V7.72H19.12V7h3.71v.69H21.38Z"></path><path class="cls-3" d="M28,9.49a2.69,2.69,0,0,1-.6,1.87,2.18,2.18,0,0,1-1.71.67,2.22,2.22,0,0,1-1.72-.66,2.75,2.75,0,0,1-.6-1.89A2.71,2.71,0,0,1,24,7.6,2.23,2.23,0,0,1,25.67,7a2.19,2.19,0,0,1,1.7.66A2.72,2.72,0,0,1,28,9.49Zm-3.77,0a2.25,2.25,0,0,0,.37,1.38,1.5,1.5,0,0,0,2.18,0,2.23,2.23,0,0,0,.36-1.38,2.23,2.23,0,0,0-.36-1.38,1.28,1.28,0,0,0-1.08-.47,1.32,1.32,0,0,0-1.1.47A2.23,2.23,0,0,0,24.2,9.49Z"></path><path class="cls-3" d="M29.83,10v2H29V7h1.39a2.37,2.37,0,0,1,1.42.35,1.3,1.3,0,0,1,.45,1.08,1.34,1.34,0,0,1-.95,1.32L32.73,12h-.92l-1.18-2Zm0-.67h.57a1.27,1.27,0,0,0,.81-.21.75.75,0,0,0,.25-.62.67.67,0,0,0-.27-.6,1.49,1.49,0,0,0-.82-.18h-.54Z"></path><path class="cls-3" d="M37,12h-.81V7.72H34.69V7H38.4v.69H37Z"></path><path class="cls-3" d="M39.15,12V7H40V12Z"></path><path class="cls-3" d="M43.4,12,42,7.84h0C42,8.45,42,9,42,9.56V12h-.74V7H42.4L43.77,11h0L45.2,7h1.14V12h-.77V9.52c0-.24,0-.56,0-1s0-.63,0-.71h0L44.11,12Z"></path><path class="cls-3" d="M50.43,12H47.64V7h2.79v.68h-2V9.05h1.86v.68H48.45v1.55h2Z"></path><path class="cls-3" d="M57.68,9.49a2.7,2.7,0,0,1-.61,1.87,2.16,2.16,0,0,1-1.7.67,2.2,2.2,0,0,1-1.72-.66,2.75,2.75,0,0,1-.6-1.89,2.7,2.7,0,0,1,.6-1.88A2.26,2.26,0,0,1,55.37,7a2.21,2.21,0,0,1,1.71.66A2.72,2.72,0,0,1,57.68,9.49Zm-3.77,0a2.18,2.18,0,0,0,.37,1.38,1.3,1.3,0,0,0,1.09.47,1.28,1.28,0,0,0,1.08-.47,2.16,2.16,0,0,0,.37-1.38,2.23,2.23,0,0,0-.36-1.38,1.5,1.5,0,0,0-2.18,0A2.16,2.16,0,0,0,53.91,9.49Z"></path><path class="cls-3" d="M62.85,12h-1L59.43,8h0l0,.22c0,.42,0,.8,0,1.15V12h-.73V7h1l2.42,3.91h0s0-.24,0-.57,0-.58,0-.76V7h.74Z"></path><path class="cls-3" d="M69.21,8.52a1.45,1.45,0,0,1-.5,1.18,2.22,2.22,0,0,1-1.45.42h-.51V12h-.81V7h1.43a2.16,2.16,0,0,1,1.38.37A1.37,1.37,0,0,1,69.21,8.52Zm-2.46.92h.43a1.56,1.56,0,0,0,.91-.22.79.79,0,0,0,.29-.67.78.78,0,0,0-.26-.64,1.27,1.27,0,0,0-.81-.21h-.56Z"></path><path class="cls-3" d="M73.26,12l-.49-1.37H70.88L70.4,12h-.85l1.84-5h.88l1.85,5ZM72.55,9.9l-.46-1.35L72,8.13c-.06-.2-.1-.34-.12-.43a6.93,6.93,0,0,1-.27.91L71.12,9.9Z"></path><path class="cls-3" d="M76.79,9.28H78.6v2.48a5,5,0,0,1-.85.21,6.23,6.23,0,0,1-.89.06,2.24,2.24,0,0,1-1.73-.66,2.72,2.72,0,0,1-.61-1.88,2.48,2.48,0,0,1,.69-1.86A2.57,2.57,0,0,1,77.1,7a3.63,3.63,0,0,1,1.46.29l-.28.67a2.9,2.9,0,0,0-1.2-.27,1.61,1.61,0,0,0-1.25.49,1.92,1.92,0,0,0-.46,1.36,2,2,0,0,0,.41,1.38,1.51,1.51,0,0,0,1.19.47,4.35,4.35,0,0,0,.84-.1V10h-1Z"></path><path class="cls-3" d="M82.58,12H79.79V7h2.79v.68h-2V9.05h1.86v.68H80.59v1.55h2Z"></path><path class="cls-3" d="M22.26,23.27h-.88l-.84-2.94c0-.13-.08-.31-.13-.56a4.19,4.19,0,0,1-.1-.5c0,.14-.06.33-.11.56a4.5,4.5,0,0,1-.13.51l-.81,2.93h-.88l-.64-2.47-.65-2.46h.83l.7,2.87c.11.46.19.87.24,1.22,0-.19.06-.4.11-.64s.1-.42.14-.57l.8-2.88h.8l.82,2.89a11.31,11.31,0,0,1,.25,1.2A9.46,9.46,0,0,1,22,21.21l.7-2.87h.81Z"></path><path class="cls-3" d="M24.24,23.27V18.34h.81v4.93Z"></path><path class="cls-3" d="M28.06,23.27h-.81V19H25.8v-.69h3.71V19H28.06Z"></path><path class="cls-3" d="M34.16,23.27h-.82V21.05H31.07v2.22h-.81V18.34h.81v2h2.27v-2h.82Z"></path><path class="cls-3" d="M39.83,20.8a2.69,2.69,0,0,1-.6,1.87,2.16,2.16,0,0,1-1.7.67,2.2,2.2,0,0,1-1.72-.66,2.73,2.73,0,0,1-.6-1.89,2.7,2.7,0,0,1,.6-1.88,2.25,2.25,0,0,1,1.72-.65,2.17,2.17,0,0,1,1.7.66A2.72,2.72,0,0,1,39.83,20.8Zm-3.76,0a2.16,2.16,0,0,0,.37,1.38,1.29,1.29,0,0,0,1.09.47,1.26,1.26,0,0,0,1.08-.47A2.16,2.16,0,0,0,39,20.8a2.23,2.23,0,0,0-.36-1.38,1.5,1.5,0,0,0-2.18,0A2.16,2.16,0,0,0,36.07,20.8Z"></path><path class="cls-3" d="M44.76,18.34v3.19a2,2,0,0,1-.23,1,1.6,1.6,0,0,1-.68.63,2.33,2.33,0,0,1-1.06.22,2,2,0,0,1-1.43-.49,1.75,1.75,0,0,1-.51-1.33V18.34h.81v3.12a1.23,1.23,0,0,0,.28.9,1.18,1.18,0,0,0,.87.29c.77,0,1.15-.4,1.15-1.2V18.34Z"></path><path class="cls-3" d="M47.73,23.27h-.81V19H45.47v-.69h3.71V19H47.73Z"></path><path class="cls-4" d="M12.48,20.77A2.51,2.51,0,1,1,10,18.26,2.51,2.51,0,0,1,12.48,20.77Z"></path><path class="cls-3" d="M70.67,23.27h-.88L69,20.33c0-.13-.08-.32-.13-.56a4.19,4.19,0,0,1-.1-.5c0,.14-.06.33-.11.56a4.5,4.5,0,0,1-.13.51l-.81,2.93h-.88l-.64-2.47-.65-2.46h.83l.7,2.87c.11.46.19.87.24,1.22,0-.19.06-.4.11-.64s.1-.42.14-.57l.8-2.88h.8l.82,2.89a11.31,11.31,0,0,1,.25,1.2,9.46,9.46,0,0,1,.25-1.22l.7-2.87H72Z"></path><path class="cls-3" d="M72.65,23.27V18.34h.81v4.93Z"></path><path class="cls-3" d="M76.47,23.27h-.81V19H74.21v-.69h3.71V19H76.47Z"></path><path class="cls-3" d="M82.57,23.27h-.82V21.05H79.48v2.22h-.81V18.34h.81v2h2.27v-2h.82Z"></path><path class="cls-5" d="M60.9,20.85a2.52,2.52,0,1,1-2.52-2.52A2.52,2.52,0,0,1,60.9,20.85Z"></path><path class="cls-5" d="M118.45,16.15h55.64a3.6,3.6,0,0,1,3.6,3.6V93.39a0,0,0,0,1,0,0H114.85a0,0,0,0,1,0,0V19.75A3.6,3.6,0,0,1,118.45,16.15Z"></path><path class="cls-6" d="M121.12,23.8c0-1.75.71-2.62,2.13-2.62a2.94,2.94,0,0,1,.57.05v.6a2.06,2.06,0,0,0-.53-.07,1.4,1.4,0,0,0-1.08.39,1.86,1.86,0,0,0-.39,1.23h0a1,1,0,0,1,.4-.38,1.35,1.35,0,0,1,.62-.14,1.2,1.2,0,0,1,.94.38,1.4,1.4,0,0,1,.34,1,1.57,1.57,0,0,1-.39,1.11,1.51,1.51,0,0,1-2.45-.5A2.61,2.61,0,0,1,121.12,23.8Zm1.56,1.37a.72.72,0,0,0,.57-.24,1,1,0,0,0,.2-.68.92.92,0,0,0-.19-.6.69.69,0,0,0-.56-.22.88.88,0,0,0-.43.1.68.68,0,0,0-.31.27.58.58,0,0,0-.11.35,1.12,1.12,0,0,0,.23.73A.74.74,0,0,0,122.68,25.17Z"></path><path class="cls-6" d="M129.05,25.7,127.75,22h0c0,.56,0,1.08,0,1.56V25.7h-.66V21.24h1l1.24,3.55h0l1.27-3.55h1V25.7H131V23.5c0-.23,0-.52,0-.87s0-.57,0-.65h0l-1.34,3.72Z"></path><path class="cls-6" d="M133.14,25.7V21.24h.73V25.7Z"></path><path class="cls-6" d="M139,25.7h-.9l-2.19-3.56h0l0,.2c0,.38,0,.73,0,1V25.7h-.66V21.24h.89l2.19,3.54h0c0-.05,0-.22,0-.51s0-.53,0-.69V21.24H139Z"></path><path class="cls-6" d="M143,24.49a1.1,1.1,0,0,1-.43.93,1.82,1.82,0,0,1-1.18.34,2.77,2.77,0,0,1-1.24-.23v-.69a3.22,3.22,0,0,0,.64.22,2.59,2.59,0,0,0,.64.09,1,1,0,0,0,.64-.17.54.54,0,0,0,.21-.44.52.52,0,0,0-.19-.42,2.86,2.86,0,0,0-.78-.42,2,2,0,0,1-.86-.56,1.19,1.19,0,0,1-.25-.77,1.09,1.09,0,0,1,.39-.88,1.68,1.68,0,0,1,1.07-.32,3.29,3.29,0,0,1,1.28.28l-.24.6a2.7,2.7,0,0,0-1.06-.25.85.85,0,0,0-.54.15.52.52,0,0,0-.18.41.56.56,0,0,0,.07.3.76.76,0,0,0,.24.23,4,4,0,0,0,.61.29,3.22,3.22,0,0,1,.72.39,1.13,1.13,0,0,1,.34.39A1.25,1.25,0,0,1,143,24.49Z"></path><path class="cls-6" d="M144.81,25.05a11.31,11.31,0,0,1-.54,1.46h-.53a15.6,15.6,0,0,0,.32-1.53h.7Z"></path><path class="cls-6" d="M150.65,25.7h-3v-.54L148.77,24a9.39,9.39,0,0,0,.68-.74,1.61,1.61,0,0,0,.24-.41,1.15,1.15,0,0,0,.08-.41.62.62,0,0,0-.19-.48.7.7,0,0,0-.5-.17,1.37,1.37,0,0,0-.49.09,2.79,2.79,0,0,0-.56.34l-.39-.47a2.54,2.54,0,0,1,.73-.45,2.27,2.27,0,0,1,.75-.13,1.49,1.49,0,0,1,1,.33,1.1,1.1,0,0,1,.37.87,1.58,1.58,0,0,1-.11.58,2.21,2.21,0,0,1-.33.56,8.06,8.06,0,0,1-.75.78l-.77.75v0h2.12Z"></path><path class="cls-6" d="M154.47,23.47a3.17,3.17,0,0,1-.38,1.73,1.42,1.42,0,0,1-2.27,0,3.09,3.09,0,0,1-.39-1.71,3.16,3.16,0,0,1,.38-1.74,1.42,1.42,0,0,1,2.27,0A3.13,3.13,0,0,1,154.47,23.47Zm-2.31,0a3.13,3.13,0,0,0,.19,1.3.61.61,0,0,0,.6.4.63.63,0,0,0,.6-.4,3.2,3.2,0,0,0,.19-1.3,3.2,3.2,0,0,0-.19-1.3.65.65,0,0,0-1.2,0A3.22,3.22,0,0,0,152.16,23.47Z"></path><path class="cls-6" d="M160,24.49a1.1,1.1,0,0,1-.44.93,1.82,1.82,0,0,1-1.18.34,2.77,2.77,0,0,1-1.24-.23v-.69a3.31,3.31,0,0,0,.65.22,2.47,2.47,0,0,0,.64.09,1,1,0,0,0,.64-.17.56.56,0,0,0,.2-.44.52.52,0,0,0-.19-.42,2.57,2.57,0,0,0-.78-.42,2,2,0,0,1-.86-.56,1.19,1.19,0,0,1-.25-.77,1.07,1.07,0,0,1,.4-.88,1.65,1.65,0,0,1,1.06-.32,3.25,3.25,0,0,1,1.28.28l-.23.6a2.78,2.78,0,0,0-1.07-.25.82.82,0,0,0-.53.15.5.5,0,0,0-.19.41.56.56,0,0,0,.08.3.67.67,0,0,0,.24.23,3.36,3.36,0,0,0,.6.29,3.22,3.22,0,0,1,.72.39,1,1,0,0,1,.34.39A1.25,1.25,0,0,1,160,24.49Z"></path><path class="cls-6" d="M163.67,25.7h-2.53V21.24h2.53v.61h-1.8v1.22h1.68v.61h-1.68v1.4h1.8Z"></path><path class="cls-6" d="M166.78,21.8a1.2,1.2,0,0,0-1,.45,1.88,1.88,0,0,0-.36,1.23,1.93,1.93,0,0,0,.35,1.24,1.22,1.22,0,0,0,1,.42,2.44,2.44,0,0,0,.55-.06,4,4,0,0,0,.55-.14v.63a3.38,3.38,0,0,1-1.19.19,1.88,1.88,0,0,1-1.5-.59,2.49,2.49,0,0,1-.53-1.7,2.77,2.77,0,0,1,.26-1.22,1.79,1.79,0,0,1,.74-.8,2.25,2.25,0,0,1,1.13-.28,2.81,2.81,0,0,1,1.26.29l-.26.61a3.43,3.43,0,0,0-.48-.19A1.84,1.84,0,0,0,166.78,21.8Z"></path><path class="cls-6" d="M171.67,24.49a1.1,1.1,0,0,1-.43.93,1.85,1.85,0,0,1-1.19.34,2.8,2.8,0,0,1-1.24-.23v-.69a3.55,3.55,0,0,0,.65.22,2.53,2.53,0,0,0,.64.09,1,1,0,0,0,.64-.17.54.54,0,0,0,.21-.44.55.55,0,0,0-.19-.42,2.86,2.86,0,0,0-.78-.42,2.08,2.08,0,0,1-.87-.56,1.25,1.25,0,0,1-.25-.77,1.1,1.1,0,0,1,.4-.88,1.68,1.68,0,0,1,1.07-.32,3.24,3.24,0,0,1,1.27.28l-.23.6a2.74,2.74,0,0,0-1.06-.25.83.83,0,0,0-.54.15.52.52,0,0,0-.18.41.56.56,0,0,0,.07.3.76.76,0,0,0,.24.23,3.56,3.56,0,0,0,.61.29,3.46,3.46,0,0,1,.72.39,1.09,1.09,0,0,1,.33.39A1.12,1.12,0,0,1,171.67,24.49Z"></path><path class="cls-4" d="M20.39,81.81H79a2.1,2.1,0,0,1,2.1,2.1v9.48a0,0,0,0,1,0,0H18.29a0,0,0,0,1,0,0V83.91A2.1,2.1,0,0,1,20.39,81.81Z"></path><path class="cls-6" d="M39.91,89.72h-.72V86.83q0-.51,0-.81l-.18.16c-.06.06-.29.24-.68.56L38,86.29l1.31-1h.6Z"></path><path class="cls-6" d="M44.65,87.49a3.14,3.14,0,0,1-.37,1.72,1.28,1.28,0,0,1-1.15.57A1.3,1.3,0,0,1,42,89.2a3.19,3.19,0,0,1-.38-1.71A3.23,3.23,0,0,1,42,85.74a1.42,1.42,0,0,1,2.28,0A3.2,3.2,0,0,1,44.65,87.49Zm-2.31,0a3.35,3.35,0,0,0,.19,1.3.66.66,0,0,0,1.21,0,3.29,3.29,0,0,0,.19-1.29,3.35,3.35,0,0,0-.19-1.3.66.66,0,0,0-1.21,0A3.37,3.37,0,0,0,42.34,87.49Z"></path><path class="cls-6" d="M50.21,88.51a1.12,1.12,0,0,1-.43.93,1.85,1.85,0,0,1-1.19.34,2.77,2.77,0,0,1-1.24-.24v-.69a2.78,2.78,0,0,0,.65.23,2.49,2.49,0,0,0,.64.08,1,1,0,0,0,.64-.16.54.54,0,0,0,.21-.45.59.59,0,0,0-.19-.42,2.85,2.85,0,0,0-.79-.41,2.11,2.11,0,0,1-.86-.57,1.22,1.22,0,0,1-.25-.76,1.06,1.06,0,0,1,.4-.88,1.66,1.66,0,0,1,1.07-.32,3.07,3.07,0,0,1,1.27.28l-.23.6a2.74,2.74,0,0,0-1.06-.25.83.83,0,0,0-.54.15.51.51,0,0,0-.18.41.54.54,0,0,0,.07.29.78.78,0,0,0,.24.24,4,4,0,0,0,.61.29,3.31,3.31,0,0,1,.72.38,1.12,1.12,0,0,1,.33.4A1.22,1.22,0,0,1,50.21,88.51Z"></path><path class="cls-6" d="M53.85,89.72H51.32V85.25h2.53v.62h-1.8v1.22h1.69v.61H52.05v1.4h1.8Z"></path><path class="cls-6" d="M57,85.82a1.17,1.17,0,0,0-1,.44,1.92,1.92,0,0,0-.36,1.23A2,2,0,0,0,56,88.74a1.23,1.23,0,0,0,1,.42,2.44,2.44,0,0,0,.55-.06l.56-.14v.62a3.41,3.41,0,0,1-1.19.2,1.92,1.92,0,0,1-1.51-.59,2.51,2.51,0,0,1-.53-1.7,2.74,2.74,0,0,1,.26-1.22,1.8,1.8,0,0,1,.74-.8A2.18,2.18,0,0,1,57,85.19a2.85,2.85,0,0,1,1.27.29l-.27.6a3.8,3.8,0,0,0-.47-.18A1.61,1.61,0,0,0,57,85.82Z"></path><path class="cls-6" d="M61.85,88.51a1.12,1.12,0,0,1-.43.93,1.82,1.82,0,0,1-1.18.34A2.77,2.77,0,0,1,59,89.54v-.69a2.87,2.87,0,0,0,.64.23,2.56,2.56,0,0,0,.65.08,1,1,0,0,0,.63-.16.54.54,0,0,0,.21-.45.55.55,0,0,0-.19-.42,2.75,2.75,0,0,0-.78-.41,2,2,0,0,1-.86-.57,1.16,1.16,0,0,1-.25-.76,1.06,1.06,0,0,1,.4-.88,1.63,1.63,0,0,1,1.06-.32,3.12,3.12,0,0,1,1.28.28l-.23.6a2.78,2.78,0,0,0-1.07-.25A.82.82,0,0,0,60,86a.49.49,0,0,0-.19.41.65.65,0,0,0,.07.29.72.72,0,0,0,.25.24,4.26,4.26,0,0,0,.6.29,2.89,2.89,0,0,1,.72.38,1.16,1.16,0,0,1,.34.4A1.22,1.22,0,0,1,61.85,88.51Z"></path></svg> 