<?xml version="1.0" encoding="UTF-8"?> <svg xmlns="http://www.w3.org/2000/svg" id="Design" viewBox="0 0 500 215"><defs><style>.cls-1{fill:#f3b333;}.cls-2{fill:#2473ba;}.cls-3{fill:#fff;}.cls-4{fill:#ea4c60;}.cls-5{fill:none;stroke:#fff;stroke-linecap:round;stroke-miterlimit:10;stroke-width:2.63px;stroke-dasharray:0 8.76;}</style></defs><rect class="cls-1" x="222.07" y="-1.05" width="272.88" height="216.22"></rect><rect class="cls-2" x="228.06" y="-1.05" width="272.88" height="216.22"></rect><path class="cls-3" d="M405,67.24a155.33,155.33,0,0,1-112.84,81v.48A158.42,158.42,0,0,0,418,74.75L424,79.41l5.28-39.2L397.93,64.29Z"></path><path class="cls-1" d="M363.54,112.2a152.7,152.7,0,0,0,29.64-32.46V29.47H363.54Z"></path><path class="cls-1" d="M327.87,133.93a151.84,151.84,0,0,0,29.64-17.05V70.45H327.87Z"></path><path class="cls-1" d="M321.84,104.54H292.2v39.88a150.44,150.44,0,0,0,29.64-8Z"></path><path class="cls-3" d="M302.81,187.9h-4.19V162.66h-5v-3.38h9.18Z"></path><path class="cls-3" d="M313.35,179.17h4a6,6,0,0,0,1.89,3.84,5.49,5.49,0,0,0,3.82,1.43,5.76,5.76,0,0,0,4.33-1.77,6.17,6.17,0,0,0,1.71-4.47,5.79,5.79,0,0,0-1.69-4.35A6.05,6.05,0,0,0,323,172.2a5.18,5.18,0,0,0-4.79,2.46l-3.54-.77,2.66-14.61h13.24v4h-10.3L318.91,170a6.93,6.93,0,0,1,4.87-1.77,8.9,8.9,0,0,1,6.76,2.9,10.46,10.46,0,0,1-.22,14.35,10.17,10.17,0,0,1-7.51,3,9.21,9.21,0,0,1-6.7-2.49A9.78,9.78,0,0,1,313.35,179.17Z"></path><path class="cls-3" d="M346.36,178.92h-9.78V175.3h9.78Z"></path><path class="cls-3" d="M368.62,187.9H350.51v-4l10-9.62c1.05-1,1.78-1.73,2.21-2.2a8.83,8.83,0,0,0,1.27-1.89,5.08,5.08,0,0,0-4.57-7.55,4.7,4.7,0,0,0-3.7,1.51,6.15,6.15,0,0,0-1.33,4.21v.32h-3.9v-.08a10,10,0,0,1,2.55-7.19,8.92,8.92,0,0,1,6.75-2.67,8.55,8.55,0,0,1,6.32,2.61,8.67,8.67,0,0,1,2.57,6.28q0,4-4.15,7.89l-8.89,8.38h13Z"></path><path class="cls-3" d="M372.81,177.84v-8.46a18.65,18.65,0,0,1,.32-3.82,7.13,7.13,0,0,1,1.41-2.94,9.57,9.57,0,0,1,8-3.86,9.47,9.47,0,0,1,8.25,4.14,10.94,10.94,0,0,1,1.53,6.32V178c0,2.92-.52,5.1-1.57,6.52a9.48,9.48,0,0,1-8.21,4,9.84,9.84,0,0,1-8.13-3.86C373.36,183.18,372.81,180.92,372.81,177.84Zm4.26.72V179a5.74,5.74,0,0,0,.69,3.23,5.38,5.38,0,0,0,4.75,2.29q5.55,0,5.55-6.12v-9.58a7.34,7.34,0,0,0-.68-3.78,6.13,6.13,0,0,0-9.54-.12,7,7,0,0,0-.77,3.86Z"></path><path class="cls-3" d="M397.72,170.75a7.09,7.09,0,1,1,5,2.06A6.78,6.78,0,0,1,397.72,170.75ZM399.9,163a3.89,3.89,0,1,0,5.51,0,3.95,3.95,0,0,0-5.51,0Zm18.07-4.3h2.78L405.49,188.5h-2.86Zm-2.25,27.69a7.1,7.1,0,1,1,5,2.05A6.79,6.79,0,0,1,415.72,186.41Zm1-5a3.86,3.86,0,0,0,3.91,3.91,3.89,3.89,0,1,0,0-7.77,3.84,3.84,0,0,0-3.91,3.86Z"></path><rect class="cls-4" x="-0.94" y="-0.17" width="223.01" height="216.22"></rect><line class="cls-5" x1="57.24" y1="29.47" x2="163.18" y2="29.47"></line><line class="cls-5" x1="57.24" y1="192.03" x2="163.18" y2="192.03"></line><path class="cls-3" d="M73.23,77.74c0,6.09-3,9.57-8.92,9.57s-8.92-3.48-8.92-9.57V57.94c0-6.09,3-9.57,8.92-9.57s8.92,3.48,8.92,9.57v3.7H67.57V57.56c0-2.72-1.2-3.75-3.1-3.75s-3.1,1-3.1,3.75V78.12c0,2.72,1.2,3.69,3.1,3.69s3.1-1,3.1-3.69V72.68h5.66Z"></path><path class="cls-3" d="M85,48.8V81.43h9.84v5.44H79V48.8Z"></path><path class="cls-3" d="M108.25,48.37c5.87,0,9.08,3.48,9.08,9.57v19.8c0,6.09-3.21,9.57-9.08,9.57s-9.08-3.48-9.08-9.57V57.94C99.17,51.85,102.37,48.37,108.25,48.37Zm0,33.5c1.9,0,3.1-1,3.1-3.75V57.56c0-2.72-1.2-3.75-3.1-3.75s-3.1,1-3.1,3.75V78.12C105.15,80.84,106.34,81.87,108.25,81.87Z"></path><path class="cls-3" d="M131.41,48.37c5.82,0,8.81,3.48,8.81,9.57v1.2h-5.65V57.56c0-2.72-1.09-3.75-3-3.75s-3,1-3,3.75c0,7.83,11.7,9.3,11.7,20.18,0,6.09-3.05,9.57-8.92,9.57s-8.92-3.48-8.92-9.57V75.4h5.66v2.72c0,2.72,1.19,3.69,3.1,3.69s3.09-1,3.09-3.69c0-7.83-11.69-9.3-11.69-20.18C122.6,51.85,125.59,48.37,131.41,48.37Z"></path><path class="cls-3" d="M160.07,64.85v5.44h-8.21V81.43h10.33v5.44H145.88V48.8h16.31v5.44H151.86V64.85Z"></path><path class="cls-3" d="M67.84,130.26v-6c0-3.53-1.19-4.84-3.91-4.84H61.86v15.5h-6V96.87h9c6.2,0,8.86,2.88,8.86,8.75v3c0,3.92-1.25,6.47-3.92,7.72,3,1.25,4,4.14,4,8.11v5.87a11.16,11.16,0,0,0,.65,4.62H68.39C68.06,134,67.84,133.36,67.84,130.26Zm-6-16.26H64.2c2.23,0,3.59-1,3.59-4v-3.75c0-2.72-.93-3.92-3.05-3.92H61.86Z"></path><path class="cls-3" d="M95.14,134.93l-1-6.9H86.77l-1,6.9H80.24l6.09-38.06h8.76l6.09,38.06Zm-1.85-12.07-2.88-19.25-2.88,19.25Z"></path><path class="cls-3" d="M124.78,96.87v5.43h-6.25v32.63h-6V102.3h-6.25V96.87Z"></path><path class="cls-3" d="M137.45,96.87v38.06h-6V96.87Z"></path><path class="cls-3" d="M154.47,96.43c5.87,0,9.08,3.48,9.08,9.57v19.8c0,6.09-3.21,9.57-9.08,9.57s-9.08-3.48-9.08-9.57V106C145.39,99.91,148.6,96.43,154.47,96.43Zm0,33.5c1.9,0,3.1-1,3.1-3.75V105.62c0-2.72-1.2-3.75-3.1-3.75s-3.1,1-3.1,3.75v20.56C151.37,128.9,152.57,129.93,154.47,129.93Z"></path><rect class="cls-3" x="55.88" y="145.65" width="107.67" height="27.04"></rect><path class="cls-4" d="M71.27,167.85H69.46V151.6h1.81Z"></path><path class="cls-4" d="M75.43,167.85V151.6h2.29l3.76,11.74V151.6h1.61v16.25H81.21l-4.16-13.14v13.14Z"></path><path class="cls-4" d="M94.43,155.52V157H92.72v-1.56c0-1.46-.58-2.34-1.91-2.34s-1.9.88-1.9,2.34V164c0,1.46.6,2.34,1.9,2.34s1.91-.88,1.91-2.34v-2.11h1.71v2c0,2.46-1.16,4.08-3.66,4.08s-3.65-1.62-3.65-4.08v-8.41c0-2.46,1.16-4.08,3.65-4.08S94.43,153.06,94.43,155.52Z"></path><path class="cls-4" d="M105.64,155.32v1.32c0,1.78-.62,2.9-2,3.34,1.48.44,2,1.65,2,3.39v2.53a4.1,4.1,0,0,0,.32,1.95h-1.83a4.25,4.25,0,0,1-.3-2v-2.56c0-1.83-.86-2.41-2.37-2.41h-1.28v6.94H98.4V151.6H102C104.58,151.6,105.64,152.9,105.64,155.32ZM103.86,157v-1.55c0-1.46-.54-2.23-1.88-2.23h-1.77v6h1.35C103,159.26,103.86,158.8,103.86,157Z"></path><path class="cls-4" d="M115.65,160.42h-4v5.78h4.87v1.65h-6.68V151.6h6.68v1.65h-4.87v5.55h4Z"></path><path class="cls-4" d="M121.75,167.85h-1.67l3.11-16.25h2.62l3.11,16.25h-1.81l-.62-3.27h-4.11Zm4.48-4.83-1.83-9.38L122.61,163Z"></path><path class="cls-4" d="M139.69,155.5v.44H138v-.53c0-1.46-.55-2.32-1.85-2.32s-1.86.86-1.86,2.29c0,3.65,5.45,4,5.45,8.57,0,2.46-1.18,4.06-3.66,4.06s-3.65-1.6-3.65-4.06V163h1.7v1c0,1.46.6,2.32,1.9,2.32s1.9-.86,1.9-2.32c0-3.62-5.43-4-5.43-8.54,0-2.51,1.16-4.06,3.6-4.06S139.69,153,139.69,155.5Z"></path><path class="cls-4" d="M149.39,160.42h-4v5.78h4.88v1.65h-6.69V151.6h6.69v1.65h-4.88v5.55h4Z"></path></svg> 