<?xml version="1.0" encoding="UTF-8"?> <!-- Generator: Adobe Illustrator 24.2.0, SVG Export Plug-In . SVG Version: 6.00 Build 0) --> <svg xmlns="http://www.w3.org/2000/svg" xmlns:xlink="http://www.w3.org/1999/xlink" version="1.1" id="Layer_1" x="0px" y="0px" viewBox="0 0 255.3 70.5" style="enable-background:new 0 0 255.3 70.5;" xml:space="preserve"> <style type="text/css"> .st0{fill:#323E48;} .st1{fill:#E54360;} </style> <g> <g> <g> <path class="st0" d="M31.8,18.1H9.7V8.6h23.4L34.3,0H5.8C2.6,0,0,2.6,0,5.8v39.7h9.7V26.5h20.9L31.8,18.1z"></path> <path class="st0" d="M70.7,0H51.5c-5.7,0-8.2,2.5-8.2,8.2v29.1c0,5.7,2.5,8.2,8.2,8.2h19.1c5.7,0,8.2-2.5,8.2-8.2V8.2 C78.9,2.5,76.3,0,70.7,0z M68.2,34.8c0,1.5-0.7,2.3-2.3,2.3h-9.6c-1.5,0-2.3-0.7-2.3-2.3v-24c0-1.5,0.7-2.3,2.3-2.3h9.6 c1.5,0,2.3,0.7,2.3,2.3V34.8z"></path> <path class="st0" d="M114.7,45.6h10.6l-8.2-16.7l1.3-0.3c3.9-0.8,5.6-3.3,5.6-8V8.2c0-5.7-2.5-8.2-8.2-8.2H89v45.6h9.7V29.7h7.9 L114.7,45.6z M98.7,8.3h12.4c1.5,0,2.3,0.7,2.3,2.3v8.9c0,1.5-0.7,2.3-2.3,2.3H98.7V8.3z"></path> <path class="st0" d="M168.8,13.7V8.2c0-5.7-2.5-8.2-8.2-8.2h-18.8c-5.7,0-8.2,2.5-8.2,8.2v29.1c0,5.7,2.5,8.2,8.2,8.2h18.8 c5.7,0,8.2-2.5,8.2-8.2V19.9h-13.5l2.9,9v6c0,1.5-0.7,2.3-2.3,2.3h-10.4c-1.5,0-2.3-0.7-2.3-2.3V10.7c0-1.5,0.7-2.3,2.3-2.3H156 c1.5,0,2.3,0.7,2.3,2.3v3L168.8,13.7L168.8,13.7z"></path> <polygon class="st0" points="208.9,37 188.1,37 188.1,26.5 210.4,26.5 211.6,18 188.1,18 188.1,8.6 212.9,8.6 214.1,0 178.4,0 178.4,45.6 207.7,45.6 "></polygon> </g> <path class="st1" d="M249.7,22.3c4.4-0.9,5.1-3.6,5.1-8.4V8.9c0-0.4,0-0.8,0-1.1c-0.1-5.3-2.7-7.7-8.2-7.7h-22.5l-1.2,8.6h22.2 l0,7.5c0,1.5-0.7,2-2.3,2h-21.3l-1.2,8.4h23.6c1,0,1.7,0.8,1.7,1.7V37h-26.8l-1.2,8.6h29.5c4.5,0,8.2-3.7,8.2-8.2v-6.8 C255.3,26.5,254.4,22.8,249.7,22.3z"></path> </g> <g> <path class="st0" d="M77.1,69h4.8v1.4h-6.3v-9.9h1.5V69z"></path> <path class="st0" d="M83.2,65.4c0-0.7,0.1-1,0.3-1.3c0.3-0.5,1.1-0.7,2.6-0.7c2.3,0,3,0.6,3,2.4v4.5h-1.4l0.1-0.8l0,0 c-0.4,0.7-0.9,0.9-2.3,0.9c-1.9,0-2.6-0.6-2.6-2.1c0-0.8,0.2-1.4,0.6-1.7c0.4-0.3,1.1-0.5,2-0.5c0.7,0,1.3,0.1,1.7,0.2 c0.2,0.1,0.4,0.2,0.5,0.5h0v-1c0-1.3-0.3-1.6-1.6-1.6c-1,0-1.4,0.2-1.5,0.6c0,0.1,0,0.2,0,0.5L83.2,65.4L83.2,65.4z M84.3,68.2 c0,1,0.3,1.2,1.6,1.2c1.4,0,1.8-0.3,1.8-1.1c0-0.9-0.4-1.2-1.7-1.2S84.3,67.3,84.3,68.2z"></path> <path class="st0" d="M96.5,70.4h-1.4l0.1-1.1l0,0c-0.4,0.8-1,1.1-2.2,1.1c-1.6,0-2.4-0.7-2.4-2.4v-4.6h1.4v4.4 c0,1.2,0.3,1.5,1.4,1.5c1.4,0,1.8-0.5,1.8-2v-3.9h1.4V70.4z"></path> <path class="st0" d="M99.5,63.5l0,1.1l0,0c0.3-0.8,1-1.2,2.2-1.2c1.1,0,1.9,0.3,2.2,0.9c0.2,0.3,0.2,0.7,0.2,1.5v4.6h-1.4v-4.3 c0-1.4-0.2-1.6-1.4-1.6c-1.3,0-1.9,0.5-1.9,1.8v4.1h-1.4v-6.9L99.5,63.5L99.5,63.5z"></path> <path class="st0" d="M111.8,67.8c0,1-0.1,1.4-0.4,1.8c-0.4,0.6-1.1,0.8-2.6,0.8c-2.6,0-3.2-0.7-3.2-3.6c0-2.7,0.7-3.5,3.1-3.5 c1.6,0,2.4,0.3,2.7,1.1c0.1,0.3,0.2,0.7,0.2,1.4h-1.4c0-1.1-0.3-1.4-1.6-1.4c-1.5,0-1.7,0.3-1.7,2.5c0,1.1,0.1,1.7,0.3,2.1 c0.2,0.3,0.6,0.4,1.5,0.4c1.3,0,1.5-0.2,1.5-1.6L111.8,67.8L111.8,67.8z"></path> <path class="st0" d="M114.4,64.5L114.4,64.5c0.3-0.8,0.9-1.1,2.2-1.1c1.9,0,2.5,0.6,2.5,2.4v4.6h-1.4V66c0-0.7,0-0.9-0.2-1.1 c-0.2-0.4-0.5-0.5-1.2-0.5c-1.5,0-1.9,0.4-1.9,2v3.9H113v-9.9h1.4L114.4,64.5L114.4,64.5z"></path> <path class="st0" d="M122.1,70.4h-1.4v-1.6h1.4V70.4z"></path> <path class="st0" d="M127.7,60.5h4.7c1.4,0,2.2,0.2,2.8,0.9c0.7,0.7,0.9,1.6,0.9,3.4c0,2.6-0.1,3.4-0.5,4.1 c-0.4,0.7-0.9,1.1-1.8,1.4c-0.4,0.1-0.9,0.1-1.3,0.1h-4.9L127.7,60.5L127.7,60.5z M132.1,69.1c1,0,1.6-0.2,1.9-0.6 c0.4-0.5,0.5-1.1,0.5-2.9c0-2-0.1-2.6-0.5-3.1c-0.3-0.4-0.8-0.6-1.8-0.6h-3.1v7.2L132.1,69.1L132.1,69.1z"></path> <path class="st0" d="M142.7,63.9c0.5,0.5,0.7,1.3,0.7,2.9c0,3.1-0.5,3.7-3.2,3.7c-1.5,0-2.3-0.2-2.7-0.9c-0.4-0.5-0.5-1.2-0.5-2.8 c0-2.8,0.6-3.4,3.1-3.4C141.7,63.4,142.3,63.5,142.7,63.9z M138.5,66.8c0,2.3,0.2,2.5,1.8,2.5c1.5,0,1.7-0.3,1.7-2.5 c0-2.1-0.2-2.4-1.8-2.4C138.7,64.5,138.5,64.7,138.5,66.8z"></path> <path class="st0" d="M146.2,70.4h-1.4v-1.6h1.4V70.4z"></path> <path class="st0" d="M159.7,65.3c0,0.5,0,0.6,0,1.2c0,1.8-0.1,2.3-0.4,2.8c-0.3,0.5-0.7,0.8-1.3,1c-0.4,0.1-1.3,0.2-2.6,0.2 c-1.4,0-2-0.1-2.6-0.3c-0.8-0.3-1.2-0.8-1.4-1.6c-0.1-0.5-0.2-1-0.2-2.1c0-2.8,0-3,0.2-3.8c0.2-1.1,0.8-1.7,1.8-2 c0.4-0.1,1-0.2,2.3-0.2c2.1,0,2.5,0.1,3.2,0.5c0.4,0.2,0.7,0.7,0.8,1.2c0.1,0.4,0.1,0.7,0.1,1.4h-1.5c0-1.6-0.2-1.7-2.7-1.7 c-1.5,0-2.1,0.2-2.4,0.7c-0.2,0.5-0.2,1-0.2,3c0,2.1,0,2.6,0.2,3c0.3,0.6,0.8,0.7,2.6,0.7c1.2,0,1.7-0.1,2-0.3 c0.3-0.2,0.5-0.8,0.5-1.9c0-0.1,0-0.3,0-0.5h-2.8v-1.2L159.7,65.3L159.7,65.3z"></path> <path class="st0" d="M162.4,63.5l-0.1,0.9l0,0c0.4-0.8,1-1,1.9-1c1.3,0,1.9,0.6,1.9,2.1c0,0.1,0,0.3,0,0.5h-1.3c0-0.2,0-0.3,0-0.5 c0-0.8-0.2-1.1-1-1.1c-0.6,0-1.1,0.2-1.3,0.7c-0.1,0.2-0.1,0.6-0.1,1.2v4.1H161v-6.9L162.4,63.5L162.4,63.5z"></path> <path class="st0" d="M172.3,63.9c0.5,0.5,0.7,1.3,0.7,2.9c0,3.1-0.5,3.7-3.2,3.7c-1.5,0-2.3-0.2-2.7-0.9c-0.4-0.5-0.5-1.2-0.5-2.8 c0-2.8,0.6-3.4,3.1-3.4C171.3,63.4,171.9,63.5,172.3,63.9z M168.1,66.8c0,2.3,0.2,2.5,1.8,2.5c1.5,0,1.7-0.3,1.7-2.5 c0-2.1-0.2-2.4-1.8-2.4C168.3,64.5,168.1,64.7,168.1,66.8z"></path> <path class="st0" d="M182.2,70.4h-2l-0.8-3.4c-0.1-0.5-0.2-1-0.3-1.2l-0.1-0.6l-0.1-0.6h0l-0.1,0.6l-0.1,0.6 c0,0.1-0.1,0.6-0.3,1.2l-0.8,3.4h-2l-1.7-6.9h1.4L176,67c0.2,0.8,0.2,0.8,0.4,1.9l0.1,0.6h0l0.1-0.6l0.1-0.6 c0-0.2,0.1-0.6,0.3-1.2l0.8-3.5h1.8l0.8,3.5c0.2,0.6,0.3,1.1,0.3,1.2l0.1,0.6l0.1,0.6h0l0.1-0.6c0.2-1,0.2-1.1,0.4-1.9l0.8-3.5 h1.4L182.2,70.4z"></path> <path class="st0" d="M185.8,70.4h-1.4v-1.6h1.4V70.4z"></path> </g> </g> </svg> 