<?xml version="1.0" encoding="UTF-8"?> <!-- Generator: Adobe Illustrator 24.2.0, SVG Export Plug-In . SVG Version: 6.00 Build 0) --> <svg xmlns="http://www.w3.org/2000/svg" xmlns:xlink="http://www.w3.org/1999/xlink" version="1.1" id="Layer_1" x="0px" y="0px" viewBox="0 0 255.3 45.6" style="enable-background:new 0 0 255.3 45.6;" xml:space="preserve"> <style type="text/css"> .st0{fill:#323E48;} .st1{fill:#E54360;} </style> <g> <g> <path class="st0" d="M31.8,18H9.7V8.5h23.4L34.3,0H5.8C2.6,0,0,2.6,0,5.8v39.7h9.7V26.4h20.9L31.8,18z"></path> <path class="st0" d="M70.7,0H51.5c-5.7,0-8.2,2.5-8.2,8.2v29.1c0,5.7,2.5,8.2,8.2,8.2h19.1c5.7,0,8.2-2.5,8.2-8.2V8.2 C78.9,2.5,76.3,0,70.7,0z M68.2,34.8c0,1.5-0.7,2.3-2.3,2.3h-9.6c-1.5,0-2.3-0.7-2.3-2.3v-24c0-1.5,0.7-2.3,2.3-2.3h9.6 c1.5,0,2.3,0.7,2.3,2.3V34.8z"></path> <path class="st0" d="M114.7,45.6h10.6l-8.2-16.7l1.3-0.3c3.9-0.8,5.6-3.3,5.6-8V8.2c0-5.7-2.5-8.2-8.2-8.2H89v45.6h9.7V29.7h7.9 L114.7,45.6z M98.7,8.3h12.4c1.5,0,2.3,0.7,2.3,2.3v8.9c0,1.5-0.7,2.3-2.3,2.3H98.7V8.3z"></path> <path class="st0" d="M168.8,13.6V8.2c0-5.7-2.5-8.2-8.2-8.2h-18.8c-5.7,0-8.2,2.5-8.2,8.2v29.1c0,5.7,2.5,8.2,8.2,8.2h18.8 c5.7,0,8.2-2.5,8.2-8.2V19.9h-13.5l2.9,9v6c0,1.5-0.7,2.3-2.3,2.3h-10.4c-1.5,0-2.3-0.7-2.3-2.3V10.7c0-1.5,0.7-2.3,2.3-2.3H156 c1.5,0,2.3,0.7,2.3,2.3v3L168.8,13.6L168.8,13.6z"></path> <polygon class="st0" points="208.9,37 188.1,37 188.1,26.4 210.4,26.4 211.6,18 188.1,18 188.1,8.6 212.9,8.6 214.1,0 178.4,0 178.4,45.6 207.7,45.6 "></polygon> </g> <path class="st1" d="M249.7,22.3c4.4-0.9,5.1-3.6,5.1-8.4V8.9c0-0.4,0-0.8,0-1.1c-0.1-5.3-2.7-7.7-8.2-7.7h-22.5l-1.2,8.6h22.2 l0,7.5c0,1.5-0.7,2-2.3,2h-21.3l-1.2,8.4h23.6c1,0,1.7,0.8,1.7,1.7V37h-26.8l-1.2,8.6h29.5c4.5,0,8.2-3.7,8.2-8.2v-6.8 C255.3,26.5,254.4,22.8,249.7,22.3z"></path> </g> </svg> 